<?xml version="1.0" standalone="no"?>
<!DOCTYPE svg PUBLIC "-//W3C//DTD SVG 20010904//EN"
 "http://www.w3.org/TR/2001/REC-SVG-20010904/DTD/svg10.dtd">
<svg version="1.0" xmlns="http://www.w3.org/2000/svg"
 width="700.000000pt" height="700.000000pt" viewBox="0 0 700.000000 700.000000"
 preserveAspectRatio="xMidYMid meet">
<metadata>
Created by potrace 1.14, written by Peter Selinger 2001-2017
</metadata>
<g transform="translate(0.000000,700.000000) scale(0.100000,-0.100000)"
fill="#000000" stroke="none">
<path d="M3415 6089 c-59 -8 -136 -28 -150 -39 -5 -4 -21 -11 -33 -15 -77 -23
-229 -166 -278 -260 -50 -97 -71 -172 -75 -270 -4 -87 45 -138 112 -119 45 13
67 49 73 120 21 227 196 394 422 403 275 11 490 -244 440 -523 -11 -65 -66
-163 -122 -220 -85 -85 -182 -124 -320 -129 l-78 -2 -1 -167 c0 -98 -4 -171
-10 -176 -6 -6 -129 -78 -275 -162 -146 -84 -337 -195 -425 -245 -88 -51 -200
-116 -250 -145 -49 -29 -108 -62 -130 -75 -80 -45 -542 -312 -615 -355 -41
-25 -91 -54 -111 -65 -317 -178 -354 -206 -381 -286 -42 -126 33 -276 154
-310 30 -8 162 -12 431 -12 l387 0 -6 -21 c-4 -12 -14 -37 -24 -56 -40 -81
-90 -257 -107 -375 -10 -74 -10 -351 0 -422 10 -73 51 -227 82 -309 120 -321
384 -621 690 -781 126 -66 327 -132 453 -149 26 -3 56 -8 67 -10 25 -6 293 -5
320 0 11 2 43 7 70 10 131 18 302 73 433 139 352 180 621 492 736 856 53 167
67 256 71 431 2 115 0 149 -20 280 -16 109 -86 323 -131 401 -2 3 171 6 385 6
434 -1 457 2 521 62 119 111 105 291 -30 381 -30 21 -75 49 -100 62 -25 14
-178 102 -340 195 -162 94 -311 180 -330 191 -19 11 -156 90 -305 176 -148 86
-440 254 -647 374 l-378 217 0 82 0 82 55 11 c76 16 199 79 263 135 222 196
276 536 125 782 -55 89 -90 129 -158 180 -134 102 -294 144 -460 122z m228
-1666 c73 -42 148 -85 167 -96 19 -11 161 -92 315 -181 154 -89 393 -227 530
-305 138 -79 262 -152 277 -162 15 -11 29 -19 31 -19 2 0 125 -70 272 -155
147 -85 269 -155 271 -155 2 0 22 -12 44 -26 42 -28 52 -58 23 -71 -13 -7
-825 -10 -888 -4 -6 1 -19 15 -29 32 -10 17 -64 77 -120 133 -507 508 -1299
574 -1891 158 -75 -53 -211 -181 -300 -282 l-40 -45 -425 2 c-234 0 -435 1
-446 2 -28 1 -37 35 -15 54 13 11 289 172 531 309 19 11 107 62 195 113 215
125 1134 655 1165 673 14 7 59 33 100 57 41 25 81 44 88 45 8 0 73 -34 145
-77z m26 -798 c25 -3 66 -11 91 -16 25 -6 53 -12 63 -14 97 -20 296 -114 405
-192 247 -176 443 -470 501 -753 6 -30 14 -66 17 -80 13 -56 11 -301 -3 -387
-62 -390 -305 -733 -653 -920 -249 -134 -578 -182 -840 -123 -25 6 -54 12 -65
14 -20 4 -103 31 -140 45 -71 27 -208 102 -276 151 -219 156 -382 378 -468
635 -30 91 -35 112 -47 194 -3 25 -8 57 -10 71 -6 33 -5 195 0 245 15 127 18
143 51 251 145 474 570 829 1055 881 30 3 56 6 58 8 5 4 215 -4 261 -10z"/>
<path d="M3457 3524 c-1 -1 -32 -5 -69 -8 -261 -23 -533 -157 -718 -353 -90
-95 -113 -125 -177 -228 -35 -57 -102 -215 -117 -277 l-6 -27 92 44 c154 73
230 90 393 89 122 -1 152 -5 230 -28 123 -37 281 -115 460 -226 181 -113 339
-194 420 -215 136 -37 280 -23 415 38 66 30 219 130 273 178 l38 34 -21 80
c-86 336 -316 623 -625 778 -57 28 -207 83 -251 91 -16 2 -40 7 -53 10 -57 13
-275 28 -284 20z"/>
<path d="M2510 2467 c-42 -21 -61 -72 -55 -152 3 -38 7 -79 9 -90 2 -11 7 -40
11 -64 4 -24 17 -74 30 -110 93 -274 286 -494 539 -616 145 -70 268 -99 418
-100 84 0 87 1 112 30 42 49 31 126 -22 157 -16 9 -65 18 -117 21 -411 28
-736 356 -770 777 -4 47 -14 97 -23 112 -26 45 -82 60 -132 35z"/>
</g>
</svg>
