<?xml version="1.0" standalone="no"?>
<!DOCTYPE svg PUBLIC "-//W3C//DTD SVG 20010904//EN"
 "http://www.w3.org/TR/2001/REC-SVG-20010904/DTD/svg10.dtd">
<svg version="1.0" xmlns="http://www.w3.org/2000/svg"
 width="700.000000pt" height="700.000000pt" viewBox="0 0 700.000000 700.000000"
 preserveAspectRatio="xMidYMid meet">
<metadata>
Created by potrace 1.14, written by Peter Selinger 2001-2017
</metadata>
<g transform="translate(0.000000,700.000000) scale(0.100000,-0.100000)"
fill="#000000" stroke="none">
<path d="M1833 5684 c-17 -7 -42 -28 -54 -46 l-24 -32 0 -381 c0 -331 -2 -384
-16 -406 -9 -13 -51 -91 -94 -174 -43 -82 -81 -154 -85 -160 -4 -5 -38 -68
-75 -140 -37 -71 -75 -143 -85 -160 -10 -16 -40 -74 -69 -127 -28 -54 -74
-142 -102 -195 -29 -54 -59 -111 -69 -128 -10 -16 -48 -88 -86 -160 -37 -71
-90 -170 -116 -220 -123 -226 -176 -361 -198 -510 -15 -101 -16 -284 -1 -355
6 -30 13 -65 16 -78 2 -13 7 -32 10 -42 3 -10 8 -27 10 -38 6 -35 65 -175 97
-232 160 -286 471 -514 776 -570 32 -5 68 -13 82 -17 14 -4 627 -9 1363 -10
l1338 -4 52 -33 c61 -38 198 -98 277 -119 177 -49 359 -56 535 -23 360 70 671
312 830 648 20 42 37 83 39 90 1 7 4 18 8 23 5 9 36 126 43 164 14 78 17 121
16 216 -3 228 -35 348 -158 590 -36 72 -69 135 -73 140 -4 6 -38 69 -75 140
-37 72 -79 150 -93 175 -13 25 -45 83 -70 130 -61 116 -105 198 -202 380 -45
85 -103 193 -127 240 -25 47 -66 123 -92 170 l-46 85 -5 552 -5 552 -29 30
c-16 16 -41 34 -55 39 -15 5 -734 9 -1691 9 -1341 0 -1671 -3 -1697 -13z"/>
</g>
</svg>
