<svg xmlns="http://www.w3.org/2000/svg" xmlns:xlink="http://www.w3.org/1999/xlink" width="500" zoomAndPan="magnify" viewBox="0 0 375 374.999991" height="500" preserveAspectRatio="xMidYMid meet" version="1.0"><defs><g/><clipPath id="d53523f1e4"><path d="M 203 117 L 295 117 L 295 252.734375 L 203 252.734375 Z M 203 117 " clip-rule="nonzero"/></clipPath><clipPath id="0577e78048"><path d="M 172 108.734375 L 232 108.734375 L 232 193 L 172 193 Z M 172 108.734375 " clip-rule="nonzero"/></clipPath><clipPath id="dad3161443"><path d="M 117.136719 79.203125 L 257.300781 79.203125 L 257.300781 237.195312 L 117.136719 237.195312 Z M 117.136719 79.203125 " clip-rule="nonzero"/></clipPath><clipPath id="a490c411c0"><path d="M 124.636719 79.203125 L 249.800781 79.203125 C 253.941406 79.203125 257.300781 82.5625 257.300781 86.703125 L 257.300781 229.695312 C 257.300781 233.839844 253.941406 237.195312 249.800781 237.195312 L 124.636719 237.195312 C 120.496094 237.195312 117.136719 233.839844 117.136719 229.695312 L 117.136719 86.703125 C 117.136719 82.5625 120.496094 79.203125 124.636719 79.203125 Z M 124.636719 79.203125 " clip-rule="nonzero"/></clipPath><clipPath id="85e44b9bc2"><path d="M 77 109 L 169 109 L 169 244.765625 L 77 244.765625 Z M 77 109 " clip-rule="nonzero"/></clipPath><clipPath id="4deca70daf"><path d="M 140 100.765625 L 200 100.765625 L 200 185 L 140 185 Z M 140 100.765625 " clip-rule="nonzero"/></clipPath><clipPath id="c88b9c361f"><path d="M 83 137 L 146 137 L 146 229.246094 L 83 229.246094 Z M 83 137 " clip-rule="nonzero"/></clipPath><clipPath id="3ea1075566"><path d="M 126 131.746094 L 166 131.746094 L 166 189 L 126 189 Z M 126 131.746094 " clip-rule="nonzero"/></clipPath><clipPath id="11b4df5180"><path d="M 225 145 L 288 145 L 288 237.070312 L 225 237.070312 Z M 225 145 " clip-rule="nonzero"/></clipPath><clipPath id="365c4aad21"><path d="M 204.09375 139.570312 L 245 139.570312 L 245 197 L 204.09375 197 Z M 204.09375 139.570312 " clip-rule="nonzero"/></clipPath><clipPath id="5d1907d0ef"><path d="M 121.4375 83.644531 L 253.4375 83.644531 L 253.4375 244.144531 L 121.4375 244.144531 Z M 121.4375 83.644531 " clip-rule="nonzero"/></clipPath><clipPath id="5f320ff24b"><path d="M 91 246.730469 L 279.800781 246.730469 L 279.800781 299.238281 L 91 299.238281 Z M 91 246.730469 " clip-rule="nonzero"/></clipPath><clipPath id="9efce97443"><path d="M 125.972656 299.238281 L 244.277344 299.238281 C 251.203125 299.238281 257.566406 295.429688 260.835938 289.324219 L 278.339844 256.648438 C 279.457031 254.5625 279.398438 252.039062 278.179688 250.007812 C 276.964844 247.976562 274.769531 246.730469 272.402344 246.730469 L 97.847656 246.730469 C 95.480469 246.730469 93.285156 247.976562 92.070312 250.007812 C 90.851562 252.039062 90.792969 254.5625 91.910156 256.648438 L 109.410156 289.324219 C 112.683594 295.429688 119.046875 299.238281 125.972656 299.238281 Z M 125.972656 299.238281 " clip-rule="nonzero"/></clipPath></defs><path fill="#0a57a2" d="M 248.734375 248.777344 C 264.355469 248.777344 278.613281 240.214844 285.949219 226.4375 C 292.484375 214.15625 292.488281 199.367188 285.960938 186.882812 L 251.910156 122.910156 C 251.292969 121.75 250.085938 121.027344 248.769531 121.027344 C 247.453125 121.027344 246.246094 121.75 245.628906 122.910156 L 211.589844 186.863281 C 206.304688 196.792969 205.203125 208.1875 208.484375 218.949219 C 211.769531 229.707031 219.050781 238.542969 228.980469 243.828125 C 235.058594 247.066406 241.890625 248.777344 248.734375 248.777344 Z M 248.734375 248.777344 " fill-opacity="1" fill-rule="nonzero"/><g clip-path="url(#d53523f1e4)"><path fill="#0a57a2" d="M 248.769531 124.582031 L 214.730469 188.535156 C 204.726562 207.332031 211.851562 230.683594 230.652344 240.6875 C 236.421875 243.761719 242.625 245.21875 248.734375 245.21875 C 262.53125 245.21875 275.871094 237.792969 282.804688 224.765625 C 289.023438 213.085938 288.507812 199.433594 282.804688 188.53125 L 248.769531 124.582031 M 248.769531 117.464844 C 251.398438 117.464844 253.816406 118.917969 255.050781 121.238281 L 289.089844 185.191406 C 289.097656 185.203125 289.105469 185.21875 289.113281 185.234375 C 296.1875 198.761719 296.179688 214.789062 289.089844 228.109375 C 281.136719 243.050781 265.671875 252.335938 248.734375 252.335938 C 241.308594 252.335938 233.902344 250.480469 227.308594 246.96875 C 216.539062 241.238281 208.644531 231.65625 205.082031 219.984375 C 201.519531 208.316406 202.714844 195.960938 208.449219 185.191406 L 242.488281 121.238281 C 243.722656 118.917969 246.136719 117.464844 248.769531 117.464844 Z M 248.769531 117.464844 " fill-opacity="1" fill-rule="nonzero"/></g><path fill="#0a57a2" d="M 254.972656 161.171875 L 235.511719 197.738281 C 229.789062 208.488281 233.867188 221.835938 244.613281 227.558594 C 255.363281 233.28125 268.714844 229.203125 274.433594 218.457031 C 277.988281 211.777344 277.695312 203.972656 274.433594 197.738281 Z M 254.972656 161.171875 " fill-opacity="1" fill-rule="nonzero"/><path fill="#0a57a2" d="M 214.730469 188.535156 L 248.769531 124.582031 L 254.957031 136.210938 L 227.105469 188.53125 C 217.101562 207.332031 224.230469 230.683594 243.027344 240.6875 C 246.863281 242.726562 250.886719 244.042969 254.945312 244.707031 C 246.910156 246.015625 238.394531 244.808594 230.652344 240.6875 C 211.851562 230.683594 204.726562 207.332031 214.730469 188.535156 Z M 214.730469 188.535156 " fill-opacity="1" fill-rule="nonzero"/><path fill="#0a57a2" d="M 201.957031 188.597656 C 211.464844 188.597656 220.144531 183.386719 224.609375 175 C 228.589844 167.523438 228.59375 158.523438 224.621094 150.929688 L 205.117188 114.28125 C 204.5 113.121094 203.289062 112.394531 201.976562 112.394531 C 200.660156 112.394531 199.453125 113.121094 198.835938 114.28125 L 179.339844 150.90625 C 176.121094 156.949219 175.453125 163.886719 177.449219 170.4375 C 179.449219 176.988281 183.882812 182.367188 189.929688 185.585938 C 193.628906 187.554688 197.789062 188.597656 201.957031 188.597656 Z M 201.957031 188.597656 " fill-opacity="1" fill-rule="nonzero"/><g clip-path="url(#0577e78048)"><path fill="#0a57a2" d="M 201.976562 115.953125 L 182.480469 152.578125 C 176.75 163.34375 180.832031 176.714844 191.597656 182.445312 C 194.90625 184.207031 198.457031 185.039062 201.957031 185.039062 C 209.855469 185.039062 217.496094 180.789062 221.46875 173.328125 C 225.027344 166.636719 224.734375 158.820312 221.46875 152.578125 L 201.976562 115.953125 M 201.976562 108.835938 C 204.605469 108.835938 207.019531 110.289062 208.257812 112.609375 L 227.75 149.234375 C 227.757812 149.25 227.765625 149.261719 227.773438 149.277344 C 232.292969 157.914062 232.28125 168.15625 227.75 176.671875 C 222.667969 186.222656 212.78125 192.15625 201.957031 192.15625 C 197.207031 192.15625 192.46875 190.96875 188.253906 188.726562 C 181.371094 185.0625 176.324219 178.9375 174.046875 171.476562 C 171.769531 164.015625 172.535156 156.117188 176.199219 149.234375 L 195.695312 112.609375 C 196.929688 110.289062 199.34375 108.835938 201.976562 108.835938 Z M 201.976562 108.835938 " fill-opacity="1" fill-rule="nonzero"/></g><path fill="#0a57a2" d="M 205.527344 136.910156 L 194.382812 157.847656 C 191.105469 164.003906 193.441406 171.648438 199.597656 174.925781 C 205.75 178.203125 213.398438 175.867188 216.675781 169.714844 C 218.710938 165.890625 218.542969 161.417969 216.675781 157.847656 Z M 205.527344 136.910156 " fill-opacity="1" fill-rule="nonzero"/><path fill="#0a57a2" d="M 182.480469 152.578125 L 201.976562 115.953125 L 205.519531 122.613281 L 189.570312 152.578125 C 183.839844 163.34375 187.921875 176.714844 198.6875 182.445312 C 200.882812 183.613281 203.1875 184.367188 205.511719 184.746094 C 200.910156 185.496094 196.035156 184.804688 191.597656 182.445312 C 180.832031 176.714844 176.75 163.34375 182.480469 152.578125 Z M 182.480469 152.578125 " fill-opacity="1" fill-rule="nonzero"/><g clip-path="url(#dad3161443)"><g clip-path="url(#a490c411c0)"><path fill="#0a57a2" d="M 117.136719 79.203125 L 257.300781 79.203125 L 257.300781 237.195312 L 117.136719 237.195312 Z M 117.136719 79.203125 " fill-opacity="1" fill-rule="nonzero"/></g></g><path fill="#0a57a2" d="M 123.171875 240.804688 C 107.550781 240.804688 93.292969 232.246094 85.957031 218.46875 C 79.421875 206.1875 79.414062 191.398438 85.945312 178.914062 L 119.996094 114.941406 C 120.613281 113.78125 121.820312 113.054688 123.136719 113.054688 C 124.453125 113.054688 125.660156 113.78125 126.277344 114.941406 L 160.316406 178.890625 C 165.601562 188.824219 166.703125 200.21875 163.417969 210.976562 C 160.132812 221.738281 152.855469 230.574219 142.925781 235.859375 C 136.847656 239.09375 130.015625 240.804688 123.171875 240.804688 Z M 123.171875 240.804688 " fill-opacity="1" fill-rule="nonzero"/><g clip-path="url(#85e44b9bc2)"><path fill="#0a57a2" d="M 123.136719 116.613281 L 157.175781 180.5625 C 167.179688 199.363281 160.050781 222.710938 141.253906 232.71875 C 135.480469 235.789062 129.28125 237.246094 123.171875 237.246094 C 109.375 237.246094 96.035156 229.824219 89.097656 216.796875 C 82.882812 205.117188 83.398438 191.464844 89.097656 180.5625 L 123.136719 116.613281 M 123.136719 109.496094 C 120.507812 109.496094 118.089844 110.949219 116.855469 113.269531 L 82.816406 177.21875 C 82.808594 177.234375 82.800781 177.25 82.792969 177.265625 C 75.71875 190.792969 75.726562 206.820312 82.816406 220.140625 C 90.769531 235.082031 106.230469 244.363281 123.167969 244.363281 C 130.59375 244.363281 138.003906 242.507812 144.597656 239 C 155.367188 233.269531 163.261719 223.683594 166.824219 212.015625 C 170.382812 200.347656 169.1875 187.988281 163.457031 177.21875 L 129.417969 113.269531 C 128.183594 110.949219 125.765625 109.496094 123.136719 109.496094 Z M 123.136719 109.496094 " fill-opacity="1" fill-rule="nonzero"/></g><path fill="#0a57a2" d="M 116.933594 153.203125 L 136.394531 189.769531 C 142.113281 200.515625 138.039062 213.867188 127.289062 219.589844 C 116.542969 225.308594 103.191406 221.234375 97.46875 210.484375 C 93.914062 203.808594 94.210938 196.003906 97.46875 189.769531 Z M 116.933594 153.203125 " fill-opacity="1" fill-rule="nonzero"/><path fill="#0a57a2" d="M 157.175781 180.5625 L 123.136719 116.613281 L 116.949219 128.242188 L 144.796875 180.5625 C 154.804688 199.363281 147.675781 222.710938 128.878906 232.71875 C 125.042969 234.757812 121.019531 236.074219 116.960938 236.734375 C 124.996094 238.046875 133.511719 236.839844 141.253906 232.71875 C 160.054688 222.710938 167.179688 199.363281 157.175781 180.5625 Z M 157.175781 180.5625 " fill-opacity="1" fill-rule="nonzero"/><path fill="#0a57a2" d="M 169.949219 180.628906 C 160.441406 180.628906 151.761719 175.417969 147.296875 167.03125 C 143.316406 159.550781 143.3125 150.554688 147.285156 142.957031 L 166.789062 106.3125 C 167.40625 105.152344 168.613281 104.425781 169.929688 104.425781 C 171.246094 104.425781 172.453125 105.152344 173.070312 106.3125 L 192.566406 142.933594 C 195.78125 148.980469 196.453125 155.917969 194.453125 162.46875 C 192.453125 169.019531 188.023438 174.398438 181.976562 177.617188 C 178.277344 179.585938 174.117188 180.628906 169.949219 180.628906 Z M 169.949219 180.628906 " fill-opacity="1" fill-rule="nonzero"/><g clip-path="url(#4deca70daf)"><path fill="#0a57a2" d="M 169.929688 107.984375 L 189.425781 144.605469 C 195.152344 155.371094 191.070312 168.746094 180.304688 174.476562 C 177 176.234375 173.449219 177.070312 169.949219 177.070312 C 162.050781 177.070312 154.410156 172.820312 150.4375 165.359375 C 146.878906 158.667969 147.171875 150.851562 150.4375 144.605469 L 169.929688 107.984375 M 169.929688 100.867188 C 167.300781 100.867188 164.882812 102.316406 163.648438 104.640625 L 144.15625 141.261719 C 144.144531 141.277344 144.140625 141.292969 144.128906 141.308594 C 139.613281 149.945312 139.621094 160.183594 144.15625 168.703125 C 149.238281 178.253906 159.121094 184.1875 169.949219 184.1875 C 174.699219 184.1875 179.4375 183 183.648438 180.757812 C 190.535156 177.09375 195.582031 170.964844 197.855469 163.507812 C 200.132812 156.046875 199.371094 148.148438 195.707031 141.261719 L 176.210938 104.640625 C 174.976562 102.316406 172.5625 100.867188 169.929688 100.867188 Z M 169.929688 100.867188 " fill-opacity="1" fill-rule="nonzero"/></g><path fill="#0a57a2" d="M 166.375 128.9375 L 177.523438 149.878906 C 180.796875 156.035156 178.464844 163.679688 172.308594 166.957031 C 166.152344 170.234375 158.507812 167.898438 155.230469 161.742188 C 153.195312 157.917969 153.363281 153.449219 155.230469 149.878906 Z M 166.375 128.9375 " fill-opacity="1" fill-rule="nonzero"/><path fill="#0a57a2" d="M 189.425781 144.605469 L 169.929688 107.984375 L 166.386719 114.640625 L 182.335938 144.605469 C 188.066406 155.371094 183.984375 168.746094 173.21875 174.476562 C 171.023438 175.644531 168.71875 176.398438 166.390625 176.777344 C 170.996094 177.527344 175.871094 176.835938 180.304688 174.476562 C 191.070312 168.746094 195.152344 155.371094 189.425781 144.605469 Z M 189.425781 144.605469 " fill-opacity="1" fill-rule="nonzero"/><path fill="#7fd3ff" d="M 114.085938 226.917969 C 103.472656 226.917969 93.78125 221.101562 88.796875 211.738281 C 84.355469 203.390625 84.351562 193.339844 88.789062 184.855469 L 111.929688 141.378906 C 112.351562 140.589844 113.171875 140.097656 114.066406 140.097656 C 114.957031 140.097656 115.78125 140.589844 116.199219 141.378906 L 139.332031 184.839844 C 142.925781 191.589844 143.671875 199.332031 141.441406 206.644531 C 139.207031 213.957031 134.261719 219.964844 127.511719 223.554688 C 123.382812 225.753906 118.738281 226.917969 114.085938 226.917969 Z M 114.085938 226.917969 " fill-opacity="1" fill-rule="nonzero"/><g clip-path="url(#c88b9c361f)"><path fill="#0a57a2" d="M 114.066406 142.515625 L 137.195312 185.976562 C 143.996094 198.75 139.152344 214.621094 126.378906 221.421875 C 122.453125 223.507812 118.242188 224.5 114.085938 224.5 C 104.710938 224.5 95.644531 219.453125 90.933594 210.601562 C 86.707031 202.664062 87.058594 193.386719 90.933594 185.976562 L 114.066406 142.515625 M 114.066406 137.679688 C 112.277344 137.679688 110.636719 138.664062 109.796875 140.242188 L 86.664062 183.703125 C 86.65625 183.714844 86.652344 183.722656 86.648438 183.734375 C 81.839844 192.925781 81.84375 203.820312 86.664062 212.875 C 92.066406 223.027344 102.578125 229.335938 114.085938 229.335938 C 119.132812 229.335938 124.167969 228.074219 128.648438 225.691406 C 135.96875 221.792969 141.332031 215.28125 143.753906 207.351562 C 146.175781 199.421875 145.363281 191.023438 141.464844 183.703125 L 118.335938 140.242188 C 117.496094 138.664062 115.851562 137.679688 114.066406 137.679688 Z M 114.066406 137.679688 " fill-opacity="1" fill-rule="nonzero"/></g><path fill="#cfeeff" d="M 109.847656 167.382812 L 123.074219 192.230469 C 126.960938 199.535156 124.191406 208.609375 116.886719 212.5 C 109.582031 216.386719 100.507812 213.617188 96.621094 206.3125 C 94.207031 201.773438 94.40625 196.46875 96.621094 192.230469 Z M 109.847656 167.382812 " fill-opacity="1" fill-rule="nonzero"/><path fill="#1995ed" d="M 137.199219 185.976562 L 114.066406 142.515625 L 109.859375 150.417969 L 128.785156 185.976562 C 135.585938 198.75 130.742188 214.621094 117.964844 221.421875 C 115.359375 222.808594 112.625 223.703125 109.867188 224.152344 C 115.328125 225.042969 121.117188 224.222656 126.378906 221.421875 C 139.152344 214.621094 143.996094 198.75 137.199219 185.976562 Z M 137.199219 185.976562 " fill-opacity="1" fill-rule="nonzero"/><path fill="#7fd3ff" d="M 145.878906 186.019531 C 139.417969 186.019531 133.515625 182.480469 130.484375 176.777344 C 127.777344 171.695312 127.777344 165.582031 130.476562 160.417969 L 143.730469 135.515625 C 144.152344 134.726562 144.972656 134.234375 145.867188 134.234375 C 146.757812 134.234375 147.582031 134.726562 148 135.515625 L 161.25 160.402344 C 163.433594 164.511719 163.890625 169.226562 162.53125 173.679688 C 161.171875 178.128906 158.160156 181.785156 154.054688 183.972656 C 151.539062 185.3125 148.710938 186.019531 145.878906 186.019531 Z M 145.878906 186.019531 " fill-opacity="1" fill-rule="nonzero"/><g clip-path="url(#3ea1075566)"><path fill="#0a57a2" d="M 145.867188 136.652344 L 159.113281 161.539062 C 163.007812 168.855469 160.234375 177.945312 152.917969 181.839844 C 150.671875 183.035156 148.257812 183.601562 145.878906 183.601562 C 140.511719 183.601562 135.316406 180.714844 132.617188 175.644531 C 130.199219 171.097656 130.398438 165.785156 132.617188 161.539062 L 145.867188 136.652344 M 145.867188 131.816406 C 144.078125 131.816406 142.4375 132.800781 141.597656 134.378906 L 128.347656 159.269531 C 128.34375 159.277344 128.335938 159.289062 128.332031 159.296875 C 125.261719 165.167969 125.269531 172.128906 128.347656 177.914062 C 131.804688 184.40625 138.519531 188.4375 145.878906 188.4375 C 149.105469 188.4375 152.324219 187.632812 155.191406 186.109375 C 159.867188 183.617188 163.296875 179.453125 164.84375 174.382812 C 166.390625 169.316406 165.875 163.945312 163.382812 159.265625 L 150.132812 134.378906 C 149.296875 132.800781 147.652344 131.816406 145.867188 131.816406 Z M 145.867188 131.816406 " fill-opacity="1" fill-rule="nonzero"/></g><path fill="#cfeeff" d="M 143.449219 150.890625 L 151.023438 165.121094 C 153.253906 169.304688 151.664062 174.503906 147.484375 176.730469 C 143.300781 178.957031 138.101562 177.371094 135.875 173.1875 C 134.492188 170.585938 134.605469 167.550781 135.875 165.125 Z M 143.449219 150.890625 " fill-opacity="1" fill-rule="nonzero"/><path fill="#1995ed" d="M 159.113281 161.539062 L 145.867188 136.652344 L 143.457031 141.175781 L 154.296875 161.539062 C 158.191406 168.855469 155.417969 177.945312 148.101562 181.839844 C 146.609375 182.632812 145.042969 183.144531 143.460938 183.402344 C 146.589844 183.914062 149.902344 183.445312 152.917969 181.839844 C 160.234375 177.945312 163.007812 168.855469 159.113281 161.539062 Z M 159.113281 161.539062 " fill-opacity="1" fill-rule="nonzero"/><path fill="#7fd3ff" d="M 256.390625 234.738281 C 267.007812 234.738281 276.699219 228.921875 281.683594 219.558594 C 286.125 211.210938 286.128906 201.160156 281.691406 192.675781 L 258.550781 149.203125 C 258.128906 148.414062 257.308594 147.917969 256.414062 147.917969 C 255.519531 147.917969 254.699219 148.414062 254.28125 149.203125 L 231.148438 192.664062 C 227.554688 199.410156 226.808594 207.15625 229.039062 214.46875 C 231.273438 221.78125 236.21875 227.785156 242.96875 231.378906 C 247.097656 233.578125 251.742188 234.738281 256.390625 234.738281 Z M 256.390625 234.738281 " fill-opacity="1" fill-rule="nonzero"/><g clip-path="url(#11b4df5180)"><path fill="#0a57a2" d="M 256.414062 150.335938 L 233.28125 193.796875 C 226.484375 206.574219 231.328125 222.441406 244.101562 229.242188 C 248.023438 231.332031 252.238281 232.320312 256.390625 232.320312 C 265.769531 232.320312 274.835938 227.277344 279.546875 218.421875 C 283.773438 210.484375 283.421875 201.207031 279.546875 193.796875 L 256.414062 150.335938 M 256.414062 145.5 C 258.203125 145.5 259.84375 146.488281 260.683594 148.066406 L 283.816406 191.527344 C 283.824219 191.535156 283.828125 191.546875 283.832031 191.554688 C 288.640625 200.75 288.636719 211.640625 283.816406 220.695312 C 278.414062 230.847656 267.902344 237.15625 256.394531 237.15625 C 251.347656 237.15625 246.3125 235.898438 241.832031 233.511719 C 234.511719 229.617188 229.148438 223.105469 226.726562 215.171875 C 224.304688 207.242188 225.117188 198.84375 229.015625 191.527344 L 252.144531 148.066406 C 252.984375 146.488281 254.628906 145.5 256.414062 145.5 Z M 256.414062 145.5 " fill-opacity="1" fill-rule="nonzero"/></g><path fill="#cfeeff" d="M 260.632812 175.203125 L 247.40625 200.054688 C 243.519531 207.359375 246.289062 216.433594 253.59375 220.320312 C 260.898438 224.207031 269.96875 221.4375 273.859375 214.132812 C 276.273438 209.59375 276.074219 204.289062 273.859375 200.054688 Z M 260.632812 175.203125 " fill-opacity="1" fill-rule="nonzero"/><path fill="#1995ed" d="M 233.28125 193.796875 L 256.414062 150.335938 L 260.621094 158.238281 L 241.695312 193.796875 C 234.894531 206.574219 239.738281 222.441406 252.515625 229.242188 C 255.117188 230.628906 257.855469 231.523438 260.613281 231.972656 C 255.152344 232.863281 249.363281 232.042969 244.101562 229.242188 C 231.328125 222.441406 226.484375 206.574219 233.28125 193.796875 Z M 233.28125 193.796875 " fill-opacity="1" fill-rule="nonzero"/><path fill="#7fd3ff" d="M 224.601562 193.84375 C 231.0625 193.84375 236.964844 190.300781 239.996094 184.601562 C 242.703125 179.519531 242.703125 173.402344 240.003906 168.242188 L 226.75 143.335938 C 226.328125 142.546875 225.507812 142.054688 224.613281 142.054688 C 223.71875 142.054688 222.898438 142.546875 222.480469 143.335938 L 209.230469 168.226562 C 207.046875 172.335938 206.589844 177.050781 207.949219 181.5 C 209.308594 185.953125 212.316406 189.609375 216.425781 191.796875 C 218.941406 193.132812 221.769531 193.84375 224.601562 193.84375 Z M 224.601562 193.84375 " fill-opacity="1" fill-rule="nonzero"/><g clip-path="url(#365c4aad21)"><path fill="#0a57a2" d="M 224.613281 144.472656 L 211.367188 169.363281 C 207.472656 176.679688 210.246094 185.765625 217.5625 189.660156 C 219.808594 190.855469 222.222656 191.421875 224.601562 191.421875 C 229.96875 191.421875 235.164062 188.535156 237.863281 183.464844 C 240.28125 178.917969 240.082031 173.605469 237.863281 169.363281 L 224.613281 144.472656 M 224.613281 139.636719 C 226.402344 139.636719 228.042969 140.621094 228.882812 142.199219 L 242.132812 167.089844 C 242.136719 167.101562 242.140625 167.109375 242.148438 167.121094 C 245.21875 172.988281 245.210938 179.949219 242.132812 185.738281 C 238.675781 192.226562 231.960938 196.261719 224.601562 196.261719 C 221.375 196.261719 218.152344 195.453125 215.289062 193.929688 C 210.613281 191.4375 207.183594 187.277344 205.636719 182.207031 C 204.085938 177.136719 204.605469 171.769531 207.097656 167.089844 L 220.34375 142.199219 C 221.183594 140.621094 222.828125 139.636719 224.613281 139.636719 Z M 224.613281 139.636719 " fill-opacity="1" fill-rule="nonzero"/></g><path fill="#cfeeff" d="M 227.03125 158.714844 L 219.453125 172.945312 C 217.226562 177.128906 218.8125 182.324219 222.996094 184.550781 C 227.179688 186.777344 232.378906 185.191406 234.605469 181.007812 C 235.988281 178.410156 235.871094 175.371094 234.605469 172.945312 Z M 227.03125 158.714844 " fill-opacity="1" fill-rule="nonzero"/><path fill="#1995ed" d="M 211.367188 169.363281 L 224.613281 144.472656 L 227.023438 148.996094 L 216.183594 169.363281 C 212.289062 176.679688 215.0625 185.765625 222.378906 189.660156 C 223.871094 190.457031 225.4375 190.96875 227.019531 191.226562 C 223.890625 191.734375 220.578125 191.265625 217.5625 189.660156 C 210.246094 185.765625 207.472656 176.679688 211.367188 169.363281 Z M 211.367188 169.363281 " fill-opacity="1" fill-rule="nonzero"/><path fill="#1995ed" d="M 123.507812 121.824219 L 249.863281 121.824219 L 249.863281 227.105469 L 123.507812 227.105469 Z M 123.507812 121.824219 " fill-opacity="1" fill-rule="evenodd"/><path fill="#7fd3ff" d="M 151.644531 173.460938 C 151.644531 173.460938 153.203125 200.976562 174.722656 207.96875 C 196.242188 214.964844 210.902344 203.183594 213.925781 200.089844 C 216.949219 196.996094 223.132812 181.460938 223.132812 181.460938 L 214.035156 179.617188 C 214.035156 179.617188 207.734375 174.09375 205.375 173.0625 C 203.015625 172.035156 199.699219 176.378906 196.75 176.378906 C 193.800781 176.378906 190.429688 171.554688 186.949219 173.285156 C 183.464844 175.015625 181.277344 178.070312 177.074219 176.527344 C 172.875 174.980469 170.371094 171.222656 167.125 173.582031 C 163.882812 175.9375 163.960938 179.398438 160.9375 177.1875 C 157.921875 174.980469 156.742188 171.597656 151.644531 173.460938 Z M 151.644531 173.460938 " fill-opacity="1" fill-rule="evenodd"/><path fill="#ffffff" d="M 193.570312 176.8125 C 192.882812 176.039062 192.097656 175.300781 191.144531 174.714844 C 190.0625 174.042969 188.832031 173.613281 187.425781 173.613281 C 186.023438 173.613281 184.824219 174.011719 183.742188 174.667969 C 182.800781 175.242188 182.011719 175.984375 181.277344 176.808594 C 180.875 177.257812 180.453125 177.667969 180.042969 177.921875 C 179.761719 178.09375 179.457031 178.207031 179.117188 178.207031 C 178.777344 178.207031 178.480469 178.105469 178.214844 177.945312 C 177.792969 177.6875 177.375 177.285156 176.960938 176.808594 C 176.277344 176.035156 175.488281 175.296875 174.539062 174.707031 C 173.453125 174.039062 172.226562 173.609375 170.816406 173.609375 C 169.414062 173.609375 168.214844 174.007812 167.132812 174.664062 C 166.191406 175.238281 165.402344 175.980469 164.667969 176.804688 C 164.269531 177.253906 163.847656 177.660156 163.433594 177.917969 C 163.152344 178.089844 162.847656 178.203125 162.507812 178.203125 C 162.167969 178.203125 161.875 178.101562 161.605469 177.941406 C 161.183594 177.683594 160.765625 177.28125 160.355469 176.804688 C 159.667969 176.03125 158.878906 175.292969 157.929688 174.703125 C 157 174.132812 155.96875 173.738281 154.808594 173.632812 C 154.613281 173.617188 154.414062 173.605469 154.207031 173.605469 C 152.730469 173.605469 151.535156 174.800781 151.535156 176.277344 C 151.535156 176.535156 151.570312 176.78125 151.636719 177.015625 C 151.960938 178.128906 152.988281 178.949219 154.207031 178.949219 C 154.289062 178.949219 154.367188 178.957031 154.445312 178.96875 C 154.6875 179.007812 154.917969 179.101562 155.132812 179.234375 C 155.542969 179.488281 155.964844 179.898438 156.378906 180.347656 C 157.121094 181.179688 157.910156 181.921875 158.832031 182.488281 C 159.914062 183.144531 161.113281 183.542969 162.515625 183.542969 C 163.921875 183.542969 165.148438 183.113281 166.234375 182.441406 C 167.191406 181.851562 167.976562 181.113281 168.660156 180.34375 C 169.089844 179.863281 169.511719 179.453125 169.914062 179.207031 C 170.179688 179.042969 170.476562 178.945312 170.816406 178.945312 C 171.148438 178.945312 171.457031 179.058594 171.738281 179.230469 C 172.152344 179.484375 172.574219 179.894531 172.988281 180.34375 C 173.730469 181.175781 174.515625 181.917969 175.441406 182.484375 C 176.519531 183.140625 177.722656 183.539062 179.121094 183.539062 C 180.53125 183.539062 181.753906 183.109375 182.84375 182.4375 C 183.800781 181.847656 184.582031 181.109375 185.269531 180.339844 C 185.699219 179.859375 186.121094 179.449219 186.519531 179.203125 C 186.789062 179.039062 187.082031 178.941406 187.425781 178.941406 C 187.757812 178.941406 188.066406 179.054688 188.347656 179.226562 C 188.761719 179.480469 189.183594 179.890625 189.597656 180.339844 C 190.339844 181.171875 191.125 181.917969 192.050781 182.480469 C 193.128906 183.136719 194.328125 183.535156 195.730469 183.535156 C 197.140625 183.535156 198.363281 183.105469 199.453125 182.433594 C 200.402344 181.84375 201.191406 181.105469 201.875 180.335938 C 202.304688 179.855469 202.726562 179.445312 203.128906 179.199219 C 203.398438 179.035156 203.691406 178.9375 204.03125 178.9375 C 204.367188 178.9375 204.675781 179.050781 204.957031 179.222656 C 205.371094 179.472656 205.785156 179.886719 206.199219 180.335938 C 206.941406 181.167969 207.730469 181.914062 208.652344 182.476562 C 210.234375 183.4375 211.847656 183.386719 213.589844 182.824219 C 212.707031 178.933594 212.265625 176.992188 212.265625 176.992188 C 211.117188 175.703125 210.335938 175.539062 209.917969 176.507812 C 209.296875 175.839844 208.589844 175.207031 207.753906 174.691406 C 206.671875 174.023438 205.441406 173.59375 204.03125 173.59375 C 202.632812 173.59375 201.429688 173.992188 200.351562 174.648438 C 199.40625 175.222656 198.621094 175.964844 197.886719 176.785156 C 197.484375 177.234375 197.0625 177.648438 196.648438 177.902344 C 196.367188 178.074219 196.0625 178.1875 195.726562 178.1875 C 195.386719 178.1875 195.09375 178.085938 194.824219 177.925781 C 194.40625 177.6875 193.988281 177.285156 193.570312 176.8125 Z M 193.570312 176.8125 " fill-opacity="1" fill-rule="evenodd"/><path fill="#7fd3ff" d="M 249.652344 122.476562 L 126.003906 122.476562 L 126.003906 87.871094 L 249.652344 87.871094 Z M 124.601562 227.105469 L 124.601562 241.09375 L 249.867188 241.09375 L 249.867188 227.105469 Z M 124.601562 227.105469 " fill-opacity="1" fill-rule="evenodd"/><path fill="#ffffff" d="M 249.867188 232.851562 L 129.761719 232.851562 L 129.761719 242.058594 L 123.511719 242.058594 L 123.511719 228.289062 L 124.601562 228.289062 L 124.601562 227.105469 L 249.867188 227.105469 Z M 129.761719 92.191406 L 176.488281 92.191406 L 176.488281 121.324219 L 182.742188 121.324219 L 182.742188 92.191406 L 249.328125 92.191406 L 249.328125 86.445312 L 124.0625 86.445312 L 124.0625 89.167969 L 123.511719 89.167969 L 123.511719 121.816406 L 129.765625 121.816406 L 129.765625 92.191406 Z M 129.761719 92.191406 " fill-opacity="1" fill-rule="evenodd"/><path fill="#7fd3ff" d="M 123.511719 125.558594 L 129.765625 125.558594 L 129.765625 227.105469 L 123.511719 227.105469 Z M 212.894531 169.535156 L 212.894531 179.621094 L 233.082031 179.621094 L 233.082031 169.535156 Z M 212.894531 169.535156 " fill-opacity="1" fill-rule="evenodd"/><path fill="#ffffff" d="M 204.8125 147.011719 L 182.828125 207.652344 C 178.039062 206.984375 173.578125 205.289062 169.679688 202.792969 L 191.601562 142.328125 C 196.40625 142.933594 200.886719 144.570312 204.8125 147.011719 Z M 188.6875 142.097656 C 188.269531 142.078125 187.851562 142.070312 187.425781 142.070312 C 186.191406 142.070312 184.972656 142.140625 183.769531 142.273438 L 163.628906 197.832031 L 164.109375 198.320312 C 165.105469 199.320312 166.167969 200.253906 167.285156 201.117188 Z M 209.816406 150.824219 L 189.113281 207.925781 C 190.847656 207.839844 192.550781 207.617188 194.199219 207.273438 L 213.300781 154.585938 C 212.242188 153.242188 211.074219 151.984375 209.816406 150.824219 Z M 209.816406 150.824219 " fill-opacity="0.349" fill-rule="evenodd"/><g clip-path="url(#5d1907d0ef)"><path fill="#0a57a2" d="M 166.320312 98.460938 C 166.320312 99.9375 165.125 101.132812 163.644531 101.132812 L 137.195312 101.132812 C 135.714844 101.132812 134.519531 99.9375 134.519531 98.460938 C 134.519531 96.984375 135.714844 95.789062 137.195312 95.789062 L 163.640625 95.789062 C 165.125 95.789062 166.320312 96.984375 166.320312 98.460938 Z M 163.644531 106.472656 L 137.195312 106.472656 C 135.714844 106.472656 134.519531 107.671875 134.519531 109.144531 C 134.519531 110.621094 135.714844 111.816406 137.195312 111.816406 L 163.640625 111.816406 C 165.121094 111.816406 166.316406 110.621094 166.316406 109.144531 C 166.320312 107.671875 165.125 106.472656 163.644531 106.472656 Z M 160.328125 202.09375 C 153.398438 195.167969 149.105469 185.59375 149.105469 175.023438 C 149.105469 164.449219 153.398438 154.875 160.328125 147.949219 C 167.261719 141.019531 176.847656 136.734375 187.425781 136.734375 C 196.988281 136.734375 205.742188 140.246094 212.464844 146.050781 C 218.707031 151.441406 223.183594 158.820312 224.925781 167.199219 L 233.414062 167.199219 C 234.894531 167.199219 236.089844 168.394531 236.089844 169.871094 L 236.089844 180.179688 C 236.089844 181.65625 234.894531 182.851562 233.414062 182.851562 L 224.925781 182.851562 C 223.183594 191.230469 218.703125 198.609375 212.460938 204 C 205.738281 209.804688 196.984375 213.320312 187.421875 213.320312 C 176.847656 213.3125 167.261719 209.023438 160.328125 202.09375 Z M 215.402344 172.535156 L 215.402344 177.5 L 222.699219 177.5 C 222.699219 177.5 222.703125 177.5 222.703125 177.5 L 230.746094 177.5 L 230.746094 172.535156 Z M 154.820312 170.078125 C 155.980469 170.183594 157.007812 170.578125 157.9375 171.148438 C 158.886719 171.734375 159.675781 172.472656 160.363281 173.246094 C 160.78125 173.722656 161.195312 174.128906 161.613281 174.382812 C 161.882812 174.546875 162.175781 174.644531 162.519531 174.644531 C 162.851562 174.644531 163.160156 174.53125 163.441406 174.359375 C 163.855469 174.101562 164.277344 173.695312 164.675781 173.246094 C 165.414062 172.421875 166.199219 171.679688 167.140625 171.105469 C 168.222656 170.449219 169.421875 170.050781 170.824219 170.050781 C 172.234375 170.050781 173.457031 170.480469 174.546875 171.152344 C 175.5 171.738281 176.285156 172.480469 176.96875 173.25 C 177.386719 173.726562 177.804688 174.132812 178.222656 174.386719 C 178.492188 174.550781 178.785156 174.648438 179.125 174.648438 C 179.460938 174.648438 179.769531 174.535156 180.050781 174.363281 C 180.464844 174.109375 180.882812 173.699219 181.285156 173.25 C 182.019531 172.425781 182.808594 171.683594 183.75 171.109375 C 184.832031 170.453125 186.03125 170.054688 187.433594 170.054688 C 188.839844 170.054688 190.066406 170.484375 191.152344 171.15625 C 192.105469 171.742188 192.890625 172.484375 193.578125 173.253906 C 193.996094 173.730469 194.414062 174.136719 194.835938 174.390625 C 195.105469 174.554688 195.398438 174.652344 195.738281 174.652344 C 196.070312 174.652344 196.382812 174.539062 196.660156 174.367188 C 197.074219 174.113281 197.496094 173.703125 197.898438 173.253906 C 198.632812 172.429688 199.421875 171.6875 200.363281 171.113281 C 201.441406 170.457031 202.644531 170.058594 204.042969 170.058594 C 205.453125 170.058594 206.679688 170.488281 207.765625 171.160156 C 208.664062 171.710938 209.414062 172.40625 210.070312 173.128906 L 210.070312 169.875 C 210.070312 168.398438 211.265625 167.203125 212.746094 167.203125 L 219.484375 167.203125 C 217.839844 160.441406 214.101562 154.492188 208.996094 150.082031 C 203.222656 145.097656 195.6875 142.078125 187.441406 142.078125 C 178.335938 142.078125 170.089844 145.765625 164.125 151.730469 C 159.242188 156.582031 155.894531 162.960938 154.820312 170.078125 Z M 154.460938 175.414062 C 154.566406 184.355469 158.230469 192.445312 164.109375 198.320312 C 170.074219 204.28125 178.320312 207.972656 187.425781 207.972656 C 195.671875 207.972656 203.207031 204.957031 208.980469 199.96875 C 214.085938 195.558594 217.824219 189.613281 219.46875 182.847656 L 212.726562 182.847656 C 211.25 182.847656 210.054688 181.652344 210.054688 180.175781 L 210.054688 179.601562 C 209.5625 179.429688 209.09375 179.207031 208.648438 178.933594 C 207.726562 178.367188 206.9375 177.625 206.195312 176.792969 L 206.183594 176.792969 C 205.78125 176.339844 205.363281 175.933594 204.949219 175.679688 C 204.667969 175.507812 204.363281 175.394531 204.023438 175.394531 C 203.683594 175.394531 203.386719 175.496094 203.121094 175.65625 C 202.714844 175.898438 202.296875 176.308594 201.867188 176.792969 C 201.183594 177.5625 200.394531 178.304688 199.445312 178.894531 C 198.359375 179.5625 197.132812 179.992188 195.722656 179.992188 C 194.320312 179.992188 193.121094 179.59375 192.042969 178.9375 C 191.117188 178.371094 190.332031 177.628906 189.589844 176.800781 L 189.574219 176.800781 C 189.175781 176.34375 188.753906 175.9375 188.339844 175.683594 C 188.058594 175.511719 187.753906 175.398438 187.417969 175.398438 C 187.074219 175.398438 186.777344 175.5 186.511719 175.660156 C 186.109375 175.90625 185.691406 176.3125 185.261719 176.800781 C 184.574219 177.566406 183.792969 178.308594 182.835938 178.898438 C 181.75 179.566406 180.523438 179.996094 179.113281 179.996094 C 177.714844 179.996094 176.511719 179.597656 175.433594 178.941406 C 174.507812 178.375 173.722656 177.632812 172.980469 176.804688 L 172.96875 176.804688 C 172.566406 176.347656 172.144531 175.941406 171.730469 175.6875 C 171.449219 175.515625 171.144531 175.402344 170.808594 175.402344 C 170.464844 175.402344 170.171875 175.503906 169.90625 175.664062 C 169.5 175.910156 169.082031 176.316406 168.652344 176.804688 C 167.964844 177.570312 167.179688 178.3125 166.226562 178.902344 C 165.144531 179.570312 163.914062 180 162.503906 180 C 161.105469 180 159.902344 179.601562 158.824219 178.945312 C 157.902344 178.378906 157.113281 177.636719 156.371094 176.808594 L 156.359375 176.808594 C 155.957031 176.355469 155.535156 175.945312 155.121094 175.691406 C 154.929688 175.546875 154.703125 175.449219 154.460938 175.414062 Z M 201.707031 106.574219 C 200.230469 106.574219 199.035156 107.769531 199.035156 109.246094 L 199.035156 109.476562 C 199.035156 110.953125 200.230469 112.148438 201.707031 112.148438 C 203.1875 112.148438 204.382812 110.953125 204.382812 109.476562 L 204.382812 109.246094 C 204.378906 107.769531 203.179688 106.574219 201.707031 106.574219 Z M 237.941406 98.105469 C 239.359375 99.609375 240.230469 101.636719 240.230469 103.855469 C 240.230469 106.167969 239.292969 108.269531 237.777344 109.785156 C 236.257812 111.300781 234.160156 112.238281 231.84375 112.238281 C 229.535156 112.238281 227.4375 111.296875 225.917969 109.777344 C 224.394531 108.261719 223.453125 106.167969 223.453125 103.855469 C 223.453125 101.539062 224.390625 99.441406 225.910156 97.925781 L 226.085938 97.761719 C 227.589844 96.339844 229.617188 95.46875 231.835938 95.46875 C 234.152344 95.46875 236.253906 96.40625 237.769531 97.921875 Z M 234.890625 103.851562 C 234.890625 103.058594 234.59375 102.335938 234.105469 101.800781 L 233.996094 101.695312 C 233.449219 101.148438 232.683594 100.804688 231.84375 100.804688 C 231.046875 100.804688 230.324219 101.101562 229.785156 101.59375 L 229.691406 101.695312 C 229.140625 102.246094 228.796875 103.007812 228.796875 103.851562 C 228.796875 104.691406 229.140625 105.457031 229.691406 106.003906 L 229.691406 106.015625 C 230.230469 106.5625 230.996094 106.898438 231.847656 106.898438 C 232.683594 106.898438 233.453125 106.558594 234 106.007812 C 234.546875 105.457031 234.890625 104.691406 234.890625 103.851562 Z M 253.417969 92.03125 L 253.417969 241.453125 C 253.417969 242.929688 252.21875 244.125 250.742188 244.125 L 124.109375 244.125 C 122.632812 244.121094 121.4375 242.925781 121.4375 241.449219 L 121.4375 92.03125 C 121.4375 89.734375 122.378906 87.644531 123.894531 86.132812 L 123.90625 86.121094 C 125.417969 84.609375 127.511719 83.664062 129.808594 83.664062 L 245.046875 83.664062 C 247.34375 83.664062 249.433594 84.609375 250.949219 86.121094 L 250.960938 86.132812 C 252.472656 87.644531 253.417969 89.734375 253.417969 92.03125 Z M 126.785156 120.21875 L 174.058594 120.21875 L 174.058594 89.007812 L 129.808594 89.007812 C 128.972656 89.007812 128.21875 89.351562 127.667969 89.890625 C 127.121094 90.441406 126.785156 91.195312 126.785156 92.03125 Z M 248.074219 229.375 L 126.785156 229.375 L 126.785156 238.78125 L 248.074219 238.78125 Z M 248.074219 125.558594 L 126.785156 125.558594 L 126.785156 224.039062 L 248.074219 224.039062 Z M 248.074219 92.03125 C 248.074219 91.195312 247.730469 90.441406 247.191406 89.890625 C 246.640625 89.347656 245.886719 89.007812 245.050781 89.007812 L 179.402344 89.007812 L 179.402344 120.21875 L 248.070312 120.21875 L 248.070312 92.03125 Z M 190.246094 106.574219 C 188.769531 106.574219 187.574219 107.769531 187.574219 109.246094 L 187.574219 109.476562 C 187.574219 110.953125 188.769531 112.148438 190.246094 112.148438 C 191.722656 112.148438 192.921875 110.953125 192.921875 109.476562 L 192.921875 109.246094 C 192.921875 107.769531 191.71875 106.574219 190.246094 106.574219 Z M 213.164062 95.367188 C 211.6875 95.367188 210.492188 96.5625 210.492188 98.039062 L 210.492188 98.265625 C 210.492188 99.742188 211.6875 100.9375 213.164062 100.9375 C 214.644531 100.9375 215.839844 99.742188 215.839844 98.265625 L 215.839844 98.039062 C 215.839844 96.566406 214.644531 95.367188 213.164062 95.367188 Z M 190.246094 95.367188 C 188.769531 95.367188 187.574219 96.5625 187.574219 98.039062 L 187.574219 98.265625 C 187.574219 99.742188 188.769531 100.9375 190.246094 100.9375 C 191.722656 100.9375 192.921875 99.742188 192.921875 98.265625 L 192.921875 98.039062 C 192.921875 96.566406 191.71875 95.367188 190.246094 95.367188 Z M 201.707031 95.367188 C 200.230469 95.367188 199.035156 96.5625 199.035156 98.039062 L 199.035156 98.265625 C 199.035156 99.742188 200.230469 100.9375 201.707031 100.9375 C 203.1875 100.9375 204.382812 99.742188 204.382812 98.265625 L 204.382812 98.039062 C 204.378906 96.566406 203.179688 95.367188 201.707031 95.367188 Z M 213.164062 106.574219 C 211.6875 106.574219 210.492188 107.769531 210.492188 109.246094 L 210.492188 109.476562 C 210.492188 110.953125 211.6875 112.148438 213.164062 112.148438 C 214.644531 112.148438 215.839844 110.953125 215.839844 109.476562 L 215.839844 109.246094 C 215.839844 107.769531 214.644531 106.574219 213.164062 106.574219 Z M 213.164062 106.574219 " fill-opacity="1" fill-rule="nonzero"/></g><g clip-path="url(#5f320ff24b)"><g clip-path="url(#9efce97443)"><path fill="#0a57a2" d="M 86.597656 246.730469 L 283.652344 246.730469 L 283.652344 299.238281 L 86.597656 299.238281 Z M 86.597656 246.730469 " fill-opacity="1" fill-rule="nonzero"/></g></g><path stroke-linecap="butt" transform="matrix(0.997327, 0, 0, 0.997327, 19.798262, 193.663199)" fill="none" stroke-linejoin="miter" d="M 38.601813 53.624694 L 24.830621 53.624694 L 23.816191 56.816822 C 23.126848 58.959269 22.147667 60.631709 20.870816 61.841975 C 19.609632 63.036575 17.79619 63.635834 15.434407 63.635834 C 13.526964 63.635834 12.187446 63.181494 11.408018 62.272815 C 10.644258 61.364135 10.260419 60.322288 10.260419 59.147271 C 10.260419 57.87042 10.577673 56.644486 11.208265 55.46947 L 12.641785 55.46947 C 13.683633 55.46947 14.45131 55.2423 14.952651 54.787961 C 15.450074 54.333621 15.88483 53.515026 16.249085 52.32826 L 20.537895 39.720334 C 21.184154 37.769807 22.002749 36.391122 23.001513 35.58036 C 24.000277 34.757849 25.269294 34.35051 26.808566 34.35051 C 27.995332 34.35051 29.358351 34.644264 30.901539 35.231772 L 27.074903 46.805683 L 36.337948 46.805683 L 30.419782 28.561596 C 29.875358 26.963574 29.291767 25.827725 28.672925 25.154049 C 28.061916 24.464706 27.32949 24.120034 26.475644 24.120034 C 25.700134 24.120034 25.061708 24.261036 24.564284 24.535207 C 24.066861 24.813294 23.589021 25.201049 23.134681 25.70239 C 21.947915 25.146215 21.10582 24.499956 20.604479 23.755779 C 20.107056 22.999852 19.856386 22.102923 19.856386 21.061075 C 19.856386 19.564888 20.43606 18.338954 21.587576 17.387191 C 22.750843 16.431511 24.380199 15.953671 26.475644 15.953671 C 29.836191 15.953671 32.468228 16.991602 34.375671 19.067464 C 36.283114 21.127659 37.896803 24.174868 39.216738 28.213008 L 49.693967 60.095118 C 50.602646 62.91124 51.499576 64.885268 52.388671 66.013283 C 53.27385 67.156966 54.378366 67.728807 55.698301 67.728807 C 56.418977 67.728807 57.08482 67.587805 57.691912 67.313635 C 58.31467 67.047298 58.874761 66.663459 59.372185 66.166035 C 60.280864 66.428456 60.95454 66.933713 61.38538 67.67789 C 61.816219 68.4299 62.035555 69.240662 62.035555 70.106257 C 62.035555 72.056784 61.361879 73.509888 60.022361 74.461651 C 58.678925 75.417331 56.967318 75.891254 54.883623 75.891254 C 53.195516 75.891254 51.707162 75.63275 50.410727 75.111827 C 49.122126 74.590903 47.962776 73.819309 46.932679 72.800961 C 45.914331 71.778697 44.993902 70.494012 44.17139 68.942991 C 43.364546 67.399803 42.592952 65.633361 41.860525 63.635834 Z M 68.897651 65.680362 C 67.268295 65.680362 65.678106 65.28869 64.123168 64.501429 C 62.583896 63.702418 61.220877 62.543068 60.034111 61.023381 C 58.859095 59.495859 57.915165 57.6315 57.206238 55.438136 C 56.509062 53.229106 56.156557 50.741988 56.156557 47.968949 C 56.156557 45.199827 56.473811 42.72446 57.104404 40.550679 C 57.750663 38.369066 58.647592 36.516457 59.799108 34.996769 C 60.966291 33.469248 62.348893 32.298148 63.958665 31.487387 C 65.576271 30.668792 67.385796 30.257536 69.379408 30.257536 C 70.96568 30.257536 72.595036 30.590458 74.267475 31.2563 C 75.955582 31.910393 77.369519 33.073659 78.509284 34.750015 C 78.552368 33.296912 79.018458 32.18848 79.907554 31.420802 C 80.792733 30.645292 81.920749 30.257536 83.283768 30.257536 C 84.635036 30.257536 85.994139 30.668792 87.357157 31.487387 L 87.357157 69.557916 C 87.357157 70.611514 87.552994 71.363524 87.940749 71.817864 C 88.328504 72.272204 88.837678 72.499374 89.46827 72.499374 C 90.42395 72.499374 91.148544 71.994117 91.649884 70.987519 C 92.703482 71.441859 93.498576 72.080284 94.043 72.898879 C 94.587425 73.721391 94.857678 74.60657 94.857678 75.562249 C 94.857678 77.289523 94.164419 78.570291 92.7779 79.400636 C 91.39138 80.246648 89.812942 80.665737 88.038667 80.665737 C 85.003208 80.665737 82.649259 79.733557 80.988569 77.873115 C 79.335713 76.008756 78.509284 73.310135 78.509284 69.773336 L 78.509284 45.442664 C 78.509284 43.98956 78.270364 42.798877 77.796441 41.866698 C 77.318601 40.934518 76.73501 40.221675 76.049584 39.720334 C 75.371991 39.222911 74.666981 38.882156 73.934554 38.705904 C 73.213878 38.529651 72.583285 38.439567 72.038861 38.439567 C 69.900331 38.439567 68.192641 39.242494 66.919707 40.852267 C 65.654606 42.458123 65.024014 44.831656 65.024014 47.968949 C 65.024014 50.965241 65.599772 53.303523 66.751288 54.987713 C 67.914554 56.66407 69.355907 57.498332 71.075348 57.498332 C 72.352199 57.498332 73.554632 57.000908 74.686565 56.002144 C 75.140904 56.503484 75.51691 57.094909 75.81458 57.780336 C 76.116168 58.457928 76.265003 59.186438 76.265003 59.961949 C 76.265003 61.415053 75.638328 62.731071 74.384977 63.917838 C 73.131626 65.092854 71.302518 65.680362 68.897651 65.680362 Z M 124.679593 59.347024 C 124.679593 60.388872 124.871512 61.136966 125.259268 61.591305 C 125.65094 62.045645 126.160114 62.272815 126.790706 62.272815 C 127.746386 62.272815 128.470979 61.775391 128.968403 60.776627 C 130.022001 61.230967 130.821012 61.869392 131.365436 62.687987 C 131.90986 63.498748 132.180114 64.380011 132.180114 65.331774 C 132.180114 67.062965 131.486854 68.347649 130.100335 69.189744 C 128.713816 70.031839 127.135377 70.454845 125.361103 70.454845 C 122.501896 70.454845 120.265448 69.63625 118.659593 67.995144 C 117.04982 66.361872 116.129391 64.023589 115.898304 60.97638 C 114.766372 62.570485 113.391603 63.757252 111.773997 64.532763 C 110.164225 65.30044 108.386033 65.680362 106.435506 65.680362 C 104.206892 65.680362 102.342533 65.343524 100.846345 64.665931 C 99.350158 63.980505 98.147724 63.083576 97.239045 61.971227 C 96.330366 60.854962 95.68019 59.56636 95.292434 58.113257 C 94.904679 56.66407 94.708843 55.187466 94.708843 53.691279 C 94.708843 51.505748 94.936013 49.429886 95.390353 47.455859 C 95.848609 45.481831 96.075779 43.586138 96.075779 41.764863 C 96.075779 40.723015 95.801608 39.908337 95.257184 39.320829 C 94.716676 38.733321 93.807997 38.439567 92.531146 38.439567 C 91.712551 37.076548 91.301296 35.737029 91.301296 34.417094 C 91.301296 33.230328 91.755635 32.243314 92.664315 31.456053 C 93.572994 30.657042 94.959513 30.257536 96.823872 30.257536 C 98.32006 30.257536 99.577327 30.496456 100.595675 30.974296 C 101.629689 31.448219 102.471784 32.110145 103.125877 32.95224 C 103.779969 33.794335 104.246059 34.781349 104.524146 35.913282 C 104.798317 37.045214 104.939319 38.247647 104.939319 39.520582 C 104.939319 40.253009 104.888401 40.997186 104.790483 41.749196 C 104.700399 42.493373 104.610314 43.272801 104.524146 44.095312 L 103.971889 47.28744 C 103.885721 48.06295 103.795636 48.838461 103.709468 49.617889 C 103.619384 50.381649 103.5763 51.125826 103.5763 51.846503 C 103.5763 53.440609 103.956222 54.784044 104.723899 55.868976 C 105.49941 56.957824 106.795844 57.498332 108.613203 57.498332 C 109.611967 57.498332 110.544147 57.290745 111.405825 56.86774 C 112.271421 56.4369 113.031264 55.829808 113.685357 55.054298 C 114.339449 54.278787 114.860373 53.370108 115.248129 52.32826 C 115.635884 51.286412 115.83172 50.150563 115.83172 48.916796 L 115.83172 37.076548 C 115.83172 35.478525 116.27431 34.287842 117.163405 33.500581 C 118.048584 32.70157 119.196184 32.302065 120.606203 32.302065 C 121.969222 32.302065 123.328324 32.71332 124.679593 33.535832 Z M 145.520466 38.439567 C 144.114363 38.439567 142.986348 38.721571 142.144253 39.289495 C 141.313908 39.853503 140.898735 40.703431 140.898735 41.831447 C 140.397395 42.289704 139.762886 42.642208 138.983459 42.896795 C 138.207948 43.139632 137.440271 43.264967 136.672593 43.264967 C 135.485827 43.264967 134.416562 42.924212 133.464799 42.250536 C 132.509119 41.561193 132.035195 40.38226 132.035195 38.705904 C 132.035195 37.2528 132.395534 36.007283 133.11621 34.965435 C 133.844721 33.911837 134.839568 33.034491 136.092918 32.337315 C 137.342352 31.628389 138.783706 31.107465 140.416979 30.774543 C 142.046335 30.429872 143.769692 30.257536 145.58705 30.257536 C 147.592412 30.257536 149.492021 30.53954 151.27413 31.107465 C 153.071905 31.671473 154.673843 32.537068 156.079946 33.700334 C 157.489966 34.85185 158.602315 36.340204 159.424826 38.157563 C 160.243421 39.974921 160.654677 42.109534 160.654677 44.561402 C 160.654677 45.701168 160.584176 46.942768 160.439257 48.286204 C 160.306088 49.617889 160.145503 50.92999 159.9575 52.226425 C 159.777331 53.52286 159.624579 54.744877 159.49141 55.884643 C 159.358242 57.016575 159.291658 57.944838 159.291658 58.665515 C 159.291658 61.070381 160.082835 62.272815 161.669107 62.272815 C 162.667871 62.272815 163.509966 61.775391 164.199309 60.776627 C 166.369173 61.595222 167.458021 62.958241 167.458021 64.865684 C 167.458021 66.686959 166.807846 68.069562 165.511411 69.025242 C 164.226726 69.977005 162.628704 70.454845 160.721261 70.454845 C 158.903902 70.454845 157.345047 70.157174 156.048613 69.557916 C 154.752178 68.970408 153.682913 68.187064 152.836901 67.2118 C 152.006556 66.236536 151.395548 65.128104 151.007792 63.886504 C 150.620037 62.633153 150.428118 61.368052 150.428118 60.095118 C 150.428118 58.775183 150.494702 57.400414 150.627871 55.97081 C 150.768872 54.53729 150.933375 53.142938 151.109627 51.779919 C 150.244032 51.59975 149.358853 51.458748 148.446257 51.345163 C 147.537578 51.235495 146.656315 51.18066 145.80247 51.18066 C 144.075196 51.18066 142.594676 51.427414 141.364825 51.928754 C 140.142808 52.426178 139.535716 53.287856 139.535716 54.505957 C 139.535716 55.504721 139.884304 56.252814 140.581481 56.750238 C 141.290407 57.251578 142.124669 57.498332 143.076432 57.498332 C 143.754025 57.498332 144.427701 57.376913 145.105294 57.134077 C 145.79072 56.87949 146.386062 56.503484 146.883485 56.002144 C 147.337825 56.503484 147.709913 57.094909 147.999751 57.780336 C 148.297421 58.457928 148.446257 59.186438 148.446257 59.961949 C 148.446257 60.682626 148.277838 61.383719 147.933166 62.073062 C 147.600245 62.750655 147.102822 63.36558 146.436979 63.917838 C 145.782887 64.462262 144.976042 64.889184 144.024279 65.198605 C 143.072515 65.519777 141.983667 65.680362 140.765567 65.680362 C 139.535716 65.680362 138.313699 65.476693 137.107349 65.065437 C 135.908833 64.658098 134.831734 64.047089 133.879971 63.236328 C 132.924291 62.417733 132.14878 61.395469 131.549522 60.177369 C 130.962014 58.947518 130.66826 57.510082 130.66826 55.868976 C 130.66826 54.008533 131.079515 52.394844 131.902027 51.031825 C 132.720622 49.664889 133.813387 48.544707 135.176406 47.671278 C 136.539425 46.782183 138.102196 46.124173 139.864721 45.693334 C 141.638996 45.258578 143.460271 45.043158 145.320713 45.043158 C 147.549328 45.043158 149.707441 45.313412 151.791137 45.857836 L 151.791137 45.309496 C 151.791137 42.947713 151.207545 41.212605 150.044279 40.104173 C 148.892763 38.995741 147.384825 38.439567 145.520466 38.439567 Z M 183.328575 57.498332 C 184.781679 57.498332 186.050696 57.083159 187.139545 56.252814 C 188.224477 55.410719 189.117489 54.25137 189.814665 52.774766 C 190.527509 51.302079 191.052349 49.555221 191.397021 47.53811 C 191.741692 45.509248 191.910111 43.311968 191.910111 40.950185 C 191.910111 36.551707 191.522356 32.748571 190.746845 29.544693 C 189.983084 26.336898 188.780651 23.82628 187.139545 22.008922 C 187.680052 21.378329 188.365479 20.896573 189.184073 20.563651 C 190.006585 20.21898 190.84868 20.046644 191.710358 20.046644 C 193.163462 20.046644 194.389396 20.422649 195.38816 21.178577 C 196.386923 21.918837 197.213352 22.905851 197.867444 24.139618 C 198.52937 25.357718 199.050294 26.744237 199.430216 28.295259 C 199.817971 29.838447 200.111725 31.377718 200.311478 32.920907 C 200.519064 34.460178 200.648316 35.932865 200.6914 37.342885 C 200.738401 38.752904 200.757984 39.955338 200.757984 40.950185 C 200.757984 45.000075 200.284061 48.791461 199.328381 52.32826 C 200.017724 53.236939 200.848069 53.98895 201.823332 54.588208 C 202.798596 55.175716 203.926612 55.46947 205.199546 55.46947 C 206.742734 55.46947 208.043086 55.038631 209.108434 54.173035 C 210.173782 53.30744 211.043294 52.140257 211.720887 50.663653 C 212.406313 49.190966 212.895903 47.475442 213.181824 45.524915 C 213.483411 43.562638 213.632247 41.471109 213.632247 39.254245 C 213.632247 34.844017 213.189657 30.954713 212.300561 27.598083 C 211.427133 24.237536 210.28345 21.699501 208.87343 19.98006 C 209.417855 19.337718 210.095447 18.848128 210.902292 18.515206 C 211.724803 18.174452 212.566898 18.002116 213.432494 18.002116 C 214.752429 18.002116 215.900028 18.315454 216.875292 18.949962 C 217.850555 19.580554 218.653483 20.44615 219.287992 21.542832 C 219.973418 22.717848 220.521759 24.092617 220.933015 25.667139 C 221.34427 27.229911 221.657608 28.812266 221.880861 30.406372 C 222.111948 31.992644 222.272533 33.543665 222.362618 35.063353 C 222.452703 36.583041 222.495786 37.887309 222.495786 38.972241 C 222.495786 42.156535 222.237283 45.227244 221.712442 48.184369 C 221.191518 51.13366 220.294589 53.757863 219.021655 56.053062 C 217.744804 58.33651 216.076281 60.173452 214.016085 61.556055 C 211.951973 62.942574 209.35127 63.635834 206.213977 63.635834 C 203.985362 63.635834 202.062252 63.169744 200.444647 62.237564 C 198.834874 61.309301 197.511022 60.138202 196.469175 58.732099 C 195.059155 60.870629 193.253547 62.566569 191.048433 63.81992 C 188.851152 65.06152 186.117281 65.680362 182.846819 65.680362 C 179.709525 65.680362 177.144073 65.116354 175.146545 63.984422 C 173.152934 62.844656 171.570578 61.379802 170.407312 59.593777 C 169.255796 57.799919 168.452868 55.810225 167.998529 53.624694 C 167.540272 51.439164 167.313103 49.328051 167.313103 47.28744 C 167.313103 45.336913 167.458021 43.264967 167.747859 41.067687 C 168.045529 38.862573 168.366701 36.692709 168.711372 34.565929 C 169.056043 32.4274 169.361548 30.414205 169.627885 28.530262 C 169.902055 26.642403 170.043057 25.02088 170.043057 23.653944 C 170.043057 22.337926 169.686636 21.405746 168.977709 20.861322 C 168.280533 20.316898 167.203434 20.046644 165.750331 20.046644 C 164.97482 18.640541 164.587065 17.320606 164.587065 16.086839 C 164.587065 14.911823 165.017904 13.916976 165.883499 13.094464 C 166.749095 12.27587 168.178698 11.864614 170.176226 11.864614 C 172.945348 11.864614 175.091711 12.828127 176.611398 14.759071 C 178.142836 16.686098 178.906597 19.580554 178.906597 23.438525 C 178.906597 24.993463 178.769512 26.775571 178.491425 28.792683 C 178.213337 30.813711 177.903916 32.889573 177.559245 35.032019 C 177.226324 37.158799 176.909069 39.273828 176.611398 41.369274 C 176.321561 43.45297 176.180559 45.336913 176.180559 47.021103 C 176.180559 48.51729 176.301978 49.903809 176.544814 51.18066 C 176.799401 52.441845 177.210657 53.542443 177.774665 54.470706 C 178.342589 55.402886 179.078933 56.143146 179.987612 56.683654 C 180.896291 57.228078 182.012557 57.498332 183.328575 57.498332 Z M 241.96189 38.439567 C 240.555788 38.439567 239.431689 38.721571 238.589594 39.289495 C 237.755332 39.853503 237.34016 40.703431 237.34016 41.831447 C 236.842736 42.289704 236.20431 42.642208 235.4288 42.896795 C 234.653289 43.139632 233.881695 43.264967 233.117934 43.264967 C 231.931168 43.264967 230.857986 42.924212 229.906223 42.250536 C 228.95446 41.561193 228.47662 40.38226 228.47662 38.705904 C 228.47662 37.2528 228.836958 36.007283 229.557635 34.965435 C 230.290061 33.911837 231.280992 33.034491 232.534343 32.337315 C 233.787693 31.628389 235.229047 31.107465 236.858403 30.774543 C 238.487759 30.429872 240.211116 30.257536 242.028475 30.257536 C 244.037753 30.257536 245.933446 30.53954 247.719471 31.107465 C 249.513329 31.671473 251.115268 32.537068 252.525287 33.700334 C 253.93139 34.85185 255.047656 36.340204 255.86625 38.157563 C 256.688762 39.974921 257.096101 42.109534 257.096101 44.561402 C 257.096101 45.701168 257.0256 46.942768 256.880681 48.286204 C 256.747513 49.617889 256.586927 50.92999 256.398925 52.226425 C 256.222672 53.52286 256.066003 54.744877 255.932835 55.884643 C 255.799666 57.016575 255.733082 57.944838 255.733082 58.665515 C 255.733082 61.070381 256.528176 62.272815 258.110532 62.272815 C 259.109296 62.272815 259.951391 61.775391 260.640733 60.776627 C 262.814514 61.595222 263.899445 62.958241 263.899445 64.865684 C 263.899445 66.686959 263.24927 68.069562 261.952835 69.025242 C 260.668151 69.977005 259.070128 70.454845 257.162685 70.454845 C 255.345327 70.454845 253.786472 70.157174 252.490037 69.557916 C 251.193602 68.970408 250.124337 68.187064 249.282242 67.2118 C 248.447981 66.236536 247.840889 65.128104 247.453133 63.886504 C 247.065378 62.633153 246.869542 61.368052 246.869542 60.095118 C 246.869542 58.775183 246.936126 57.400414 247.069295 55.97081 C 247.214213 54.53729 247.374799 53.142938 247.551051 51.779919 C 246.685456 51.59975 245.800277 51.458748 244.891598 51.345163 C 243.982919 51.235495 243.101656 51.18066 242.247811 51.18066 C 240.51662 51.18066 239.0361 51.427414 237.806249 51.928754 C 236.588149 52.426178 235.977141 53.287856 235.977141 54.505957 C 235.977141 55.504721 236.325729 56.252814 237.022905 56.750238 C 237.735748 57.251578 238.566093 57.498332 239.517856 57.498332 C 240.195449 57.498332 240.873042 57.376913 241.546718 57.134077 C 242.236061 56.87949 242.827486 56.503484 243.328826 56.002144 C 243.783166 56.503484 244.155254 57.094909 244.441175 57.780336 C 244.742762 58.457928 244.891598 59.186438 244.891598 59.961949 C 244.891598 60.682626 244.719262 61.383719 244.374591 62.073062 C 244.041669 62.750655 243.544246 63.36558 242.878403 63.917838 C 242.224311 64.462262 241.421383 64.889184 240.465703 65.198605 C 239.51394 65.519777 238.425091 65.680362 237.206991 65.680362 C 235.977141 65.680362 234.755124 65.476693 233.548773 65.065437 C 232.350257 64.658098 231.277075 64.047089 230.321395 63.236328 C 229.369632 62.417733 228.594121 61.395469 227.994863 60.177369 C 227.407355 58.947518 227.113601 57.510082 227.113601 55.868976 C 227.113601 54.008533 227.52094 52.394844 228.343451 51.031825 C 229.162046 49.664889 230.254811 48.544707 231.61783 47.671278 C 232.984766 46.782183 234.547537 46.124173 236.310062 45.693334 C 238.084337 45.258578 239.901695 45.043158 241.766054 45.043158 C 243.990752 45.043158 246.148865 45.313412 248.232561 45.857836 L 248.232561 45.309496 C 248.232561 42.947713 247.652886 41.212605 246.485703 40.104173 C 245.334187 38.995741 243.82625 38.439567 241.96189 38.439567 Z M 261.028489 57.032242 C 261.028489 55.257967 261.482829 53.581611 262.395425 51.995338 C 263.304104 50.397316 264.710207 49.057798 266.61765 47.968949 C 265.39955 46.884017 264.389036 45.681584 263.590024 44.361649 C 262.791013 43.041714 262.395425 41.545527 262.395425 39.86917 C 262.395425 38.141896 262.720512 36.677042 263.374605 35.478525 C 264.040447 34.272175 264.937377 33.285162 266.069309 32.521401 C 267.212992 31.741974 268.54076 31.174049 270.060448 30.805877 C 271.580136 30.441622 273.182075 30.257536 274.866265 30.257536 C 276.542621 30.257536 278.148477 30.429872 279.691665 30.774543 C 281.242687 31.107465 282.593955 31.604888 283.749388 32.270731 C 284.912654 32.924823 285.844834 33.739501 286.54201 34.714765 C 287.250937 35.690028 287.607358 36.818044 287.607358 38.090978 C 287.607358 39.634167 287.141269 40.746515 286.209089 41.435858 C 285.276909 42.109534 284.195894 42.450289 282.966044 42.450289 C 281.603025 42.450289 280.193005 42.109534 278.739902 41.435858 C 278.739902 40.390094 278.352146 39.634167 277.576636 39.156327 C 276.812875 38.678487 275.814111 38.439567 274.584261 38.439567 C 273.585497 38.439567 272.782569 38.635403 272.17156 39.023158 C 271.564469 39.399163 271.258964 39.861336 271.258964 40.401844 C 271.258964 41.177355 271.662387 41.909782 272.473148 42.599124 C 273.291743 43.272801 274.302257 43.97781 275.500773 44.710237 C 276.707124 45.430914 278.027059 46.202508 279.456662 47.021103 C 280.886265 47.831864 282.202283 48.728793 283.396883 49.715807 C 284.60715 50.69107 285.621581 51.795586 286.440176 53.025436 C 287.262687 54.243536 287.673943 55.626139 287.673943 57.16541 C 287.673943 58.939685 287.329271 60.48679 286.639928 61.806725 C 285.966252 63.11491 285.022322 64.211592 283.815972 65.100687 C 282.617456 65.985866 281.219186 66.647792 279.625081 67.078632 C 278.038809 67.509471 276.335035 67.728807 274.517676 67.728807 C 272.712068 67.728807 270.984794 67.489887 269.343688 67.012047 C 267.714332 66.534207 266.284729 65.833114 265.054878 64.900935 C 263.825028 63.968755 262.841931 62.844656 262.109504 61.524721 C 261.388827 60.204786 261.028489 58.708598 261.028489 57.032242 Z M 278.806486 57.365163 C 278.806486 56.503484 278.136727 55.641806 276.797208 54.787961 C 275.465523 53.922365 273.914501 52.943185 272.140227 51.846503 C 271.364716 52.488845 270.792875 53.162521 270.424703 53.875365 C 270.072198 54.572541 269.895946 55.238384 269.895946 55.868976 C 269.895946 56.910823 270.322868 57.788169 271.176713 58.497096 C 272.038392 59.194272 273.338743 59.546777 275.066017 59.546777 C 275.974697 59.546777 276.824625 59.378358 277.611886 59.045436 C 278.410897 58.700765 278.806486 58.140674 278.806486 57.365163 Z M 302.451731 35.032019 C 303.630665 33.578916 304.98585 32.419566 306.529038 31.553971 C 308.08006 30.692292 309.830834 30.257536 311.785278 30.257536 C 313.191381 30.257536 314.6014 30.484706 316.007503 30.939046 C 317.417523 31.393385 318.67479 32.141479 319.783222 33.183327 C 320.891655 34.229091 321.796417 35.58036 322.493593 37.244967 C 323.20252 38.893906 323.558942 40.950185 323.558942 43.413802 C 323.558942 44.819905 323.492357 46.261259 323.359189 47.737863 C 323.22602 49.21055 323.065435 50.651903 322.877432 52.061923 C 322.697263 53.468026 322.544511 54.77621 322.411342 55.986477 C 322.278174 57.184994 322.21159 58.215092 322.21159 59.080687 C 322.21159 60.075534 322.46226 60.858878 322.959683 61.422886 C 323.457107 61.990811 324.044615 62.272815 324.722208 62.272815 C 325.673971 62.272815 326.469065 61.775391 327.099658 60.776627 C 328.196339 61.187883 329.018851 61.767558 329.563275 62.523485 C 330.103783 63.263745 330.377953 64.047089 330.377953 64.865684 C 330.377953 66.686959 329.684693 68.069562 328.298174 69.025242 C 326.911655 69.977005 325.200048 70.454845 323.159436 70.454845 C 321.749416 70.454845 320.452982 70.239425 319.266215 69.804669 C 318.091199 69.37383 317.061101 68.715821 316.175922 67.826725 C 315.286827 66.941546 314.593567 65.825281 314.096143 64.485762 C 313.594803 63.142327 313.34805 61.591305 313.34805 59.828781 C 313.34805 58.775183 313.414634 57.5845 313.547802 56.252814 C 313.688804 54.909379 313.84939 53.503276 314.029559 52.026672 C 314.205812 50.553985 314.36248 49.077381 314.495649 47.604694 C 314.636651 46.120257 314.711069 44.69457 314.711069 43.331551 C 314.711069 41.612111 314.276313 40.37051 313.414634 39.602833 C 312.549039 38.827322 311.526774 38.439567 310.351758 38.439567 C 308.667568 38.439567 307.120463 39.156327 305.71436 40.58593 C 304.304341 42.015533 303.219409 43.817225 302.451731 45.991005 L 302.451731 58.861351 C 302.451731 60.459373 302.009142 61.657889 301.123963 62.456901 C 300.234867 63.244162 299.087268 63.635834 297.681165 63.635834 C 296.318146 63.635834 294.951211 63.224578 293.588192 62.405983 L 293.588192 25.902142 C 293.588192 24.449039 292.797014 23.720529 291.210742 23.720529 L 290.529232 23.720529 C 289.89864 22.580763 289.581386 21.421413 289.581386 20.246397 C 289.581386 18.926462 290.070976 17.884614 291.04624 17.120854 C 292.021503 16.345343 293.321855 15.953671 294.951211 15.953671 C 296.36123 15.953671 297.540163 16.173007 298.495843 16.603846 C 299.447606 17.034686 300.2192 17.653528 300.806709 18.448622 C 301.405967 19.235883 301.828973 20.191563 302.07181 21.311745 C 302.326396 22.420177 302.451731 23.653944 302.451731 25.02088 Z M 302.451731 35.032019 " stroke="#0a57a2" stroke-width="17.881683" stroke-opacity="1" stroke-miterlimit="4"/><g fill="#ffffff" fill-opacity="1"><g transform="translate(28.805367, 258.489426)"><g><path d="M 29.484375 -11.34375 L 15.765625 -11.34375 L 14.75 -8.15625 C 14.0625 -6.019531 13.082031 -4.351562 11.8125 -3.15625 C 10.550781 -1.957031 8.742188 -1.359375 6.390625 -1.359375 C 4.484375 -1.359375 3.144531 -1.8125 2.375 -2.71875 C 1.601562 -3.625 1.21875 -4.664062 1.21875 -5.84375 C 1.21875 -7.113281 1.535156 -8.335938 2.171875 -9.515625 L 3.59375 -9.515625 C 4.632812 -9.515625 5.40625 -9.738281 5.90625 -10.1875 C 6.40625 -10.644531 6.835938 -11.460938 7.203125 -12.640625 L 11.484375 -25.203125 C 12.117188 -27.148438 12.929688 -28.53125 13.921875 -29.34375 C 14.921875 -30.164062 16.191406 -30.578125 17.734375 -30.578125 C 18.910156 -30.578125 20.269531 -30.28125 21.8125 -29.6875 L 18 -18.140625 L 27.25 -18.140625 L 21.328125 -36.34375 C 20.785156 -37.925781 20.207031 -39.054688 19.59375 -39.734375 C 18.988281 -40.421875 18.253906 -40.765625 17.390625 -40.765625 C 16.617188 -40.765625 15.984375 -40.628906 15.484375 -40.359375 C 14.992188 -40.085938 14.519531 -39.703125 14.0625 -39.203125 C 12.882812 -39.742188 12.046875 -40.382812 11.546875 -41.125 C 11.046875 -41.875 10.796875 -42.769531 10.796875 -43.8125 C 10.796875 -45.3125 11.375 -46.535156 12.53125 -47.484375 C 13.6875 -48.441406 15.304688 -48.921875 17.390625 -48.921875 C 20.742188 -48.921875 23.367188 -47.890625 25.265625 -45.828125 C 27.171875 -43.765625 28.78125 -40.71875 30.09375 -36.6875 L 40.5625 -4.890625 C 41.46875 -2.078125 42.359375 -0.109375 43.234375 1.015625 C 44.117188 2.148438 45.21875 2.71875 46.53125 2.71875 C 47.257812 2.71875 47.925781 2.582031 48.53125 2.3125 C 49.144531 2.039062 49.703125 1.65625 50.203125 1.15625 C 51.109375 1.425781 51.773438 1.929688 52.203125 2.671875 C 52.640625 3.421875 52.859375 4.226562 52.859375 5.09375 C 52.859375 7.039062 52.1875 8.488281 50.84375 9.4375 C 49.507812 10.394531 47.800781 10.875 45.71875 10.875 C 44.039062 10.875 42.554688 10.613281 41.265625 10.09375 C 39.972656 9.570312 38.816406 8.800781 37.796875 7.78125 C 36.785156 6.757812 35.867188 5.476562 35.046875 3.9375 C 34.234375 2.394531 33.46875 0.628906 32.75 -1.359375 Z M 29.484375 -11.34375 "/></g></g></g><g fill="#ffffff" fill-opacity="1"><g transform="translate(74.180728, 258.489426)"><g><path d="M 14.328125 0.671875 C 12.703125 0.671875 11.117188 0.273438 9.578125 -0.515625 C 8.035156 -1.304688 6.675781 -2.457031 5.5 -3.96875 C 4.320312 -5.488281 3.378906 -7.347656 2.671875 -9.546875 C 1.972656 -11.742188 1.625 -14.222656 1.625 -16.984375 C 1.625 -19.742188 1.941406 -22.210938 2.578125 -24.390625 C 3.210938 -26.566406 4.109375 -28.410156 5.265625 -29.921875 C 6.421875 -31.441406 7.800781 -32.609375 9.40625 -33.421875 C 11.019531 -34.234375 12.820312 -34.640625 14.8125 -34.640625 C 16.394531 -34.640625 18.023438 -34.3125 19.703125 -33.65625 C 21.378906 -33 22.78125 -31.835938 23.90625 -30.171875 C 23.957031 -31.617188 24.421875 -32.722656 25.296875 -33.484375 C 26.179688 -34.253906 27.304688 -34.640625 28.671875 -34.640625 C 30.023438 -34.640625 31.382812 -34.234375 32.75 -33.421875 L 32.75 4.546875 C 32.75 5.585938 32.941406 6.332031 33.328125 6.78125 C 33.710938 7.238281 34.222656 7.46875 34.859375 7.46875 C 35.804688 7.46875 36.53125 6.972656 37.03125 5.984375 C 38.070312 6.429688 38.863281 7.0625 39.40625 7.875 C 39.945312 8.695312 40.21875 9.582031 40.21875 10.53125 C 40.21875 12.25 39.523438 13.523438 38.140625 14.359375 C 36.765625 15.203125 35.191406 15.625 33.421875 15.625 C 30.390625 15.625 28.046875 14.695312 26.390625 12.84375 C 24.734375 10.988281 23.90625 8.289062 23.90625 4.75 L 23.90625 -19.5 C 23.90625 -20.945312 23.664062 -22.132812 23.1875 -23.0625 C 22.71875 -23.988281 22.144531 -24.703125 21.46875 -25.203125 C 20.789062 -25.703125 20.085938 -26.039062 19.359375 -26.21875 C 18.640625 -26.40625 18.003906 -26.5 17.453125 -26.5 C 15.328125 -26.5 13.628906 -25.691406 12.359375 -24.078125 C 11.097656 -22.472656 10.46875 -20.109375 10.46875 -16.984375 C 10.46875 -13.992188 11.039062 -11.660156 12.1875 -9.984375 C 13.34375 -8.304688 14.785156 -7.46875 16.515625 -7.46875 C 17.773438 -7.46875 18.972656 -7.96875 20.109375 -8.96875 C 20.554688 -8.46875 20.925781 -7.878906 21.21875 -7.203125 C 21.519531 -6.523438 21.671875 -5.800781 21.671875 -5.03125 C 21.671875 -3.582031 21.046875 -2.269531 19.796875 -1.09375 C 18.554688 0.0820312 16.734375 0.671875 14.328125 0.671875 Z M 14.328125 0.671875 "/></g></g></g><g fill="#ffffff" fill-opacity="1"><g transform="translate(110.589706, 258.489426)"><g><path d="M 33.5625 -5.640625 C 33.5625 -4.597656 33.753906 -3.847656 34.140625 -3.390625 C 34.523438 -2.941406 35.035156 -2.71875 35.671875 -2.71875 C 36.617188 -2.71875 37.34375 -3.21875 37.84375 -4.21875 C 38.882812 -3.757812 39.675781 -3.125 40.21875 -2.3125 C 40.757812 -1.5 41.03125 -0.613281 41.03125 0.34375 C 41.03125 2.0625 40.335938 3.335938 38.953125 4.171875 C 37.578125 5.015625 36.003906 5.4375 34.234375 5.4375 C 31.378906 5.4375 29.148438 4.617188 27.546875 2.984375 C 25.941406 1.359375 25.023438 -0.972656 24.796875 -4.015625 C 23.660156 -2.421875 22.289062 -1.238281 20.6875 -0.46875 C 19.082031 0.289062 17.304688 0.671875 15.359375 0.671875 C 13.140625 0.671875 11.28125 0.332031 9.78125 -0.34375 C 8.289062 -1.019531 7.09375 -1.910156 6.1875 -3.015625 C 5.28125 -4.128906 4.632812 -5.410156 4.25 -6.859375 C 3.863281 -8.304688 3.671875 -9.78125 3.671875 -11.28125 C 3.671875 -13.445312 3.894531 -15.515625 4.34375 -17.484375 C 4.800781 -19.460938 5.03125 -21.359375 5.03125 -23.171875 C 5.03125 -24.210938 4.753906 -25.023438 4.203125 -25.609375 C 3.660156 -26.203125 2.757812 -26.5 1.5 -26.5 C 0.675781 -27.851562 0.265625 -29.1875 0.265625 -30.5 C 0.265625 -31.675781 0.71875 -32.660156 1.625 -33.453125 C 2.53125 -34.242188 3.914062 -34.640625 5.78125 -34.640625 C 7.269531 -34.640625 8.523438 -34.398438 9.546875 -33.921875 C 10.566406 -33.453125 11.40625 -32.796875 12.0625 -31.953125 C 12.71875 -31.117188 13.179688 -30.132812 13.453125 -29 C 13.722656 -27.875 13.859375 -26.675781 13.859375 -25.40625 C 13.859375 -24.6875 13.8125 -23.953125 13.71875 -23.203125 C 13.632812 -22.453125 13.546875 -21.671875 13.453125 -20.859375 L 12.90625 -17.65625 C 12.8125 -16.894531 12.71875 -16.128906 12.625 -15.359375 C 12.539062 -14.585938 12.5 -13.835938 12.5 -13.109375 C 12.5 -11.523438 12.882812 -10.1875 13.65625 -9.09375 C 14.425781 -8.007812 15.71875 -7.46875 17.53125 -7.46875 C 18.519531 -7.46875 19.445312 -7.679688 20.3125 -8.109375 C 21.175781 -8.546875 21.9375 -9.148438 22.59375 -9.921875 C 23.25 -10.691406 23.769531 -11.597656 24.15625 -12.640625 C 24.539062 -13.679688 24.734375 -14.8125 24.734375 -16.03125 L 24.734375 -27.859375 C 24.734375 -29.441406 25.171875 -30.628906 26.046875 -31.421875 C 26.929688 -32.210938 28.078125 -32.609375 29.484375 -32.609375 C 30.835938 -32.609375 32.195312 -32.203125 33.5625 -31.390625 Z M 33.5625 -5.640625 "/></g></g></g><g fill="#ffffff" fill-opacity="1"><g transform="translate(148.493076, 258.489426)"><g><path d="M 16.4375 -26.5 C 15.03125 -26.5 13.910156 -26.210938 13.078125 -25.640625 C 12.242188 -25.078125 11.828125 -24.226562 11.828125 -23.09375 C 11.328125 -22.644531 10.691406 -22.296875 9.921875 -22.046875 C 9.148438 -21.796875 8.378906 -21.671875 7.609375 -21.671875 C 6.429688 -21.671875 5.363281 -22.007812 4.40625 -22.6875 C 3.457031 -23.363281 2.984375 -24.539062 2.984375 -26.21875 C 2.984375 -27.664062 3.34375 -28.910156 4.0625 -29.953125 C 4.789062 -30.992188 5.78125 -31.863281 7.03125 -32.5625 C 8.28125 -33.269531 9.71875 -33.789062 11.34375 -34.125 C 12.976562 -34.46875 14.703125 -34.640625 16.515625 -34.640625 C 18.503906 -34.640625 20.390625 -34.359375 22.171875 -33.796875 C 23.960938 -33.234375 25.5625 -32.375 26.96875 -31.21875 C 28.375 -30.0625 29.484375 -28.578125 30.296875 -26.765625 C 31.109375 -24.953125 31.515625 -22.820312 31.515625 -20.375 C 31.515625 -19.25 31.445312 -18.015625 31.3125 -16.671875 C 31.175781 -15.335938 31.019531 -14.023438 30.84375 -12.734375 C 30.664062 -11.441406 30.507812 -10.226562 30.375 -9.09375 C 30.238281 -7.96875 30.171875 -7.039062 30.171875 -6.3125 C 30.171875 -3.914062 30.960938 -2.71875 32.546875 -2.71875 C 33.535156 -2.71875 34.375 -3.21875 35.0625 -4.21875 C 37.226562 -3.394531 38.3125 -2.035156 38.3125 -0.140625 C 38.3125 1.671875 37.664062 3.050781 36.375 4 C 35.082031 4.957031 33.488281 5.4375 31.59375 5.4375 C 29.78125 5.4375 28.226562 5.140625 26.9375 4.546875 C 25.644531 3.960938 24.578125 3.179688 23.734375 2.203125 C 22.898438 1.234375 22.289062 0.128906 21.90625 -1.109375 C 21.519531 -2.359375 21.328125 -3.617188 21.328125 -4.890625 C 21.328125 -6.203125 21.394531 -7.570312 21.53125 -9 C 21.664062 -10.425781 21.828125 -11.820312 22.015625 -13.1875 C 21.148438 -13.363281 20.265625 -13.507812 19.359375 -13.625 C 18.453125 -13.738281 17.570312 -13.796875 16.71875 -13.796875 C 14.988281 -13.796875 13.515625 -13.546875 12.296875 -13.046875 C 11.078125 -12.546875 10.46875 -11.6875 10.46875 -10.46875 C 10.46875 -9.46875 10.816406 -8.71875 11.515625 -8.21875 C 12.210938 -7.71875 13.039062 -7.46875 14 -7.46875 C 14.675781 -7.46875 15.351562 -7.59375 16.03125 -7.84375 C 16.707031 -8.09375 17.296875 -8.46875 17.796875 -8.96875 C 18.253906 -8.46875 18.628906 -7.878906 18.921875 -7.203125 C 19.210938 -6.523438 19.359375 -5.800781 19.359375 -5.03125 C 19.359375 -4.300781 19.1875 -3.597656 18.84375 -2.921875 C 18.507812 -2.242188 18.015625 -1.628906 17.359375 -1.078125 C 16.703125 -0.535156 15.894531 -0.109375 14.9375 0.203125 C 13.988281 0.515625 12.90625 0.671875 11.6875 0.671875 C 10.457031 0.671875 9.242188 0.46875 8.046875 0.0625 C 6.847656 -0.34375 5.769531 -0.953125 4.8125 -1.765625 C 3.863281 -2.578125 3.09375 -3.59375 2.5 -4.8125 C 1.914062 -6.039062 1.625 -7.472656 1.625 -9.109375 C 1.625 -10.960938 2.03125 -12.566406 2.84375 -13.921875 C 3.664062 -15.285156 4.753906 -16.40625 6.109375 -17.28125 C 7.472656 -18.164062 9.035156 -18.820312 10.796875 -19.25 C 12.566406 -19.6875 14.378906 -19.90625 16.234375 -19.90625 C 18.453125 -19.90625 20.601562 -19.632812 22.6875 -19.09375 L 22.6875 -19.640625 C 22.6875 -21.992188 22.109375 -23.722656 20.953125 -24.828125 C 19.796875 -25.941406 18.289062 -26.5 16.4375 -26.5 Z M 16.4375 -26.5 "/></g></g></g><g fill="#ffffff" fill-opacity="1"><g transform="translate(183.000095, 258.489426)"><g><path d="M 19.640625 -7.46875 C 21.085938 -7.46875 22.351562 -7.882812 23.4375 -8.71875 C 24.519531 -9.5625 25.410156 -10.71875 26.109375 -12.1875 C 26.816406 -13.664062 27.335938 -15.410156 27.671875 -17.421875 C 28.015625 -19.441406 28.1875 -21.628906 28.1875 -23.984375 C 28.1875 -28.378906 27.800781 -32.171875 27.03125 -35.359375 C 26.269531 -38.554688 25.070312 -41.0625 23.4375 -42.875 C 23.976562 -43.5 24.65625 -43.984375 25.46875 -44.328125 C 26.289062 -44.671875 27.128906 -44.84375 27.984375 -44.84375 C 29.441406 -44.84375 30.664062 -44.46875 31.65625 -43.71875 C 32.65625 -42.96875 33.484375 -41.976562 34.140625 -40.75 C 34.796875 -39.53125 35.316406 -38.148438 35.703125 -36.609375 C 36.085938 -35.078125 36.378906 -33.539062 36.578125 -32 C 36.785156 -30.457031 36.910156 -28.984375 36.953125 -27.578125 C 37.003906 -26.179688 37.03125 -24.984375 37.03125 -23.984375 C 37.03125 -19.953125 36.550781 -16.171875 35.59375 -12.640625 C 36.28125 -11.734375 37.109375 -10.984375 38.078125 -10.390625 C 39.054688 -9.804688 40.175781 -9.515625 41.4375 -9.515625 C 42.976562 -9.515625 44.28125 -9.941406 45.34375 -10.796875 C 46.40625 -11.660156 47.273438 -12.828125 47.953125 -14.296875 C 48.640625 -15.773438 49.128906 -17.484375 49.421875 -19.421875 C 49.710938 -21.367188 49.859375 -23.457031 49.859375 -25.6875 C 49.859375 -30.070312 49.414062 -33.941406 48.53125 -37.296875 C 47.65625 -40.648438 46.515625 -43.1875 45.109375 -44.90625 C 45.648438 -45.539062 46.328125 -46.023438 47.140625 -46.359375 C 47.960938 -46.703125 48.800781 -46.875 49.65625 -46.875 C 50.96875 -46.875 52.109375 -46.554688 53.078125 -45.921875 C 54.054688 -45.285156 54.863281 -44.425781 55.5 -43.34375 C 56.1875 -42.164062 56.734375 -40.796875 57.140625 -39.234375 C 57.546875 -37.671875 57.859375 -36.097656 58.078125 -34.515625 C 58.304688 -32.929688 58.46875 -31.378906 58.5625 -29.859375 C 58.65625 -28.335938 58.703125 -27.035156 58.703125 -25.953125 C 58.703125 -22.785156 58.441406 -19.726562 57.921875 -16.78125 C 57.398438 -13.832031 56.503906 -11.210938 55.234375 -8.921875 C 53.960938 -6.640625 52.296875 -4.804688 50.234375 -3.421875 C 48.179688 -2.046875 45.59375 -1.359375 42.46875 -1.359375 C 40.238281 -1.359375 38.320312 -1.820312 36.71875 -2.75 C 35.113281 -3.675781 33.789062 -4.84375 32.75 -6.25 C 31.34375 -4.125 29.539062 -2.4375 27.34375 -1.1875 C 25.144531 0.0507812 22.414062 0.671875 19.15625 0.671875 C 16.03125 0.671875 13.472656 0.109375 11.484375 -1.015625 C 9.492188 -2.148438 7.921875 -3.609375 6.765625 -5.390625 C 5.609375 -7.179688 4.800781 -9.164062 4.34375 -11.34375 C 3.894531 -13.519531 3.671875 -15.625 3.671875 -17.65625 C 3.671875 -19.601562 3.816406 -21.675781 4.109375 -23.875 C 4.398438 -26.070312 4.71875 -28.234375 5.0625 -30.359375 C 5.40625 -32.492188 5.710938 -34.5 5.984375 -36.375 C 6.253906 -38.257812 6.390625 -39.878906 6.390625 -41.234375 C 6.390625 -42.546875 6.035156 -43.472656 5.328125 -44.015625 C 4.628906 -44.566406 3.554688 -44.84375 2.109375 -44.84375 C 1.335938 -46.238281 0.953125 -47.550781 0.953125 -48.78125 C 0.953125 -49.957031 1.378906 -50.953125 2.234375 -51.765625 C 3.097656 -52.578125 4.523438 -52.984375 6.515625 -52.984375 C 9.285156 -52.984375 11.425781 -52.019531 12.9375 -50.09375 C 14.457031 -48.175781 15.21875 -45.289062 15.21875 -41.4375 C 15.21875 -39.894531 15.082031 -38.113281 14.8125 -36.09375 C 14.539062 -34.082031 14.234375 -32.015625 13.890625 -29.890625 C 13.554688 -27.765625 13.238281 -25.660156 12.9375 -23.578125 C 12.644531 -21.492188 12.5 -19.613281 12.5 -17.9375 C 12.5 -16.4375 12.625 -15.050781 12.875 -13.78125 C 13.125 -12.519531 13.53125 -11.425781 14.09375 -10.5 C 14.664062 -9.570312 15.398438 -8.832031 16.296875 -8.28125 C 17.203125 -7.738281 18.316406 -7.46875 19.640625 -7.46875 Z M 19.640625 -7.46875 "/></g></g></g><g fill="#ffffff" fill-opacity="1"><g transform="translate(244.677976, 258.489426)"><g><path d="M 16.4375 -26.5 C 15.03125 -26.5 13.910156 -26.210938 13.078125 -25.640625 C 12.242188 -25.078125 11.828125 -24.226562 11.828125 -23.09375 C 11.328125 -22.644531 10.691406 -22.296875 9.921875 -22.046875 C 9.148438 -21.796875 8.378906 -21.671875 7.609375 -21.671875 C 6.429688 -21.671875 5.363281 -22.007812 4.40625 -22.6875 C 3.457031 -23.363281 2.984375 -24.539062 2.984375 -26.21875 C 2.984375 -27.664062 3.34375 -28.910156 4.0625 -29.953125 C 4.789062 -30.992188 5.78125 -31.863281 7.03125 -32.5625 C 8.28125 -33.269531 9.71875 -33.789062 11.34375 -34.125 C 12.976562 -34.46875 14.703125 -34.640625 16.515625 -34.640625 C 18.503906 -34.640625 20.390625 -34.359375 22.171875 -33.796875 C 23.960938 -33.234375 25.5625 -32.375 26.96875 -31.21875 C 28.375 -30.0625 29.484375 -28.578125 30.296875 -26.765625 C 31.109375 -24.953125 31.515625 -22.820312 31.515625 -20.375 C 31.515625 -19.25 31.445312 -18.015625 31.3125 -16.671875 C 31.175781 -15.335938 31.019531 -14.023438 30.84375 -12.734375 C 30.664062 -11.441406 30.507812 -10.226562 30.375 -9.09375 C 30.238281 -7.96875 30.171875 -7.039062 30.171875 -6.3125 C 30.171875 -3.914062 30.960938 -2.71875 32.546875 -2.71875 C 33.535156 -2.71875 34.375 -3.21875 35.0625 -4.21875 C 37.226562 -3.394531 38.3125 -2.035156 38.3125 -0.140625 C 38.3125 1.671875 37.664062 3.050781 36.375 4 C 35.082031 4.957031 33.488281 5.4375 31.59375 5.4375 C 29.78125 5.4375 28.226562 5.140625 26.9375 4.546875 C 25.644531 3.960938 24.578125 3.179688 23.734375 2.203125 C 22.898438 1.234375 22.289062 0.128906 21.90625 -1.109375 C 21.519531 -2.359375 21.328125 -3.617188 21.328125 -4.890625 C 21.328125 -6.203125 21.394531 -7.570312 21.53125 -9 C 21.664062 -10.425781 21.828125 -11.820312 22.015625 -13.1875 C 21.148438 -13.363281 20.265625 -13.507812 19.359375 -13.625 C 18.453125 -13.738281 17.570312 -13.796875 16.71875 -13.796875 C 14.988281 -13.796875 13.515625 -13.546875 12.296875 -13.046875 C 11.078125 -12.546875 10.46875 -11.6875 10.46875 -10.46875 C 10.46875 -9.46875 10.816406 -8.71875 11.515625 -8.21875 C 12.210938 -7.71875 13.039062 -7.46875 14 -7.46875 C 14.675781 -7.46875 15.351562 -7.59375 16.03125 -7.84375 C 16.707031 -8.09375 17.296875 -8.46875 17.796875 -8.96875 C 18.253906 -8.46875 18.628906 -7.878906 18.921875 -7.203125 C 19.210938 -6.523438 19.359375 -5.800781 19.359375 -5.03125 C 19.359375 -4.300781 19.1875 -3.597656 18.84375 -2.921875 C 18.507812 -2.242188 18.015625 -1.628906 17.359375 -1.078125 C 16.703125 -0.535156 15.894531 -0.109375 14.9375 0.203125 C 13.988281 0.515625 12.90625 0.671875 11.6875 0.671875 C 10.457031 0.671875 9.242188 0.46875 8.046875 0.0625 C 6.847656 -0.34375 5.769531 -0.953125 4.8125 -1.765625 C 3.863281 -2.578125 3.09375 -3.59375 2.5 -4.8125 C 1.914062 -6.039062 1.625 -7.472656 1.625 -9.109375 C 1.625 -10.960938 2.03125 -12.566406 2.84375 -13.921875 C 3.664062 -15.285156 4.753906 -16.40625 6.109375 -17.28125 C 7.472656 -18.164062 9.035156 -18.820312 10.796875 -19.25 C 12.566406 -19.6875 14.378906 -19.90625 16.234375 -19.90625 C 18.453125 -19.90625 20.601562 -19.632812 22.6875 -19.09375 L 22.6875 -19.640625 C 22.6875 -21.992188 22.109375 -23.722656 20.953125 -24.828125 C 19.796875 -25.941406 18.289062 -26.5 16.4375 -26.5 Z M 16.4375 -26.5 "/></g></g></g><g fill="#ffffff" fill-opacity="1"><g transform="translate(279.184995, 258.489426)"><g><path d="M 0.953125 -7.953125 C 0.953125 -9.710938 1.40625 -11.382812 2.3125 -12.96875 C 3.21875 -14.5625 4.617188 -15.898438 6.515625 -16.984375 C 5.296875 -18.066406 4.289062 -19.265625 3.5 -20.578125 C 2.707031 -21.898438 2.3125 -23.394531 2.3125 -25.0625 C 2.3125 -26.789062 2.640625 -28.253906 3.296875 -29.453125 C 3.953125 -30.648438 4.84375 -31.632812 5.96875 -32.40625 C 7.101562 -33.175781 8.429688 -33.738281 9.953125 -34.09375 C 11.472656 -34.457031 13.070312 -34.640625 14.75 -34.640625 C 16.414062 -34.640625 18.019531 -34.46875 19.5625 -34.125 C 21.101562 -33.789062 22.453125 -33.296875 23.609375 -32.640625 C 24.765625 -31.984375 25.691406 -31.164062 26.390625 -30.1875 C 27.097656 -29.21875 27.453125 -28.097656 27.453125 -26.828125 C 27.453125 -25.296875 26.984375 -24.1875 26.046875 -23.5 C 25.117188 -22.820312 24.046875 -22.484375 22.828125 -22.484375 C 21.460938 -22.484375 20.054688 -22.820312 18.609375 -23.5 C 18.609375 -24.539062 18.222656 -25.300781 17.453125 -25.78125 C 16.691406 -26.257812 15.695312 -26.5 14.46875 -26.5 C 13.46875 -26.5 12.660156 -26.304688 12.046875 -25.921875 C 11.441406 -25.535156 11.140625 -25.070312 11.140625 -24.53125 C 11.140625 -23.757812 11.546875 -23.03125 12.359375 -22.34375 C 13.179688 -21.664062 14.191406 -20.960938 15.390625 -20.234375 C 16.585938 -19.515625 17.898438 -18.75 19.328125 -17.9375 C 20.753906 -17.125 22.066406 -16.226562 23.265625 -15.25 C 24.460938 -14.28125 25.46875 -13.179688 26.28125 -11.953125 C 27.101562 -10.734375 27.515625 -9.351562 27.515625 -7.8125 C 27.515625 -6.039062 27.175781 -4.5 26.5 -3.1875 C 25.820312 -1.875 24.878906 -0.78125 23.671875 0.09375 C 22.472656 0.976562 21.082031 1.632812 19.5 2.0625 C 17.914062 2.5 16.21875 2.71875 14.40625 2.71875 C 12.59375 2.71875 10.867188 2.476562 9.234375 2 C 7.609375 1.53125 6.179688 0.832031 4.953125 -0.09375 C 3.734375 -1.03125 2.757812 -2.15625 2.03125 -3.46875 C 1.3125 -4.78125 0.953125 -6.273438 0.953125 -7.953125 Z M 18.6875 -7.609375 C 18.6875 -8.472656 18.015625 -9.332031 16.671875 -10.1875 C 15.335938 -11.050781 13.789062 -12.023438 12.03125 -13.109375 C 11.257812 -12.472656 10.691406 -11.804688 10.328125 -11.109375 C 9.960938 -10.410156 9.78125 -9.742188 9.78125 -9.109375 C 9.78125 -8.066406 10.207031 -7.191406 11.0625 -6.484375 C 11.925781 -5.785156 13.222656 -5.4375 14.953125 -5.4375 C 15.859375 -5.4375 16.707031 -5.601562 17.5 -5.9375 C 18.289062 -6.28125 18.6875 -6.835938 18.6875 -7.609375 Z M 18.6875 -7.609375 "/></g></g></g><g fill="#ffffff" fill-opacity="1"><g transform="translate(308.937104, 258.489426)"><g><path d="M 12.5 -29.890625 C 13.675781 -31.335938 15.035156 -32.488281 16.578125 -33.34375 C 18.117188 -34.207031 19.863281 -34.640625 21.8125 -34.640625 C 23.207031 -34.640625 24.609375 -34.414062 26.015625 -33.96875 C 27.421875 -33.519531 28.675781 -32.773438 29.78125 -31.734375 C 30.894531 -30.691406 31.800781 -29.34375 32.5 -27.6875 C 33.207031 -26.03125 33.5625 -23.976562 33.5625 -21.53125 C 33.5625 -20.132812 33.492188 -18.695312 33.359375 -17.21875 C 33.222656 -15.75 33.0625 -14.3125 32.875 -12.90625 C 32.695312 -11.5 32.539062 -10.195312 32.40625 -9 C 32.269531 -7.800781 32.203125 -6.769531 32.203125 -5.90625 C 32.203125 -4.914062 32.453125 -4.132812 32.953125 -3.5625 C 33.453125 -3 34.039062 -2.71875 34.71875 -2.71875 C 35.664062 -2.71875 36.457031 -3.21875 37.09375 -4.21875 C 38.175781 -3.800781 38.988281 -3.21875 39.53125 -2.46875 C 40.082031 -1.726562 40.359375 -0.953125 40.359375 -0.140625 C 40.359375 1.671875 39.664062 3.050781 38.28125 4 C 36.894531 4.957031 35.1875 5.4375 33.15625 5.4375 C 31.75 5.4375 30.457031 5.21875 29.28125 4.78125 C 28.101562 4.351562 27.070312 3.695312 26.1875 2.8125 C 25.300781 1.9375 24.609375 0.832031 24.109375 -0.5 C 23.617188 -1.84375 23.375 -3.394531 23.375 -5.15625 C 23.375 -6.195312 23.441406 -7.382812 23.578125 -8.71875 C 23.710938 -10.0625 23.867188 -11.46875 24.046875 -12.9375 C 24.234375 -14.414062 24.394531 -15.890625 24.53125 -17.359375 C 24.664062 -18.828125 24.734375 -20.242188 24.734375 -21.609375 C 24.734375 -23.328125 24.300781 -24.570312 23.4375 -25.34375 C 22.570312 -26.113281 21.550781 -26.5 20.375 -26.5 C 18.707031 -26.5 17.171875 -25.785156 15.765625 -24.359375 C 14.359375 -22.929688 13.269531 -21.128906 12.5 -18.953125 L 12.5 -6.109375 C 12.5 -4.523438 12.054688 -3.335938 11.171875 -2.546875 C 10.285156 -1.753906 9.144531 -1.359375 7.75 -1.359375 C 6.382812 -1.359375 5.023438 -1.765625 3.671875 -2.578125 L 3.671875 -39 C 3.671875 -40.445312 2.878906 -41.171875 1.296875 -41.171875 L 0.609375 -41.171875 C -0.0234375 -42.304688 -0.34375 -43.460938 -0.34375 -44.640625 C -0.34375 -45.953125 0.140625 -46.992188 1.109375 -47.765625 C 2.085938 -48.535156 3.394531 -48.921875 5.03125 -48.921875 C 6.4375 -48.921875 7.613281 -48.703125 8.5625 -48.265625 C 9.507812 -47.835938 10.273438 -47.226562 10.859375 -46.4375 C 11.453125 -45.644531 11.875 -44.691406 12.125 -43.578125 C 12.375 -42.472656 12.5 -41.238281 12.5 -39.875 Z M 12.5 -29.890625 "/></g></g></g><g fill="#ffffff" fill-opacity="1"><g transform="translate(125.562967, 286.720435)"><g><path d="M 3.0625 0 C 2.476562 0 2.03125 -0.15625 1.71875 -0.46875 C 1.40625 -0.789062 1.25 -1.238281 1.25 -1.8125 L 1.25 -11.953125 C 1.25 -12.535156 1.40625 -12.984375 1.71875 -13.296875 C 2.03125 -13.609375 2.472656 -13.765625 3.046875 -13.765625 C 3.617188 -13.765625 4.0625 -13.609375 4.375 -13.296875 C 4.6875 -12.984375 4.84375 -12.535156 4.84375 -11.953125 L 4.84375 -2.984375 L 9.59375 -2.984375 C 10.082031 -2.984375 10.460938 -2.851562 10.734375 -2.59375 C 11.003906 -2.332031 11.140625 -1.96875 11.140625 -1.5 C 11.140625 -1.019531 11.003906 -0.648438 10.734375 -0.390625 C 10.460938 -0.128906 10.082031 0 9.59375 0 Z M 3.0625 0 "/></g></g></g><g fill="#ffffff" fill-opacity="1"><g transform="translate(139.891282, 286.720435)"><g><path d="M 1.890625 0.171875 C 1.273438 0.171875 0.820312 -0.0351562 0.53125 -0.453125 C 0.25 -0.867188 0.253906 -1.390625 0.546875 -2.015625 L 5.40625 -12.453125 C 5.632812 -12.960938 5.914062 -13.332031 6.25 -13.5625 C 6.59375 -13.800781 6.992188 -13.921875 7.453125 -13.921875 C 7.890625 -13.921875 8.273438 -13.800781 8.609375 -13.5625 C 8.953125 -13.332031 9.242188 -12.960938 9.484375 -12.453125 L 14.328125 -2.015625 C 14.628906 -1.367188 14.644531 -0.84375 14.375 -0.4375 C 14.101562 -0.03125 13.671875 0.171875 13.078125 0.171875 C 12.554688 0.171875 12.15625 0.0546875 11.875 -0.171875 C 11.601562 -0.410156 11.359375 -0.789062 11.140625 -1.3125 L 10.515625 -2.78125 L 4.375 -2.78125 L 3.75 -1.3125 C 3.507812 -0.789062 3.265625 -0.410156 3.015625 -0.171875 C 2.773438 0.0546875 2.398438 0.171875 1.890625 0.171875 Z M 7.40625 -10 L 5.53125 -5.53125 L 9.328125 -5.53125 L 7.453125 -10 Z M 7.40625 -10 "/></g></g></g><g fill="#ffffff" fill-opacity="1"><g transform="translate(157.689187, 286.720435)"><g><path d="M 7.328125 0.21875 C 5.328125 0.21875 3.796875 -0.285156 2.734375 -1.296875 C 1.679688 -2.316406 1.15625 -3.832031 1.15625 -5.84375 L 1.15625 -12.109375 C 1.15625 -12.691406 1.3125 -13.140625 1.625 -13.453125 C 1.9375 -13.765625 2.375 -13.921875 2.9375 -13.921875 C 3.507812 -13.921875 3.953125 -13.765625 4.265625 -13.453125 C 4.578125 -13.140625 4.734375 -12.691406 4.734375 -12.109375 L 4.734375 -5.8125 C 4.734375 -4.8125 4.953125 -4.054688 5.390625 -3.546875 C 5.835938 -3.035156 6.484375 -2.78125 7.328125 -2.78125 C 8.160156 -2.78125 8.796875 -3.035156 9.234375 -3.546875 C 9.679688 -4.054688 9.90625 -4.8125 9.90625 -5.8125 L 9.90625 -12.109375 C 9.90625 -12.691406 10.054688 -13.140625 10.359375 -13.453125 C 10.671875 -13.765625 11.113281 -13.921875 11.6875 -13.921875 C 12.25 -13.921875 12.679688 -13.765625 12.984375 -13.453125 C 13.285156 -13.140625 13.4375 -12.691406 13.4375 -12.109375 L 13.4375 -5.84375 C 13.4375 -3.832031 12.914062 -2.316406 11.875 -1.296875 C 10.84375 -0.285156 9.328125 0.21875 7.328125 0.21875 Z M 7.328125 0.21875 "/></g></g></g><g fill="#ffffff" fill-opacity="1"><g transform="translate(175.194707, 286.720435)"><g><path d="M 2.921875 0.171875 C 1.804688 0.171875 1.25 -0.390625 1.25 -1.515625 L 1.25 -12.15625 C 1.25 -12.71875 1.390625 -13.148438 1.671875 -13.453125 C 1.960938 -13.765625 2.34375 -13.921875 2.8125 -13.921875 C 3.226562 -13.921875 3.546875 -13.84375 3.765625 -13.6875 C 3.992188 -13.53125 4.257812 -13.269531 4.5625 -12.90625 L 10.203125 -5.875 L 10.203125 -12.25 C 10.203125 -13.363281 10.753906 -13.921875 11.859375 -13.921875 C 12.398438 -13.921875 12.8125 -13.773438 13.09375 -13.484375 C 13.375 -13.191406 13.515625 -12.78125 13.515625 -12.25 L 13.515625 -1.4375 C 13.515625 -0.945312 13.382812 -0.554688 13.125 -0.265625 C 12.863281 0.0234375 12.515625 0.171875 12.078125 0.171875 C 11.628906 0.171875 11.273438 0.09375 11.015625 -0.0625 C 10.765625 -0.21875 10.5 -0.476562 10.21875 -0.84375 L 4.578125 -7.875 L 4.578125 -1.515625 C 4.578125 -0.390625 4.023438 0.171875 2.921875 0.171875 Z M 2.921875 0.171875 "/></g></g></g><g fill="#ffffff" fill-opacity="1"><g transform="translate(192.895157, 286.720435)"><g><path d="M 3.125 0 C 1.875 0 1.25 -0.617188 1.25 -1.859375 L 1.25 -11.890625 C 1.25 -13.128906 1.875 -13.75 3.125 -13.75 L 6.9375 -13.75 C 9.320312 -13.75 11.171875 -13.148438 12.484375 -11.953125 C 13.796875 -10.753906 14.453125 -9.066406 14.453125 -6.890625 C 14.453125 -4.703125 13.796875 -3.003906 12.484375 -1.796875 C 11.171875 -0.597656 9.320312 0 6.9375 0 Z M 4.84375 -2.90625 L 6.703125 -2.90625 C 8.066406 -2.90625 9.078125 -3.234375 9.734375 -3.890625 C 10.390625 -4.546875 10.71875 -5.546875 10.71875 -6.890625 C 10.71875 -8.222656 10.382812 -9.210938 9.71875 -9.859375 C 9.0625 -10.515625 8.054688 -10.84375 6.703125 -10.84375 L 4.84375 -10.84375 Z M 4.84375 -2.90625 "/></g></g></g><g fill="#ffffff" fill-opacity="1"><g transform="translate(211.141384, 286.720435)"><g><path d="M 3.046875 0.171875 C 2.472656 0.171875 2.03125 0.015625 1.71875 -0.296875 C 1.40625 -0.609375 1.25 -1.054688 1.25 -1.640625 L 1.25 -11.9375 C 1.25 -12.519531 1.40625 -12.96875 1.71875 -13.28125 C 2.03125 -13.59375 2.476562 -13.75 3.0625 -13.75 L 7.859375 -13.75 C 9.421875 -13.75 10.625 -13.367188 11.46875 -12.609375 C 12.320312 -11.847656 12.75 -10.789062 12.75 -9.4375 C 12.75 -8.40625 12.492188 -7.539062 11.984375 -6.84375 C 11.472656 -6.15625 10.726562 -5.675781 9.75 -5.40625 C 10.476562 -5.207031 11.0625 -4.707031 11.5 -3.90625 L 12.484375 -2.140625 C 12.691406 -1.753906 12.785156 -1.382812 12.765625 -1.03125 C 12.742188 -0.675781 12.601562 -0.382812 12.34375 -0.15625 C 12.082031 0.0625 11.695312 0.171875 11.1875 0.171875 C 10.6875 0.171875 10.273438 0.0703125 9.953125 -0.125 C 9.640625 -0.320312 9.359375 -0.648438 9.109375 -1.109375 L 7.328125 -4.375 C 7.171875 -4.65625 6.972656 -4.847656 6.734375 -4.953125 C 6.492188 -5.066406 6.21875 -5.125 5.90625 -5.125 L 4.84375 -5.125 L 4.84375 -1.640625 C 4.84375 -1.054688 4.6875 -0.609375 4.375 -0.296875 C 4.070312 0.015625 3.628906 0.171875 3.046875 0.171875 Z M 4.84375 -7.65625 L 7.21875 -7.65625 C 8.632812 -7.65625 9.34375 -8.21875 9.34375 -9.34375 C 9.34375 -10.445312 8.632812 -11 7.21875 -11 L 4.84375 -11 Z M 4.84375 -7.65625 "/></g></g></g><g fill="#ffffff" fill-opacity="1"><g transform="translate(227.828249, 286.720435)"><g><path d="M 6.28125 0.171875 C 5.707031 0.171875 5.265625 0.015625 4.953125 -0.296875 C 4.640625 -0.617188 4.484375 -1.078125 4.484375 -1.671875 L 4.484375 -6.078125 L 0.734375 -11.5 C 0.515625 -11.8125 0.421875 -12.15625 0.453125 -12.53125 C 0.484375 -12.914062 0.640625 -13.242188 0.921875 -13.515625 C 1.203125 -13.785156 1.601562 -13.921875 2.125 -13.921875 C 2.488281 -13.921875 2.816406 -13.828125 3.109375 -13.640625 C 3.410156 -13.460938 3.691406 -13.171875 3.953125 -12.765625 L 6.34375 -9.28125 L 8.71875 -12.796875 C 8.988281 -13.191406 9.265625 -13.476562 9.546875 -13.65625 C 9.835938 -13.832031 10.175781 -13.921875 10.5625 -13.921875 C 11.0625 -13.921875 11.445312 -13.796875 11.71875 -13.546875 C 11.988281 -13.304688 12.132812 -12.992188 12.15625 -12.609375 C 12.175781 -12.234375 12.054688 -11.851562 11.796875 -11.46875 L 8.078125 -6.078125 L 8.078125 -1.671875 C 8.078125 -0.441406 7.476562 0.171875 6.28125 0.171875 Z M 6.28125 0.171875 "/></g></g></g></svg>