<svg xmlns="http://www.w3.org/2000/svg" xmlns:xlink="http://www.w3.org/1999/xlink" width="500" zoomAndPan="magnify" viewBox="0 0 375 374.999991" height="500" preserveAspectRatio="xMidYMid meet" version="1.0"><defs><clipPath id="254f24641b"><path d="M 210 121 L 336 121 L 336 305.621094 L 210 305.621094 Z M 210 121 " clip-rule="nonzero"/></clipPath><clipPath id="260240ccb6"><path d="M 93.875 69.699219 L 284.554688 69.699219 L 284.554688 284.632812 L 93.875 284.632812 Z M 93.875 69.699219 " clip-rule="nonzero"/></clipPath><clipPath id="57391977da"><path d="M 101.375 69.699219 L 277.054688 69.699219 C 281.195312 69.699219 284.554688 73.058594 284.554688 77.199219 L 284.554688 277.132812 C 284.554688 281.273438 281.195312 284.632812 277.054688 284.632812 L 101.375 284.632812 C 97.230469 284.632812 93.875 281.273438 93.875 277.132812 L 93.875 77.199219 C 93.875 73.058594 97.230469 69.699219 101.375 69.699219 Z M 101.375 69.699219 " clip-rule="nonzero"/></clipPath><clipPath id="6dbd090f11"><path d="M 39 110 L 165 110 L 165 294.777344 L 39 294.777344 Z M 39 110 " clip-rule="nonzero"/></clipPath><clipPath id="1ed628918b"><path d="M 126 99.027344 L 206 99.027344 L 206 213 L 126 213 Z M 126 99.027344 " clip-rule="nonzero"/></clipPath><clipPath id="cf9ee605a8"><path d="M 47 149 L 132 149 L 132 273.929688 L 47 273.929688 Z M 47 149 " clip-rule="nonzero"/></clipPath><clipPath id="1e66a37963"><path d="M 105 141.179688 L 160 141.179688 L 160 219 L 105 219 Z M 105 141.179688 " clip-rule="nonzero"/></clipPath><clipPath id="4e66343d9c"><path d="M 241 159 L 326 159 L 326 284.570312 L 241 284.570312 Z M 241 159 " clip-rule="nonzero"/></clipPath><clipPath id="aeab5d1032"><path d="M 213 151.820312 L 268 151.820312 L 268 229 L 213 229 Z M 213 151.820312 " clip-rule="nonzero"/></clipPath><clipPath id="704bf61005"><path d="M 99.722656 75.738281 L 279.722656 75.738281 L 279.722656 294.738281 L 99.722656 294.738281 Z M 99.722656 75.738281 " clip-rule="nonzero"/></clipPath></defs><path fill="#0a57a2" d="M 272.910156 300.394531 C 294.164062 300.394531 313.5625 288.75 323.539062 270.003906 C 332.433594 253.292969 332.441406 233.175781 323.554688 216.191406 L 277.230469 129.152344 C 276.390625 127.574219 274.746094 126.585938 272.957031 126.585938 C 271.167969 126.585938 269.523438 127.574219 268.683594 129.152344 L 222.375 216.160156 C 215.183594 229.671875 213.683594 245.171875 218.152344 259.8125 C 222.621094 274.449219 232.523438 286.472656 246.035156 293.664062 C 254.304688 298.066406 263.597656 300.394531 272.910156 300.394531 Z M 272.910156 300.394531 " fill-opacity="1" fill-rule="nonzero"/><g clip-path="url(#254f24641b)"><path fill="#0a57a2" d="M 272.957031 131.425781 L 226.648438 218.433594 C 213.035156 244.007812 222.730469 275.777344 248.308594 289.390625 C 256.160156 293.570312 264.597656 295.550781 272.910156 295.550781 C 291.679688 295.550781 309.832031 285.453125 319.265625 267.730469 C 327.722656 251.839844 327.023438 233.265625 319.265625 218.433594 L 272.957031 131.425781 M 272.957031 121.746094 C 276.535156 121.746094 279.820312 123.71875 281.503906 126.878906 L 327.8125 213.882812 C 327.824219 213.90625 327.835938 213.925781 327.84375 213.945312 C 337.472656 232.347656 337.457031 254.15625 327.8125 272.277344 C 316.992188 292.605469 295.957031 305.234375 272.910156 305.234375 C 262.808594 305.234375 252.726562 302.710938 243.757812 297.9375 C 229.105469 290.140625 218.367188 277.101562 213.519531 261.226562 C 208.675781 245.347656 210.300781 228.535156 218.101562 213.882812 L 264.410156 126.878906 C 266.089844 123.71875 269.378906 121.746094 272.957031 121.746094 Z M 272.957031 121.746094 " fill-opacity="1" fill-rule="nonzero"/></g><path fill="#0a57a2" d="M 281.398438 181.210938 L 254.917969 230.957031 C 247.136719 245.578125 252.679688 263.742188 267.304688 271.527344 C 281.929688 279.3125 300.09375 273.765625 307.875 259.144531 C 312.710938 250.058594 312.3125 239.4375 307.875 230.957031 Z M 281.398438 181.210938 " fill-opacity="1" fill-rule="nonzero"/><path fill="#0a57a2" d="M 226.644531 218.433594 L 272.957031 131.425781 L 281.375 147.246094 L 243.484375 218.433594 C 229.871094 244.007812 239.570312 275.777344 265.144531 289.390625 C 270.363281 292.167969 275.835938 293.957031 281.359375 294.855469 C 270.425781 296.640625 258.839844 295 248.304688 289.390625 C 222.730469 275.777344 213.035156 244.007812 226.644531 218.433594 Z M 226.644531 218.433594 " fill-opacity="1" fill-rule="nonzero"/><path fill="#0a57a2" d="M 209.265625 218.519531 C 222.203125 218.519531 234.015625 211.433594 240.085938 200.019531 C 245.503906 189.847656 245.507812 177.601562 240.105469 167.269531 L 213.566406 117.414062 C 212.726562 115.832031 211.082031 114.847656 209.292969 114.847656 C 207.503906 114.847656 205.859375 115.832031 205.019531 117.414062 L 178.496094 167.238281 C 174.121094 175.464844 173.207031 184.902344 175.925781 193.816406 C 178.648438 202.726562 184.675781 210.046875 192.902344 214.425781 C 197.9375 217.105469 203.59375 218.519531 209.265625 218.519531 Z M 209.265625 218.519531 " fill-opacity="1" fill-rule="nonzero"/><path fill="#0a57a2" d="M 209.292969 119.6875 L 182.769531 169.511719 C 174.976562 184.160156 180.53125 202.355469 195.175781 210.152344 C 199.671875 212.542969 204.503906 213.679688 209.265625 213.679688 C 220.015625 213.679688 230.410156 207.898438 235.8125 197.746094 C 240.65625 188.644531 240.253906 178.007812 235.8125 169.511719 L 209.292969 119.6875 M 209.292969 110.003906 C 212.871094 110.003906 216.160156 111.976562 217.839844 115.136719 L 244.359375 164.964844 C 244.371094 164.984375 244.382812 165.003906 244.394531 165.027344 C 250.539062 176.777344 250.527344 190.707031 244.359375 202.292969 C 237.445312 215.289062 223.996094 223.359375 209.265625 223.359375 C 202.804688 223.359375 196.359375 221.746094 190.628906 218.695312 C 181.261719 213.710938 174.394531 205.375 171.296875 195.226562 C 168.199219 185.078125 169.238281 174.332031 174.226562 164.964844 L 200.746094 115.136719 C 202.425781 111.976562 205.714844 110.003906 209.292969 110.003906 Z M 209.292969 110.003906 " fill-opacity="1" fill-rule="nonzero"/><path fill="#0a57a2" d="M 214.128906 148.195312 L 198.964844 176.6875 C 194.507812 185.058594 197.679688 195.464844 206.054688 199.921875 C 214.429688 204.378906 224.832031 201.203125 229.292969 192.828125 C 232.0625 187.625 231.832031 181.542969 229.292969 176.6875 Z M 214.128906 148.195312 " fill-opacity="1" fill-rule="nonzero"/><path fill="#0a57a2" d="M 182.769531 169.511719 L 209.292969 119.6875 L 214.113281 128.746094 L 192.414062 169.511719 C 184.621094 184.160156 190.171875 202.355469 204.820312 210.152344 C 207.808594 211.742188 210.941406 212.765625 214.105469 213.28125 C 207.84375 214.304688 201.210938 213.363281 195.175781 210.152344 C 180.53125 202.355469 174.976562 184.160156 182.769531 169.511719 Z M 182.769531 169.511719 " fill-opacity="1" fill-rule="nonzero"/><g clip-path="url(#260240ccb6)"><g clip-path="url(#57391977da)"><path fill="#0a57a2" d="M 93.875 69.699219 L 284.550781 69.699219 L 284.550781 284.632812 L 93.875 284.632812 Z M 93.875 69.699219 " fill-opacity="1" fill-rule="nonzero"/></g></g><path fill="#0a57a2" d="M 102.089844 289.550781 C 80.835938 289.550781 61.4375 277.90625 51.460938 259.164062 C 42.566406 242.449219 42.558594 222.332031 51.445312 205.347656 L 97.769531 118.3125 C 98.609375 116.730469 100.253906 115.746094 102.042969 115.746094 C 103.832031 115.746094 105.476562 116.730469 106.316406 118.3125 L 152.625 205.316406 C 159.816406 218.828125 161.316406 234.332031 156.847656 248.96875 C 152.378906 263.609375 142.476562 275.632812 128.964844 282.824219 C 120.695312 287.222656 111.402344 289.550781 102.089844 289.550781 Z M 102.089844 289.550781 " fill-opacity="1" fill-rule="nonzero"/><g clip-path="url(#6dbd090f11)"><path fill="#0a57a2" d="M 102.042969 120.585938 L 148.351562 207.589844 C 161.964844 233.167969 152.265625 264.9375 126.691406 278.546875 C 118.839844 282.726562 110.402344 284.710938 102.089844 284.710938 C 83.320312 284.710938 65.167969 274.613281 55.734375 256.886719 C 47.277344 240.996094 47.976562 222.421875 55.734375 207.589844 L 102.042969 120.585938 M 102.042969 110.902344 C 98.464844 110.902344 95.175781 112.875 93.496094 116.035156 L 47.1875 203.042969 C 47.175781 203.0625 47.164062 203.082031 47.152344 203.101562 C 37.527344 221.507812 37.539062 243.3125 47.1875 261.4375 C 58.007812 281.765625 79.042969 294.394531 102.085938 294.394531 C 112.191406 294.394531 122.269531 291.871094 131.242188 287.09375 C 145.894531 279.296875 156.632812 266.257812 161.476562 250.382812 C 166.324219 234.507812 164.699219 217.695312 156.898438 203.042969 L 110.589844 116.035156 C 108.910156 112.878906 105.621094 110.902344 102.042969 110.902344 Z M 102.042969 110.902344 " fill-opacity="1" fill-rule="nonzero"/></g><path fill="#0a57a2" d="M 93.601562 170.367188 L 120.078125 220.113281 C 127.863281 234.738281 122.316406 252.902344 107.695312 260.6875 C 93.070312 268.46875 74.90625 262.925781 67.121094 248.300781 C 62.285156 239.214844 62.6875 228.597656 67.121094 220.113281 Z M 93.601562 170.367188 " fill-opacity="1" fill-rule="nonzero"/><path fill="#0a57a2" d="M 148.351562 207.589844 L 102.042969 120.585938 L 93.625 136.40625 L 131.515625 207.589844 C 145.125 233.164062 135.429688 264.933594 109.851562 278.546875 C 104.636719 281.324219 99.164062 283.113281 93.640625 284.015625 C 104.574219 285.796875 116.15625 284.15625 126.691406 278.546875 C 152.269531 264.9375 161.964844 233.167969 148.351562 207.589844 Z M 148.351562 207.589844 " fill-opacity="1" fill-rule="nonzero"/><path fill="#0a57a2" d="M 165.730469 207.679688 C 152.796875 207.679688 140.984375 200.589844 134.910156 189.179688 C 129.496094 179.003906 129.492188 166.761719 134.894531 156.429688 L 161.433594 106.570312 C 162.273438 104.988281 163.917969 104.003906 165.707031 104.003906 C 167.496094 104.003906 169.140625 104.988281 169.980469 106.570312 L 196.5 156.398438 C 200.878906 164.621094 201.792969 174.058594 199.070312 182.972656 C 196.351562 191.882812 190.324219 199.203125 182.097656 203.582031 C 177.0625 206.261719 171.402344 207.679688 165.730469 207.679688 Z M 165.730469 207.679688 " fill-opacity="1" fill-rule="nonzero"/><g clip-path="url(#1ed628918b)"><path fill="#0a57a2" d="M 165.707031 108.84375 L 192.226562 158.671875 C 200.023438 173.316406 194.46875 191.511719 179.824219 199.308594 C 175.324219 201.703125 170.496094 202.835938 165.734375 202.835938 C 154.984375 202.835938 144.589844 197.054688 139.1875 186.902344 C 134.34375 177.800781 134.742188 167.167969 139.1875 158.671875 L 165.707031 108.84375 M 165.707031 99.164062 C 162.128906 99.164062 158.839844 101.136719 157.160156 104.296875 L 130.636719 154.121094 C 130.625 154.144531 130.617188 154.164062 130.605469 154.183594 C 124.460938 165.933594 124.472656 179.867188 130.636719 191.453125 C 137.554688 204.445312 151 212.519531 165.730469 212.519531 C 172.195312 212.519531 178.640625 210.90625 184.371094 207.855469 C 193.738281 202.867188 200.605469 194.535156 203.699219 184.382812 C 206.800781 174.234375 205.757812 163.488281 200.773438 154.121094 L 174.253906 104.292969 C 172.570312 101.136719 169.285156 99.164062 165.707031 99.164062 Z M 165.707031 99.164062 " fill-opacity="1" fill-rule="nonzero"/></g><path fill="#0a57a2" d="M 160.871094 137.355469 L 176.035156 165.84375 C 180.492188 174.21875 177.316406 184.621094 168.941406 189.078125 C 160.570312 193.535156 150.164062 190.359375 145.707031 181.984375 C 142.9375 176.78125 143.167969 170.699219 145.707031 165.84375 Z M 160.871094 137.355469 " fill-opacity="1" fill-rule="nonzero"/><path fill="#0a57a2" d="M 192.226562 158.671875 L 165.707031 108.84375 L 160.882812 117.902344 L 182.582031 158.671875 C 190.378906 173.316406 184.824219 191.511719 170.179688 199.308594 C 167.191406 200.898438 164.054688 201.925781 160.894531 202.441406 C 167.15625 203.460938 173.789062 202.519531 179.824219 199.308594 C 194.46875 191.511719 200.023438 173.316406 192.226562 158.671875 Z M 192.226562 158.671875 " fill-opacity="1" fill-rule="nonzero"/><path fill="#7fd3ff" d="M 89.726562 270.65625 C 75.285156 270.65625 62.101562 262.742188 55.324219 250.003906 C 49.277344 238.648438 49.273438 224.976562 55.3125 213.433594 L 86.792969 154.285156 C 87.363281 153.210938 88.480469 152.542969 89.699219 152.542969 C 90.914062 152.542969 92.03125 153.210938 92.601562 154.285156 L 124.070312 213.414062 C 128.957031 222.59375 129.976562 233.128906 126.941406 243.078125 C 123.902344 253.027344 117.175781 261.195312 107.992188 266.082031 C 102.371094 269.074219 96.058594 270.65625 89.726562 270.65625 Z M 89.726562 270.65625 " fill-opacity="1" fill-rule="nonzero"/><g clip-path="url(#cf9ee605a8)"><path fill="#0a57a2" d="M 89.699219 155.832031 L 121.167969 214.957031 C 130.417969 232.339844 123.828125 253.925781 106.449219 263.179688 C 101.113281 266.019531 95.378906 267.363281 89.726562 267.363281 C 76.972656 267.363281 64.636719 260.503906 58.226562 248.457031 C 52.480469 237.660156 52.957031 225.035156 58.226562 214.957031 L 89.699219 155.832031 M 89.699219 149.25 C 87.265625 149.25 85.03125 150.59375 83.890625 152.738281 L 52.417969 211.867188 C 52.410156 211.878906 52.402344 211.894531 52.398438 211.90625 C 45.855469 224.414062 45.863281 239.234375 52.417969 251.550781 C 59.769531 265.363281 74.066406 273.945312 89.726562 273.945312 C 96.59375 273.945312 103.445312 272.230469 109.539062 268.984375 C 119.496094 263.6875 126.792969 254.828125 130.085938 244.039062 C 133.378906 233.25 132.273438 221.824219 126.976562 211.867188 L 95.503906 152.742188 C 94.363281 150.59375 92.128906 149.25 89.699219 149.25 Z M 89.699219 149.25 " fill-opacity="1" fill-rule="nonzero"/></g><path fill="#cfeeff" d="M 83.960938 189.660156 L 101.953125 223.46875 C 107.242188 233.40625 103.476562 245.75 93.539062 251.039062 C 83.601562 256.328125 71.257812 252.558594 65.96875 242.621094 C 62.679688 236.449219 62.953125 229.230469 65.96875 223.46875 Z M 83.960938 189.660156 " fill-opacity="1" fill-rule="nonzero"/><path fill="#1995ed" d="M 121.167969 214.957031 L 89.699219 155.832031 L 83.976562 166.582031 L 109.726562 214.957031 C 118.976562 232.335938 112.386719 253.925781 95.003906 263.175781 C 91.460938 265.0625 87.738281 266.28125 83.984375 266.894531 C 91.417969 268.105469 99.289062 266.988281 106.449219 263.175781 C 123.828125 253.925781 130.417969 232.339844 121.167969 214.957031 Z M 121.167969 214.957031 " fill-opacity="1" fill-rule="nonzero"/><path fill="#7fd3ff" d="M 132.976562 215.015625 C 124.1875 215.015625 116.160156 210.199219 112.035156 202.445312 C 108.355469 195.53125 108.351562 187.210938 112.023438 180.1875 L 130.054688 146.308594 C 130.628906 145.234375 131.746094 144.5625 132.960938 144.5625 C 134.175781 144.5625 135.292969 145.234375 135.863281 146.308594 L 153.886719 180.167969 C 156.863281 185.757812 157.484375 192.171875 155.632812 198.226562 C 153.785156 204.285156 149.6875 209.257812 144.097656 212.234375 C 140.679688 214.054688 136.832031 215.015625 132.976562 215.015625 Z M 132.976562 215.015625 " fill-opacity="1" fill-rule="nonzero"/><g clip-path="url(#1e66a37963)"><path fill="#0a57a2" d="M 132.960938 147.851562 L 150.984375 181.714844 C 156.28125 191.667969 152.507812 204.03125 142.554688 209.328125 C 139.496094 210.957031 136.214844 211.726562 132.980469 211.726562 C 125.675781 211.726562 118.609375 207.796875 114.9375 200.898438 C 111.648438 194.714844 111.917969 187.488281 114.9375 181.714844 L 132.960938 147.851562 M 132.960938 141.273438 C 130.527344 141.273438 128.296875 142.613281 127.152344 144.761719 L 109.128906 178.621094 C 109.121094 178.636719 109.113281 178.648438 109.105469 178.664062 C 104.929688 186.648438 104.9375 196.117188 109.128906 203.988281 C 113.828125 212.820312 122.96875 218.304688 132.976562 218.304688 C 137.371094 218.304688 141.75 217.210938 145.644531 215.136719 C 152.011719 211.75 156.675781 206.085938 158.78125 199.1875 C 160.886719 192.289062 160.179688 184.988281 156.792969 178.621094 L 138.769531 144.761719 C 137.625 142.613281 135.394531 141.273438 132.960938 141.273438 Z M 132.960938 141.273438 " fill-opacity="1" fill-rule="nonzero"/></g><path fill="#cfeeff" d="M 129.675781 167.226562 L 139.980469 186.585938 C 143.007812 192.277344 140.851562 199.347656 135.160156 202.378906 C 129.46875 205.40625 122.398438 203.25 119.371094 197.558594 C 117.488281 194.023438 117.644531 189.886719 119.371094 186.589844 Z M 129.675781 167.226562 " fill-opacity="1" fill-rule="nonzero"/><path fill="#1995ed" d="M 150.984375 181.714844 L 132.960938 147.851562 L 129.683594 154.007812 L 144.429688 181.714844 C 149.726562 191.667969 145.953125 204.03125 136 209.328125 C 133.96875 210.410156 131.839844 211.105469 129.691406 211.457031 C 133.945312 212.152344 138.453125 211.511719 142.554688 209.328125 C 152.507812 204.03125 156.28125 191.667969 150.984375 181.714844 Z M 150.984375 181.714844 " fill-opacity="1" fill-rule="nonzero"/><path fill="#7fd3ff" d="M 283.320312 281.296875 C 297.761719 281.296875 310.945312 273.382812 317.726562 260.644531 C 323.769531 249.289062 323.773438 235.617188 317.738281 224.074219 L 286.257812 164.925781 C 285.683594 163.855469 284.570312 163.183594 283.351562 163.183594 C 282.136719 163.183594 281.019531 163.855469 280.449219 164.925781 L 248.976562 224.054688 C 244.089844 233.234375 243.070312 243.769531 246.109375 253.71875 C 249.144531 263.667969 255.875 271.835938 265.058594 276.722656 C 270.675781 279.714844 276.992188 281.296875 283.320312 281.296875 Z M 283.320312 281.296875 " fill-opacity="1" fill-rule="nonzero"/><g clip-path="url(#4e66343d9c)"><path fill="#0a57a2" d="M 283.351562 166.472656 L 251.882812 225.597656 C 242.632812 242.980469 249.222656 264.570312 266.601562 273.820312 C 271.9375 276.660156 277.671875 278.007812 283.320312 278.007812 C 296.074219 278.007812 308.410156 271.144531 314.824219 259.097656 C 320.570312 248.300781 320.09375 235.679688 314.824219 225.597656 L 283.351562 166.472656 M 283.351562 159.894531 C 285.785156 159.894531 288.019531 161.234375 289.160156 163.382812 L 320.628906 222.507812 C 320.636719 222.519531 320.644531 222.535156 320.652344 222.550781 C 327.195312 235.054688 327.1875 249.875 320.628906 262.191406 C 313.277344 276.003906 298.980469 284.585938 283.320312 284.585938 C 276.457031 284.585938 269.605469 282.871094 263.511719 279.628906 C 253.554688 274.328125 246.253906 265.46875 242.960938 254.679688 C 239.667969 243.890625 240.773438 232.464844 246.074219 222.507812 L 277.542969 163.382812 C 278.6875 161.234375 280.921875 159.894531 283.351562 159.894531 Z M 283.351562 159.894531 " fill-opacity="1" fill-rule="nonzero"/></g><path fill="#cfeeff" d="M 289.089844 200.300781 L 271.09375 234.109375 C 265.804688 244.046875 269.574219 256.390625 279.511719 261.679688 C 289.449219 266.96875 301.792969 263.203125 307.082031 253.261719 C 310.371094 247.089844 310.097656 239.871094 307.082031 234.109375 Z M 289.089844 200.300781 " fill-opacity="1" fill-rule="nonzero"/><path fill="#1995ed" d="M 251.882812 225.597656 L 283.351562 166.472656 L 289.074219 177.222656 L 263.324219 225.597656 C 254.074219 242.976562 260.664062 264.566406 278.042969 273.820312 C 281.589844 275.707031 285.308594 276.921875 289.0625 277.535156 C 281.632812 278.746094 273.761719 277.628906 266.601562 273.820312 C 249.222656 264.570312 242.632812 242.980469 251.882812 225.597656 Z M 251.882812 225.597656 " fill-opacity="1" fill-rule="nonzero"/><path fill="#7fd3ff" d="M 240.070312 225.660156 C 248.863281 225.660156 256.886719 220.839844 261.015625 213.085938 C 264.695312 206.171875 264.699219 197.851562 261.027344 190.828125 L 242.992188 156.949219 C 242.421875 155.875 241.304688 155.203125 240.089844 155.203125 C 238.871094 155.203125 237.757812 155.875 237.183594 156.949219 L 219.160156 190.808594 C 216.1875 196.398438 215.566406 202.8125 217.414062 208.867188 C 219.265625 214.925781 223.359375 219.898438 228.949219 222.875 C 232.371094 224.695312 236.21875 225.660156 240.070312 225.660156 Z M 240.070312 225.660156 " fill-opacity="1" fill-rule="nonzero"/><g clip-path="url(#aeab5d1032)"><path fill="#0a57a2" d="M 240.089844 158.492188 L 222.066406 192.355469 C 216.769531 202.308594 220.542969 214.671875 230.496094 219.96875 C 233.550781 221.597656 236.835938 222.367188 240.070312 222.367188 C 247.375 222.367188 254.441406 218.4375 258.109375 211.539062 C 261.402344 205.355469 261.128906 198.128906 258.109375 192.355469 L 240.089844 158.492188 M 240.089844 151.914062 C 242.519531 151.914062 244.753906 153.253906 245.898438 155.402344 L 263.921875 189.261719 C 263.925781 189.277344 263.933594 189.289062 263.941406 189.304688 C 268.117188 197.289062 268.109375 206.757812 263.921875 214.632812 C 259.21875 223.460938 250.082031 228.949219 240.070312 228.949219 C 235.679688 228.949219 231.300781 227.851562 227.40625 225.777344 C 221.039062 222.390625 216.375 216.726562 214.269531 209.828125 C 212.164062 202.929688 212.871094 195.628906 216.257812 189.261719 L 234.28125 155.402344 C 235.421875 153.253906 237.65625 151.914062 240.089844 151.914062 Z M 240.089844 151.914062 " fill-opacity="1" fill-rule="nonzero"/></g><path fill="#cfeeff" d="M 243.375 177.867188 L 233.070312 197.226562 C 230.039062 202.917969 232.199219 209.988281 237.890625 213.019531 C 243.582031 216.046875 250.648438 213.890625 253.679688 208.199219 C 255.5625 204.664062 255.40625 200.53125 253.679688 197.230469 Z M 243.375 177.867188 " fill-opacity="1" fill-rule="nonzero"/><path fill="#1995ed" d="M 222.066406 192.355469 L 240.089844 158.492188 L 243.367188 164.648438 L 228.621094 192.355469 C 223.320312 202.308594 227.097656 214.671875 237.050781 219.96875 C 239.078125 221.050781 241.210938 221.746094 243.359375 222.097656 C 239.105469 222.792969 234.597656 222.152344 230.496094 219.96875 C 220.542969 214.671875 216.769531 202.308594 222.066406 192.355469 Z M 222.066406 192.355469 " fill-opacity="1" fill-rule="nonzero"/><path fill="#1995ed" d="M 102.550781 127.828125 L 274.851562 127.828125 L 274.851562 271.496094 L 102.550781 271.496094 Z M 102.550781 127.828125 " fill-opacity="1" fill-rule="evenodd"/><path fill="#7fd3ff" d="M 140.917969 198.292969 C 140.917969 198.292969 143.042969 235.839844 172.386719 245.382812 C 201.730469 254.929688 221.722656 238.851562 225.84375 234.628906 C 229.964844 230.410156 238.402344 209.210938 238.402344 209.210938 L 225.996094 206.695312 C 225.996094 206.695312 217.402344 199.160156 214.183594 197.753906 C 210.96875 196.347656 206.449219 202.273438 202.425781 202.273438 C 198.402344 202.273438 193.808594 195.695312 189.0625 198.054688 C 184.308594 200.414062 181.328125 204.585938 175.59375 202.476562 C 169.867188 200.371094 166.453125 195.242188 162.027344 198.457031 C 157.605469 201.671875 157.710938 206.394531 153.585938 203.378906 C 149.476562 200.371094 147.867188 195.75 140.917969 198.292969 Z M 140.917969 198.292969 " fill-opacity="1" fill-rule="evenodd"/><path fill="#ffffff" d="M 198.089844 202.867188 C 197.152344 201.816406 196.078125 200.808594 194.78125 200.003906 C 193.304688 199.089844 191.628906 198.503906 189.707031 198.503906 C 187.796875 198.503906 186.160156 199.042969 184.6875 199.941406 C 183.402344 200.726562 182.328125 201.738281 181.328125 202.859375 C 180.777344 203.472656 180.203125 204.035156 179.640625 204.382812 C 179.257812 204.617188 178.839844 204.769531 178.382812 204.769531 C 177.914062 204.769531 177.511719 204.632812 177.148438 204.414062 C 176.574219 204.0625 176.003906 203.511719 175.441406 202.859375 C 174.503906 201.808594 173.433594 200.800781 172.132812 199.996094 C 170.65625 199.082031 168.980469 198.496094 167.058594 198.496094 C 165.148438 198.496094 163.511719 199.039062 162.039062 199.9375 C 160.753906 200.71875 159.679688 201.730469 158.679688 202.855469 C 158.132812 203.46875 157.554688 204.027344 156.992188 204.375 C 156.609375 204.613281 156.191406 204.765625 155.734375 204.765625 C 155.269531 204.765625 154.867188 204.628906 154.5 204.410156 C 153.925781 204.058594 153.355469 203.507812 152.792969 202.855469 C 151.855469 201.804688 150.785156 200.796875 149.488281 199.992188 C 148.222656 199.207031 146.816406 198.671875 145.234375 198.53125 C 144.964844 198.507812 144.691406 198.492188 144.410156 198.492188 C 142.398438 198.492188 140.765625 200.125 140.765625 202.136719 C 140.765625 202.488281 140.816406 202.828125 140.910156 203.144531 C 141.347656 204.667969 142.746094 205.78125 144.410156 205.78125 C 144.519531 205.78125 144.632812 205.792969 144.734375 205.808594 C 145.070312 205.863281 145.382812 205.992188 145.671875 206.171875 C 146.234375 206.515625 146.808594 207.082031 147.375 207.695312 C 148.386719 208.828125 149.460938 209.839844 150.71875 210.609375 C 152.191406 211.507812 153.828125 212.050781 155.738281 212.050781 C 157.660156 212.050781 159.328125 211.464844 160.8125 210.550781 C 162.117188 209.746094 163.1875 208.738281 164.121094 207.6875 C 164.707031 207.03125 165.28125 206.472656 165.828125 206.132812 C 166.195312 205.910156 166.59375 205.777344 167.058594 205.777344 C 167.515625 205.777344 167.9375 205.929688 168.320312 206.167969 C 168.882812 206.511719 169.457031 207.074219 170.019531 207.6875 C 171.035156 208.820312 172.105469 209.832031 173.367188 210.605469 C 174.839844 211.503906 176.476562 212.046875 178.386719 212.046875 C 180.308594 212.046875 181.976562 211.460938 183.460938 210.546875 C 184.765625 209.742188 185.832031 208.734375 186.769531 207.683594 C 187.355469 207.027344 187.929688 206.46875 188.476562 206.128906 C 188.84375 205.902344 189.242188 205.773438 189.707031 205.773438 C 190.160156 205.773438 190.582031 205.925781 190.964844 206.160156 C 191.53125 206.503906 192.105469 207.070312 192.667969 207.683594 C 193.683594 208.816406 194.753906 209.832031 196.015625 210.601562 C 197.488281 211.496094 199.125 212.039062 201.035156 212.039062 C 202.957031 212.039062 204.625 211.453125 206.109375 210.539062 C 207.40625 209.734375 208.480469 208.726562 209.414062 207.675781 C 210 207.019531 210.578125 206.460938 211.125 206.121094 C 211.492188 205.898438 211.890625 205.765625 212.355469 205.765625 C 212.808594 205.765625 213.230469 205.921875 213.613281 206.15625 C 214.179688 206.5 214.746094 207.0625 215.3125 207.675781 C 216.324219 208.808594 217.398438 209.828125 218.65625 210.59375 C 220.8125 211.910156 223.015625 211.835938 225.390625 211.070312 C 224.1875 205.761719 223.582031 203.113281 223.582031 203.113281 C 222.019531 201.355469 220.949219 201.128906 220.382812 202.449219 C 219.53125 201.539062 218.570312 200.675781 217.429688 199.976562 C 215.953125 199.0625 214.277344 198.476562 212.355469 198.476562 C 210.445312 198.476562 208.808594 199.015625 207.335938 199.914062 C 206.050781 200.699219 204.976562 201.710938 203.972656 202.832031 C 203.425781 203.445312 202.851562 204.007812 202.289062 204.355469 C 201.90625 204.589844 201.488281 204.742188 201.027344 204.742188 C 200.5625 204.742188 200.164062 204.605469 199.796875 204.386719 C 199.226562 204.0625 198.660156 203.511719 198.089844 202.867188 Z M 198.089844 202.867188 " fill-opacity="1" fill-rule="evenodd"/><path fill="#7fd3ff" d="M 274.5625 128.722656 L 105.953125 128.722656 L 105.953125 81.496094 L 274.5625 81.496094 Z M 104.039062 271.496094 L 104.039062 290.585938 L 274.855469 290.585938 L 274.855469 271.496094 Z M 104.039062 271.496094 " fill-opacity="1" fill-rule="evenodd"/><path fill="#ffffff" d="M 274.855469 279.335938 L 111.078125 279.335938 L 111.078125 291.898438 L 102.554688 291.898438 L 102.554688 273.113281 L 104.039062 273.113281 L 104.039062 271.496094 L 274.855469 271.496094 Z M 111.078125 87.394531 L 174.796875 87.394531 L 174.796875 127.148438 L 183.324219 127.148438 L 183.324219 87.394531 L 274.125 87.394531 L 274.125 79.554688 L 103.304688 79.554688 L 103.304688 83.269531 L 102.554688 83.269531 L 102.554688 127.824219 L 111.082031 127.824219 L 111.082031 87.394531 Z M 111.078125 87.394531 " fill-opacity="1" fill-rule="evenodd"/><path fill="#7fd3ff" d="M 102.554688 132.925781 L 111.082031 132.925781 L 111.082031 271.496094 L 102.554688 271.496094 Z M 224.4375 192.9375 L 224.4375 206.703125 L 251.96875 206.703125 L 251.96875 192.9375 Z M 224.4375 192.9375 " fill-opacity="1" fill-rule="evenodd"/><path fill="#ffffff" d="M 213.417969 162.199219 L 183.4375 244.949219 C 176.910156 244.039062 170.828125 241.726562 165.511719 238.320312 L 195.40625 155.8125 C 201.953125 156.636719 208.0625 158.871094 213.417969 162.199219 Z M 191.433594 155.492188 C 190.863281 155.472656 190.289062 155.460938 189.707031 155.460938 C 188.027344 155.460938 186.363281 155.554688 184.726562 155.734375 L 157.261719 231.550781 L 157.910156 232.214844 C 159.273438 233.578125 160.71875 234.855469 162.246094 236.03125 Z M 220.242188 167.40625 L 192.011719 245.328125 C 194.378906 245.207031 196.699219 244.90625 198.949219 244.433594 L 224.996094 172.539062 C 223.550781 170.707031 221.957031 168.988281 220.242188 167.40625 Z M 220.242188 167.40625 " fill-opacity="0.349" fill-rule="evenodd"/><g clip-path="url(#704bf61005)"><path fill="#0a57a2" d="M 160.929688 95.949219 C 160.929688 97.964844 159.296875 99.59375 157.28125 99.59375 L 121.210938 99.59375 C 119.195312 99.59375 117.566406 97.964844 117.566406 95.949219 C 117.566406 93.933594 119.195312 92.304688 121.210938 92.304688 L 157.277344 92.304688 C 159.296875 92.304688 160.929688 93.933594 160.929688 95.949219 Z M 157.28125 106.886719 L 121.210938 106.886719 C 119.195312 106.886719 117.566406 108.515625 117.566406 110.53125 C 117.566406 112.546875 119.195312 114.175781 121.210938 114.175781 L 157.277344 114.175781 C 159.292969 114.175781 160.921875 112.546875 160.921875 110.53125 C 160.929688 108.515625 159.296875 106.886719 157.28125 106.886719 Z M 152.761719 237.367188 C 143.304688 227.914062 137.453125 214.847656 137.453125 200.425781 C 137.453125 185.996094 143.304688 172.933594 152.761719 163.480469 C 162.214844 154.027344 175.28125 148.175781 189.707031 148.175781 C 202.746094 148.175781 214.6875 152.96875 223.851562 160.890625 C 232.363281 168.25 238.46875 178.316406 240.84375 189.75 L 252.421875 189.75 C 254.4375 189.75 256.070312 191.382812 256.070312 193.394531 L 256.070312 207.464844 C 256.070312 209.476562 254.4375 211.109375 252.421875 211.109375 L 240.84375 211.109375 C 238.46875 222.542969 232.359375 232.609375 223.847656 239.96875 C 214.683594 247.886719 202.742188 252.683594 189.703125 252.683594 C 175.28125 252.671875 162.214844 246.820312 152.761719 237.367188 Z M 227.859375 197.03125 L 227.859375 203.808594 L 237.8125 203.808594 C 237.8125 203.808594 237.816406 203.808594 237.816406 203.808594 L 248.78125 203.808594 L 248.78125 197.03125 Z M 145.25 193.679688 C 146.832031 193.824219 148.234375 194.359375 149.496094 195.136719 C 150.796875 195.933594 151.867188 196.949219 152.804688 198 C 153.375 198.652344 153.941406 199.203125 154.511719 199.554688 C 154.878906 199.777344 155.277344 199.910156 155.742188 199.910156 C 156.199219 199.910156 156.621094 199.757812 157.003906 199.519531 C 157.566406 199.171875 158.140625 198.613281 158.6875 198 C 159.691406 196.878906 160.765625 195.863281 162.050781 195.082031 C 163.523438 194.183594 165.160156 193.640625 167.070312 193.640625 C 168.992188 193.640625 170.660156 194.226562 172.144531 195.140625 C 173.449219 195.941406 174.515625 196.953125 175.453125 198.003906 C 176.019531 198.65625 176.589844 199.207031 177.160156 199.558594 C 177.527344 199.785156 177.925781 199.914062 178.390625 199.914062 C 178.847656 199.914062 179.269531 199.761719 179.652344 199.527344 C 180.214844 199.179688 180.789062 198.617188 181.335938 198.003906 C 182.339844 196.882812 183.410156 195.871094 184.699219 195.085938 C 186.171875 194.1875 187.808594 193.648438 189.71875 193.648438 C 191.640625 193.648438 193.308594 194.234375 194.792969 195.148438 C 196.089844 195.945312 197.164062 196.960938 198.101562 198.011719 C 198.667969 198.660156 199.238281 199.214844 199.8125 199.566406 C 200.179688 199.789062 200.578125 199.921875 201.046875 199.921875 C 201.5 199.921875 201.921875 199.765625 202.304688 199.53125 C 202.867188 199.1875 203.441406 198.625 203.992188 198.011719 C 204.992188 196.886719 206.066406 195.875 207.351562 195.09375 C 208.824219 194.195312 210.460938 193.652344 212.371094 193.652344 C 214.292969 193.652344 215.964844 194.238281 217.445312 195.152344 C 218.671875 195.90625 219.691406 196.855469 220.589844 197.839844 L 220.589844 193.402344 C 220.589844 191.386719 222.21875 189.753906 224.234375 189.753906 L 233.425781 189.753906 C 231.183594 180.527344 226.085938 172.410156 219.121094 166.394531 C 211.25 159.589844 200.972656 155.472656 189.730469 155.472656 C 177.3125 155.472656 166.070312 160.503906 157.933594 168.640625 C 151.277344 175.261719 146.710938 183.964844 145.25 193.679688 Z M 144.757812 200.960938 C 144.898438 213.160156 149.898438 224.199219 157.910156 232.214844 C 166.046875 240.351562 177.292969 245.386719 189.707031 245.386719 C 200.953125 245.386719 211.226562 241.269531 219.101562 234.464844 C 226.0625 228.449219 231.160156 220.332031 233.40625 211.105469 L 224.214844 211.105469 C 222.199219 211.105469 220.566406 209.472656 220.566406 207.457031 L 220.566406 206.675781 C 219.894531 206.441406 219.257812 206.132812 218.652344 205.761719 C 217.390625 204.988281 216.320312 203.976562 215.304688 202.84375 L 215.289062 202.84375 C 214.742188 202.226562 214.167969 201.667969 213.605469 201.320312 C 213.21875 201.085938 212.804688 200.933594 212.34375 200.933594 C 211.878906 200.933594 211.472656 201.070312 211.113281 201.289062 C 210.558594 201.621094 209.992188 202.179688 209.40625 202.84375 C 208.46875 203.890625 207.394531 204.902344 206.097656 205.707031 C 204.621094 206.621094 202.945312 207.207031 201.023438 207.207031 C 199.113281 207.207031 197.476562 206.664062 196.003906 205.765625 C 194.742188 204.996094 193.671875 203.980469 192.660156 202.847656 L 192.640625 202.847656 C 192.09375 202.230469 191.519531 201.671875 190.957031 201.328125 C 190.574219 201.09375 190.15625 200.9375 189.695312 200.9375 C 189.230469 200.9375 188.828125 201.074219 188.464844 201.292969 C 187.910156 201.628906 187.34375 202.1875 186.757812 202.847656 C 185.820312 203.894531 184.753906 204.90625 183.449219 205.710938 C 181.972656 206.625 180.296875 207.210938 178.375 207.210938 C 176.464844 207.210938 174.828125 206.667969 173.355469 205.773438 C 172.097656 205 171.023438 203.988281 170.011719 202.855469 L 169.992188 202.855469 C 169.445312 202.234375 168.871094 201.675781 168.308594 201.332031 C 167.925781 201.097656 167.507812 200.945312 167.050781 200.945312 C 166.582031 200.945312 166.183594 201.082031 165.816406 201.300781 C 165.265625 201.632812 164.695312 202.191406 164.109375 202.855469 C 163.171875 203.898438 162.101562 204.914062 160.800781 205.71875 C 159.324219 206.632812 157.648438 207.21875 155.726562 207.21875 C 153.816406 207.21875 152.179688 206.675781 150.707031 205.777344 C 149.449219 205.003906 148.375 203.992188 147.363281 202.859375 L 147.347656 202.859375 C 146.800781 202.242188 146.222656 201.683594 145.660156 201.339844 C 145.398438 201.140625 145.085938 201.011719 144.757812 200.960938 Z M 209.1875 107.023438 C 207.171875 107.023438 205.539062 108.652344 205.539062 110.667969 L 205.539062 110.980469 C 205.539062 112.996094 207.171875 114.625 209.1875 114.625 C 211.199219 114.625 212.832031 112.996094 212.832031 110.980469 L 212.832031 110.667969 C 212.828125 108.652344 211.195312 107.023438 209.1875 107.023438 Z M 258.59375 95.46875 C 260.53125 97.519531 261.71875 100.285156 261.71875 103.3125 C 261.71875 106.46875 260.4375 109.332031 258.367188 111.402344 C 256.300781 113.46875 253.4375 114.75 250.277344 114.75 C 247.128906 114.75 244.269531 113.464844 242.195312 111.390625 C 240.121094 109.328125 238.835938 106.46875 238.835938 103.3125 C 238.835938 100.152344 240.117188 97.289062 242.1875 95.21875 L 242.425781 94.996094 C 244.480469 93.058594 247.242188 91.863281 250.269531 91.863281 C 253.429688 91.863281 256.292969 93.144531 258.363281 95.214844 Z M 254.433594 103.304688 C 254.433594 102.222656 254.027344 101.238281 253.363281 100.507812 L 253.214844 100.367188 C 252.464844 99.617188 251.425781 99.152344 250.277344 99.152344 C 249.191406 99.152344 248.207031 99.554688 247.472656 100.222656 L 247.34375 100.367188 C 246.59375 101.117188 246.128906 102.15625 246.128906 103.304688 C 246.128906 104.449219 246.59375 105.496094 247.34375 106.246094 L 247.34375 106.261719 C 248.082031 107.007812 249.121094 107.464844 250.28125 107.464844 C 251.425781 107.464844 252.472656 107 253.222656 106.25 C 253.964844 105.496094 254.433594 104.449219 254.433594 103.304688 Z M 279.695312 87.175781 L 279.695312 291.078125 C 279.695312 293.09375 278.066406 294.722656 276.050781 294.722656 L 103.371094 294.722656 C 101.355469 294.71875 99.722656 293.085938 99.722656 291.074219 L 99.722656 87.175781 C 99.722656 84.042969 101.011719 81.191406 103.074219 79.128906 L 103.089844 79.109375 C 105.15625 77.046875 108.007812 75.761719 111.136719 75.761719 L 268.28125 75.761719 C 271.414062 75.761719 274.265625 77.046875 276.328125 79.109375 L 276.347656 79.128906 C 278.410156 81.191406 279.695312 84.042969 279.695312 87.175781 Z M 107.015625 125.640625 L 171.484375 125.640625 L 171.484375 83.050781 L 111.136719 83.050781 C 110 83.050781 108.96875 83.515625 108.21875 84.257812 C 107.476562 85.007812 107.015625 86.035156 107.015625 87.175781 Z M 272.410156 274.597656 L 107.015625 274.597656 L 107.015625 287.425781 L 272.410156 287.425781 Z M 272.410156 132.925781 L 107.015625 132.925781 L 107.015625 267.308594 L 272.410156 267.308594 Z M 272.410156 87.175781 C 272.410156 86.035156 271.945312 85.007812 271.207031 84.257812 C 270.457031 83.511719 269.425781 83.050781 268.289062 83.050781 L 178.769531 83.050781 L 178.769531 125.640625 L 272.40625 125.640625 L 272.40625 87.175781 Z M 193.554688 107.023438 C 191.542969 107.023438 189.910156 108.652344 189.910156 110.667969 L 189.910156 110.980469 C 189.910156 112.996094 191.542969 114.625 193.554688 114.625 C 195.570312 114.625 197.203125 112.996094 197.203125 110.980469 L 197.203125 110.667969 C 197.203125 108.652344 195.566406 107.023438 193.554688 107.023438 Z M 224.808594 91.726562 C 222.796875 91.726562 221.164062 93.359375 221.164062 95.375 L 221.164062 95.6875 C 221.164062 97.699219 222.796875 99.332031 224.808594 99.332031 C 226.824219 99.332031 228.457031 97.699219 228.457031 95.6875 L 228.457031 95.375 C 228.457031 93.363281 226.824219 91.726562 224.808594 91.726562 Z M 193.554688 91.726562 C 191.542969 91.726562 189.910156 93.359375 189.910156 95.375 L 189.910156 95.6875 C 189.910156 97.699219 191.542969 99.332031 193.554688 99.332031 C 195.570312 99.332031 197.203125 97.699219 197.203125 95.6875 L 197.203125 95.375 C 197.203125 93.363281 195.566406 91.726562 193.554688 91.726562 Z M 209.1875 91.726562 C 207.171875 91.726562 205.539062 93.359375 205.539062 95.375 L 205.539062 95.6875 C 205.539062 97.699219 207.171875 99.332031 209.1875 99.332031 C 211.199219 99.332031 212.832031 97.699219 212.832031 95.6875 L 212.832031 95.375 C 212.828125 93.363281 211.195312 91.726562 209.1875 91.726562 Z M 224.808594 107.023438 C 222.796875 107.023438 221.164062 108.652344 221.164062 110.667969 L 221.164062 110.980469 C 221.164062 112.996094 222.796875 114.625 224.808594 114.625 C 226.824219 114.625 228.457031 112.996094 228.457031 110.980469 L 228.457031 110.667969 C 228.457031 108.652344 226.824219 107.023438 224.808594 107.023438 Z M 224.808594 107.023438 " fill-opacity="1" fill-rule="nonzero"/></g></svg>