<svg xmlns="http://www.w3.org/2000/svg" xmlns:xlink="http://www.w3.org/1999/xlink" width="500" zoomAndPan="magnify" viewBox="0 0 375 225" height="300" preserveAspectRatio="xMidYMid meet" version="1.0"><defs><g/><clipPath id="d8883bd544"><path d="M 66 18.6875 L 112 18.6875 L 112 76 L 66 76 Z M 66 18.6875 " clip-rule="nonzero"/></clipPath><clipPath id="34dbd67490"><path d="M 5 67 L 172.988281 67 L 172.988281 130 L 5 130 Z M 5 67 " clip-rule="nonzero"/></clipPath><clipPath id="5bb89c2189"><path d="M 35 100 L 143 100 L 143 206.1875 L 35 206.1875 Z M 35 100 " clip-rule="nonzero"/></clipPath><clipPath id="34b5673b4a"><path d="M 238 169 L 344.335938 169 L 344.335938 182.847656 L 238 182.847656 Z M 238 169 " clip-rule="nonzero"/></clipPath><clipPath id="4aaea24fda"><path d="M 204.835938 155.847656 L 311 155.847656 L 311 169 L 204.835938 169 Z M 204.835938 155.847656 " clip-rule="nonzero"/></clipPath></defs><path fill="#38b6ff" d="M 65.5625 138.828125 C 70.171875 138.828125 74.816406 139.90625 79.765625 142.121094 C 83.859375 143.953125 87.675781 146.328125 91.367188 148.628906 C 98.125 152.835938 104.511719 156.816406 111.527344 156.816406 C 116.964844 156.816406 122.695312 154.425781 129.042969 149.515625 L 132.011719 147.222656 C 128.589844 126.984375 110.960938 111.574219 89.730469 111.574219 C 69.65625 111.574219 52.808594 125.351562 48.136719 143.953125 C 54.015625 140.511719 59.753906 138.828125 65.5625 138.828125 " fill-opacity="1" fill-rule="nonzero"/><g clip-path="url(#d8883bd544)"><path fill="#004aad" d="M 88.980469 75.171875 C 87.125 75.171875 85.625 73.671875 85.625 71.820312 L 85.625 56.992188 L 88.980469 56.992188 C 97.6875 56.992188 104.769531 49.917969 104.769531 41.21875 C 104.769531 32.523438 97.6875 25.449219 88.980469 25.449219 C 80.273438 25.449219 73.191406 32.523438 73.191406 41.21875 C 73.191406 43.074219 71.6875 44.570312 69.835938 44.570312 C 67.980469 44.570312 66.480469 43.074219 66.480469 41.21875 C 66.480469 28.828125 76.574219 18.746094 88.980469 18.746094 C 101.386719 18.746094 111.480469 28.828125 111.480469 41.21875 C 111.480469 52.476562 103.15625 61.820312 92.335938 63.445312 L 92.335938 71.820312 C 92.335938 73.671875 90.832031 75.171875 88.980469 75.171875 " fill-opacity="1" fill-rule="nonzero"/></g><g clip-path="url(#34dbd67490)"><path fill="#004aad" d="M 163.507812 129.179688 L 128.597656 129.179688 L 128.597656 121.640625 L 163.507812 121.640625 C 163.917969 121.640625 164.453125 121.488281 164.648438 120.761719 C 164.753906 120.363281 164.746094 119.808594 164.097656 119.433594 L 88.980469 76.113281 L 13.863281 119.433594 C 13.503906 119.640625 13.117188 120.039062 13.308594 120.761719 C 13.417969 121.164062 13.703125 121.640625 14.453125 121.640625 L 47.5625 121.640625 L 47.5625 129.179688 L 14.453125 129.179688 C 10.445312 129.179688 7.054688 126.582031 6.019531 122.714844 C 4.980469 118.847656 6.617188 114.902344 10.085938 112.902344 L 88.980469 67.402344 L 167.871094 112.902344 C 171.34375 114.902344 172.980469 118.847656 171.941406 122.714844 C 170.902344 126.582031 167.511719 129.179688 163.507812 129.179688 " fill-opacity="1" fill-rule="nonzero"/></g><g clip-path="url(#5bb89c2189)"><path fill="#004aad" d="M 138.324219 153.070312 L 134.550781 153.070312 C 134.550781 159.363281 133.273438 165.34375 130.96875 170.785156 C 127.515625 178.949219 121.730469 185.910156 114.457031 190.816406 C 110.816406 193.269531 106.808594 195.214844 102.53125 196.542969 C 98.253906 197.871094 93.707031 198.589844 88.980469 198.589844 C 82.675781 198.589844 76.691406 197.316406 71.242188 195.011719 C 63.070312 191.5625 56.105469 185.785156 51.191406 178.519531 C 48.734375 174.882812 46.789062 170.878906 45.457031 166.605469 C 44.128906 162.332031 43.410156 157.792969 43.410156 153.070312 C 43.410156 146.773438 44.683594 140.796875 46.988281 135.351562 C 50.445312 127.1875 56.226562 120.230469 63.503906 115.324219 C 67.140625 112.867188 71.148438 110.925781 75.425781 109.597656 C 79.703125 108.265625 84.25 107.550781 88.980469 107.550781 C 95.28125 107.550781 101.265625 108.824219 106.714844 111.125 C 114.886719 114.578125 121.855469 120.355469 126.769531 127.621094 C 129.226562 131.257812 131.167969 135.261719 132.5 139.53125 C 133.832031 143.804688 134.550781 148.347656 134.550781 153.070312 L 142.097656 153.070312 C 142.097656 145.753906 140.613281 138.765625 137.921875 132.414062 C 133.886719 122.886719 127.160156 114.792969 118.683594 109.074219 C 114.445312 106.210938 109.765625 103.945312 104.773438 102.394531 C 99.78125 100.84375 94.472656 100.007812 88.980469 100.007812 C 81.65625 100.007812 74.660156 101.492188 68.300781 104.179688 C 58.761719 108.210938 50.660156 114.933594 44.933594 123.402344 C 42.070312 127.632812 39.800781 132.304688 38.25 137.292969 C 36.695312 142.277344 35.859375 147.582031 35.859375 153.070312 C 35.859375 160.386719 37.347656 167.375 40.035156 173.726562 C 44.070312 183.253906 50.800781 191.347656 59.277344 197.066406 C 63.515625 199.925781 68.191406 202.191406 73.183594 203.746094 C 78.175781 205.296875 83.488281 206.128906 88.980469 206.128906 C 96.304688 206.128906 103.300781 204.644531 109.65625 201.960938 C 119.195312 197.929688 127.296875 191.207031 133.023438 182.738281 C 135.886719 178.507812 138.15625 173.835938 139.710938 168.847656 C 141.265625 163.859375 142.097656 158.554688 142.097656 153.070312 L 138.324219 153.070312 " fill-opacity="1" fill-rule="nonzero"/></g><path fill="#38b6ff" d="M 88.980469 190.820312 C 78.886719 190.820312 69.394531 186.894531 62.257812 179.761719 C 55.121094 172.632812 51.1875 163.152344 51.1875 153.070312 C 51.1875 150.988281 52.878906 149.300781 54.964844 149.300781 C 57.046875 149.300781 58.738281 150.988281 58.738281 153.070312 C 58.738281 169.726562 72.304688 183.277344 88.980469 183.277344 C 91.066406 183.277344 92.753906 184.964844 92.753906 187.046875 C 92.753906 189.128906 91.066406 190.820312 88.980469 190.820312 " fill-opacity="1" fill-rule="nonzero"/><g clip-path="url(#34b5673b4a)"><path fill="#50abe4" d="M 238.570312 175.890625 C 238.570312 175.890625 238.996094 175.824219 239.792969 175.695312 C 240.585938 175.570312 241.742188 175.34375 243.191406 175.011719 C 244.644531 174.679688 246.386719 174.210938 248.371094 173.601562 C 250.359375 173.007812 252.585938 172.25 255.171875 171.621094 C 256.464844 171.3125 257.855469 171.0625 259.347656 170.949219 C 260.839844 170.839844 262.4375 170.910156 264.042969 171.222656 C 265.652344 171.527344 267.246094 172.105469 268.769531 172.839844 C 269.53125 173.210938 270.273438 173.625 270.992188 174.082031 C 271.324219 174.285156 271.65625 174.488281 271.992188 174.691406 C 272.167969 174.804688 272.316406 174.878906 272.476562 174.96875 C 272.636719 175.058594 272.792969 175.148438 272.953125 175.238281 C 274.269531 175.953125 275.644531 176.582031 277.0625 177.058594 C 278.480469 177.542969 279.945312 177.863281 281.4375 178.019531 C 284.425781 178.320312 287.542969 177.910156 290.667969 177.039062 C 292.234375 176.628906 293.804688 176.117188 295.371094 175.554688 C 296.933594 174.988281 298.503906 174.410156 300.0625 173.796875 C 300.464844 173.644531 300.871094 173.496094 301.273438 173.34375 L 301.863281 173.121094 L 302.15625 173.011719 L 302.46875 172.90625 C 303.304688 172.628906 304.132812 172.34375 304.953125 172.109375 C 305.769531 171.855469 306.597656 171.640625 307.417969 171.425781 C 307.824219 171.3125 308.242188 171.230469 308.648438 171.136719 C 309.0625 171.046875 309.46875 170.949219 309.878906 170.878906 C 313.15625 170.222656 316.402344 169.941406 319.464844 170.003906 C 322.53125 170.0625 325.402344 170.460938 327.976562 171.035156 C 330.554688 171.601562 332.84375 172.335938 334.832031 173.035156 C 336.824219 173.742188 338.523438 174.414062 339.921875 174.96875 C 341.320312 175.519531 342.414062 175.96875 343.167969 176.253906 C 343.921875 176.546875 344.324219 176.703125 344.324219 176.703125 C 344.324219 176.703125 344.214844 176.6875 344.011719 176.660156 C 343.804688 176.628906 343.496094 176.589844 343.097656 176.523438 C 342.304688 176.386719 341.132812 176.195312 339.65625 175.894531 C 338.179688 175.605469 336.394531 175.222656 334.359375 174.828125 C 333.339844 174.636719 332.261719 174.425781 331.121094 174.253906 C 330.550781 174.164062 329.964844 174.082031 329.371094 173.996094 C 328.773438 173.921875 328.164062 173.839844 327.539062 173.785156 C 326.917969 173.71875 326.28125 173.671875 325.636719 173.621094 C 324.988281 173.585938 324.332031 173.546875 323.664062 173.539062 C 322.328125 173.511719 320.949219 173.511719 319.542969 173.621094 C 316.722656 173.800781 313.78125 174.277344 310.796875 175.042969 C 309.308594 175.4375 307.800781 175.871094 306.296875 176.398438 C 305.539062 176.648438 304.804688 176.9375 304.066406 177.21875 L 303.785156 177.320312 L 303.496094 177.4375 L 302.910156 177.671875 C 302.53125 177.828125 302.152344 177.980469 301.769531 178.136719 C 298.632812 179.453125 295.375 180.742188 291.890625 181.695312 C 291.019531 181.933594 290.128906 182.128906 289.234375 182.308594 C 288.332031 182.476562 287.421875 182.625 286.496094 182.71875 C 286.269531 182.746094 286.035156 182.761719 285.804688 182.78125 C 285.570312 182.792969 285.339844 182.820312 285.105469 182.828125 C 284.640625 182.84375 284.175781 182.859375 283.707031 182.847656 C 283.238281 182.851562 282.769531 182.820312 282.304688 182.796875 C 282.070312 182.785156 281.839844 182.757812 281.605469 182.738281 C 281.375 182.714844 281.140625 182.695312 280.910156 182.660156 L 280.214844 182.5625 L 279.53125 182.4375 C 279.300781 182.398438 279.074219 182.355469 278.847656 182.300781 L 278.171875 182.140625 C 277.28125 181.898438 276.402344 181.628906 275.5625 181.296875 C 273.875 180.648438 272.296875 179.847656 270.835938 178.929688 C 270.652344 178.808594 270.46875 178.691406 270.285156 178.574219 C 270.105469 178.457031 269.902344 178.332031 269.75 178.222656 C 269.414062 177.988281 269.082031 177.757812 268.75 177.53125 C 268.15625 177.109375 267.554688 176.714844 266.949219 176.359375 C 265.734375 175.648438 264.488281 175.113281 263.230469 174.75 C 260.71875 174.011719 258.113281 174.070312 255.648438 174.367188 C 254.414062 174.503906 253.214844 174.707031 252.0625 174.890625 C 250.910156 175.074219 249.808594 175.269531 248.765625 175.414062 C 246.679688 175.726562 244.835938 175.90625 243.320312 175.96875 C 242.5625 176.007812 241.886719 176.019531 241.296875 176.011719 C 240.710938 176.003906 240.210938 175.988281 239.808594 175.972656 C 239.402344 175.957031 239.09375 175.933594 238.886719 175.914062 C 238.679688 175.898438 238.570312 175.890625 238.570312 175.890625 " fill-opacity="1" fill-rule="nonzero"/></g><g clip-path="url(#4aaea24fda)"><path fill="#50abe4" d="M 310.617188 162.820312 C 310.617188 162.820312 310.191406 162.890625 309.398438 163.015625 C 308.601562 163.140625 307.445312 163.367188 305.996094 163.699219 C 304.542969 164.035156 302.804688 164.503906 300.816406 165.109375 C 298.828125 165.703125 296.601562 166.460938 294.019531 167.089844 C 292.726562 167.398438 291.332031 167.652344 289.839844 167.765625 C 288.347656 167.871094 286.75 167.800781 285.144531 167.488281 C 283.535156 167.1875 281.941406 166.609375 280.421875 165.871094 C 279.660156 165.5 278.914062 165.085938 278.195312 164.628906 C 277.863281 164.429688 277.53125 164.226562 277.195312 164.019531 C 277.019531 163.910156 276.875 163.835938 276.710938 163.742188 C 276.554688 163.652344 276.394531 163.5625 276.234375 163.472656 C 274.917969 162.757812 273.542969 162.128906 272.125 161.652344 C 270.707031 161.171875 269.242188 160.847656 267.75 160.691406 C 264.761719 160.390625 261.644531 160.804688 258.519531 161.671875 C 256.953125 162.082031 255.382812 162.597656 253.816406 163.15625 C 252.253906 163.722656 250.683594 164.304688 249.128906 164.914062 C 248.722656 165.066406 248.320312 165.21875 247.914062 165.371094 L 247.328125 165.589844 L 247.03125 165.699219 L 246.71875 165.804688 C 245.882812 166.082031 245.054688 166.367188 244.234375 166.601562 C 243.417969 166.859375 242.589844 167.070312 241.769531 167.285156 C 241.363281 167.398438 240.949219 167.480469 240.539062 167.574219 C 240.125 167.667969 239.71875 167.761719 239.308594 167.832031 C 236.03125 168.488281 232.785156 168.769531 229.722656 168.710938 C 226.65625 168.648438 223.785156 168.25 221.210938 167.675781 C 218.632812 167.109375 216.34375 166.375 214.355469 165.675781 C 212.363281 164.972656 210.664062 164.300781 209.265625 163.746094 C 207.867188 163.195312 206.773438 162.746094 206.019531 162.457031 C 205.265625 162.164062 204.863281 162.007812 204.863281 162.007812 C 204.863281 162.007812 204.972656 162.023438 205.179688 162.054688 C 205.382812 162.085938 205.691406 162.125 206.089844 162.191406 C 206.886719 162.328125 208.058594 162.519531 209.53125 162.816406 C 211.007812 163.109375 212.792969 163.488281 214.828125 163.882812 C 215.847656 164.074219 216.929688 164.285156 218.066406 164.457031 C 218.636719 164.550781 219.222656 164.628906 219.816406 164.714844 C 220.414062 164.789062 221.023438 164.871094 221.648438 164.925781 C 222.269531 164.992188 222.90625 165.039062 223.550781 165.089844 C 224.199219 165.125 224.855469 165.164062 225.523438 165.175781 C 226.859375 165.199219 228.238281 165.199219 229.648438 165.089844 C 232.464844 164.910156 235.40625 164.433594 238.390625 163.671875 C 239.878906 163.277344 241.386719 162.84375 242.890625 162.3125 C 243.652344 162.0625 244.382812 161.773438 245.121094 161.496094 L 245.402344 161.390625 L 245.691406 161.273438 L 246.277344 161.039062 C 246.65625 160.886719 247.035156 160.730469 247.417969 160.578125 C 250.554688 159.261719 253.8125 157.96875 257.300781 157.015625 C 258.167969 156.78125 259.058594 156.582031 259.957031 156.402344 C 260.855469 156.234375 261.765625 156.085938 262.691406 155.996094 C 262.917969 155.964844 263.152344 155.953125 263.382812 155.933594 C 263.617188 155.917969 263.847656 155.890625 264.082031 155.886719 C 264.546875 155.867188 265.011719 155.851562 265.480469 155.863281 C 265.949219 155.859375 266.417969 155.890625 266.882812 155.914062 C 267.117188 155.929688 267.347656 155.953125 267.582031 155.976562 C 267.816406 155.996094 268.046875 156.019531 268.277344 156.054688 L 268.972656 156.148438 L 269.660156 156.273438 C 269.886719 156.3125 270.113281 156.359375 270.339844 156.414062 L 271.015625 156.570312 C 271.90625 156.816406 272.785156 157.082031 273.625 157.414062 C 275.316406 158.066406 276.894531 158.867188 278.351562 159.785156 C 278.535156 159.902344 278.71875 160.019531 278.902344 160.140625 C 279.082031 160.257812 279.285156 160.378906 279.441406 160.492188 C 279.773438 160.722656 280.105469 160.953125 280.4375 161.183594 C 281.03125 161.605469 281.632812 161.996094 282.238281 162.351562 C 283.453125 163.0625 284.699219 163.601562 285.957031 163.964844 C 288.472656 164.703125 291.074219 164.640625 293.539062 164.347656 C 294.773438 164.207031 295.972656 164.003906 297.125 163.820312 C 298.277344 163.636719 299.378906 163.445312 300.421875 163.296875 C 302.507812 162.988281 304.351562 162.808594 305.867188 162.742188 C 306.625 162.707031 307.300781 162.695312 307.890625 162.703125 C 308.476562 162.707031 308.976562 162.722656 309.382812 162.738281 C 309.785156 162.757812 310.09375 162.78125 310.300781 162.796875 C 310.511719 162.8125 310.617188 162.820312 310.617188 162.820312 " fill-opacity="1" fill-rule="nonzero"/></g><g fill="#a6a6a6" fill-opacity="0.4"><g transform="translate(230.980522, 71.769602)"><g><path d="M 25.625 -21.328125 L 25.625 0 L 23.453125 0 L 23.453125 -17.0625 L 15.078125 -2.71875 L 14.015625 -2.71875 L 5.640625 -16.96875 L 5.640625 0 L 3.46875 0 L 3.46875 -21.328125 L 5.328125 -21.328125 L 14.59375 -5.515625 L 23.765625 -21.328125 Z M 25.625 -21.328125 "/></g></g></g><g fill="#a6a6a6" fill-opacity="0.4"><g transform="translate(261.602138, 71.769602)"><g><path d="M 3.46875 -21.328125 L 5.734375 -21.328125 L 5.734375 0 L 3.46875 0 Z M 3.46875 -21.328125 "/></g></g></g><g fill="#a6a6a6" fill-opacity="0.4"><g transform="translate(272.327617, 71.769602)"><g><path d="M 9.359375 0.1875 C 7.773438 0.1875 6.253906 -0.0664062 4.796875 -0.578125 C 3.347656 -1.085938 2.226562 -1.757812 1.4375 -2.59375 L 2.3125 -4.328125 C 3.082031 -3.554688 4.109375 -2.929688 5.390625 -2.453125 C 6.671875 -1.972656 7.992188 -1.734375 9.359375 -1.734375 C 11.265625 -1.734375 12.691406 -2.082031 13.640625 -2.78125 C 14.597656 -3.488281 15.078125 -4.398438 15.078125 -5.515625 C 15.078125 -6.367188 14.816406 -7.046875 14.296875 -7.546875 C 13.785156 -8.054688 13.148438 -8.445312 12.390625 -8.71875 C 11.640625 -9 10.597656 -9.300781 9.265625 -9.625 C 7.660156 -10.03125 6.378906 -10.421875 5.421875 -10.796875 C 4.460938 -11.171875 3.644531 -11.742188 2.96875 -12.515625 C 2.289062 -13.296875 1.953125 -14.34375 1.953125 -15.65625 C 1.953125 -16.738281 2.234375 -17.71875 2.796875 -18.59375 C 3.367188 -19.476562 4.242188 -20.1875 5.421875 -20.71875 C 6.597656 -21.25 8.0625 -21.515625 9.8125 -21.515625 C 11.03125 -21.515625 12.222656 -21.34375 13.390625 -21 C 14.554688 -20.664062 15.566406 -20.207031 16.421875 -19.625 L 15.65625 -17.828125 C 14.757812 -18.410156 13.800781 -18.847656 12.78125 -19.140625 C 11.769531 -19.441406 10.78125 -19.59375 9.8125 -19.59375 C 7.9375 -19.59375 6.523438 -19.226562 5.578125 -18.5 C 4.640625 -17.78125 4.171875 -16.851562 4.171875 -15.71875 C 4.171875 -14.863281 4.429688 -14.175781 4.953125 -13.65625 C 5.472656 -13.144531 6.125 -12.75 6.90625 -12.46875 C 7.6875 -12.195312 8.734375 -11.898438 10.046875 -11.578125 C 11.617188 -11.191406 12.882812 -10.8125 13.84375 -10.4375 C 14.8125 -10.0625 15.628906 -9.492188 16.296875 -8.734375 C 16.972656 -7.972656 17.3125 -6.941406 17.3125 -5.640625 C 17.3125 -4.554688 17.019531 -3.570312 16.4375 -2.6875 C 15.851562 -1.8125 14.960938 -1.113281 13.765625 -0.59375 C 12.566406 -0.0703125 11.097656 0.1875 9.359375 0.1875 Z M 9.359375 0.1875 "/></g></g></g><g fill="#a6a6a6" fill-opacity="0.4"><g transform="translate(292.589833, 71.769602)"><g><path d="M 9.359375 0.1875 C 7.773438 0.1875 6.253906 -0.0664062 4.796875 -0.578125 C 3.347656 -1.085938 2.226562 -1.757812 1.4375 -2.59375 L 2.3125 -4.328125 C 3.082031 -3.554688 4.109375 -2.929688 5.390625 -2.453125 C 6.671875 -1.972656 7.992188 -1.734375 9.359375 -1.734375 C 11.265625 -1.734375 12.691406 -2.082031 13.640625 -2.78125 C 14.597656 -3.488281 15.078125 -4.398438 15.078125 -5.515625 C 15.078125 -6.367188 14.816406 -7.046875 14.296875 -7.546875 C 13.785156 -8.054688 13.148438 -8.445312 12.390625 -8.71875 C 11.640625 -9 10.597656 -9.300781 9.265625 -9.625 C 7.660156 -10.03125 6.378906 -10.421875 5.421875 -10.796875 C 4.460938 -11.171875 3.644531 -11.742188 2.96875 -12.515625 C 2.289062 -13.296875 1.953125 -14.34375 1.953125 -15.65625 C 1.953125 -16.738281 2.234375 -17.71875 2.796875 -18.59375 C 3.367188 -19.476562 4.242188 -20.1875 5.421875 -20.71875 C 6.597656 -21.25 8.0625 -21.515625 9.8125 -21.515625 C 11.03125 -21.515625 12.222656 -21.34375 13.390625 -21 C 14.554688 -20.664062 15.566406 -20.207031 16.421875 -19.625 L 15.65625 -17.828125 C 14.757812 -18.410156 13.800781 -18.847656 12.78125 -19.140625 C 11.769531 -19.441406 10.78125 -19.59375 9.8125 -19.59375 C 7.9375 -19.59375 6.523438 -19.226562 5.578125 -18.5 C 4.640625 -17.78125 4.171875 -16.851562 4.171875 -15.71875 C 4.171875 -14.863281 4.429688 -14.175781 4.953125 -13.65625 C 5.472656 -13.144531 6.125 -12.75 6.90625 -12.46875 C 7.6875 -12.195312 8.734375 -11.898438 10.046875 -11.578125 C 11.617188 -11.191406 12.882812 -10.8125 13.84375 -10.4375 C 14.8125 -10.0625 15.628906 -9.492188 16.296875 -8.734375 C 16.972656 -7.972656 17.3125 -6.941406 17.3125 -5.640625 C 17.3125 -4.554688 17.019531 -3.570312 16.4375 -2.6875 C 15.851562 -1.8125 14.960938 -1.113281 13.765625 -0.59375 C 12.566406 -0.0703125 11.097656 0.1875 9.359375 0.1875 Z M 9.359375 0.1875 "/></g></g></g><g fill="#0071bc" fill-opacity="1"><g transform="translate(229.633584, 70.42266)"><g><path d="M 25.625 -21.328125 L 25.625 0 L 23.453125 0 L 23.453125 -17.0625 L 15.078125 -2.71875 L 14.015625 -2.71875 L 5.640625 -16.96875 L 5.640625 0 L 3.46875 0 L 3.46875 -21.328125 L 5.328125 -21.328125 L 14.59375 -5.515625 L 23.765625 -21.328125 Z M 25.625 -21.328125 "/></g></g></g><g fill="#0071bc" fill-opacity="1"><g transform="translate(260.2552, 70.42266)"><g><path d="M 3.46875 -21.328125 L 5.734375 -21.328125 L 5.734375 0 L 3.46875 0 Z M 3.46875 -21.328125 "/></g></g></g><g fill="#0071bc" fill-opacity="1"><g transform="translate(270.98068, 70.42266)"><g><path d="M 9.359375 0.1875 C 7.773438 0.1875 6.253906 -0.0664062 4.796875 -0.578125 C 3.347656 -1.085938 2.226562 -1.757812 1.4375 -2.59375 L 2.3125 -4.328125 C 3.082031 -3.554688 4.109375 -2.929688 5.390625 -2.453125 C 6.671875 -1.972656 7.992188 -1.734375 9.359375 -1.734375 C 11.265625 -1.734375 12.691406 -2.082031 13.640625 -2.78125 C 14.597656 -3.488281 15.078125 -4.398438 15.078125 -5.515625 C 15.078125 -6.367188 14.816406 -7.046875 14.296875 -7.546875 C 13.785156 -8.054688 13.148438 -8.445312 12.390625 -8.71875 C 11.640625 -9 10.597656 -9.300781 9.265625 -9.625 C 7.660156 -10.03125 6.378906 -10.421875 5.421875 -10.796875 C 4.460938 -11.171875 3.644531 -11.742188 2.96875 -12.515625 C 2.289062 -13.296875 1.953125 -14.34375 1.953125 -15.65625 C 1.953125 -16.738281 2.234375 -17.71875 2.796875 -18.59375 C 3.367188 -19.476562 4.242188 -20.1875 5.421875 -20.71875 C 6.597656 -21.25 8.0625 -21.515625 9.8125 -21.515625 C 11.03125 -21.515625 12.222656 -21.34375 13.390625 -21 C 14.554688 -20.664062 15.566406 -20.207031 16.421875 -19.625 L 15.65625 -17.828125 C 14.757812 -18.410156 13.800781 -18.847656 12.78125 -19.140625 C 11.769531 -19.441406 10.78125 -19.59375 9.8125 -19.59375 C 7.9375 -19.59375 6.523438 -19.226562 5.578125 -18.5 C 4.640625 -17.78125 4.171875 -16.851562 4.171875 -15.71875 C 4.171875 -14.863281 4.429688 -14.175781 4.953125 -13.65625 C 5.472656 -13.144531 6.125 -12.75 6.90625 -12.46875 C 7.6875 -12.195312 8.734375 -11.898438 10.046875 -11.578125 C 11.617188 -11.191406 12.882812 -10.8125 13.84375 -10.4375 C 14.8125 -10.0625 15.628906 -9.492188 16.296875 -8.734375 C 16.972656 -7.972656 17.3125 -6.941406 17.3125 -5.640625 C 17.3125 -4.554688 17.019531 -3.570312 16.4375 -2.6875 C 15.851562 -1.8125 14.960938 -1.113281 13.765625 -0.59375 C 12.566406 -0.0703125 11.097656 0.1875 9.359375 0.1875 Z M 9.359375 0.1875 "/></g></g></g><g fill="#0071bc" fill-opacity="1"><g transform="translate(291.242896, 70.42266)"><g><path d="M 9.359375 0.1875 C 7.773438 0.1875 6.253906 -0.0664062 4.796875 -0.578125 C 3.347656 -1.085938 2.226562 -1.757812 1.4375 -2.59375 L 2.3125 -4.328125 C 3.082031 -3.554688 4.109375 -2.929688 5.390625 -2.453125 C 6.671875 -1.972656 7.992188 -1.734375 9.359375 -1.734375 C 11.265625 -1.734375 12.691406 -2.082031 13.640625 -2.78125 C 14.597656 -3.488281 15.078125 -4.398438 15.078125 -5.515625 C 15.078125 -6.367188 14.816406 -7.046875 14.296875 -7.546875 C 13.785156 -8.054688 13.148438 -8.445312 12.390625 -8.71875 C 11.640625 -9 10.597656 -9.300781 9.265625 -9.625 C 7.660156 -10.03125 6.378906 -10.421875 5.421875 -10.796875 C 4.460938 -11.171875 3.644531 -11.742188 2.96875 -12.515625 C 2.289062 -13.296875 1.953125 -14.34375 1.953125 -15.65625 C 1.953125 -16.738281 2.234375 -17.71875 2.796875 -18.59375 C 3.367188 -19.476562 4.242188 -20.1875 5.421875 -20.71875 C 6.597656 -21.25 8.0625 -21.515625 9.8125 -21.515625 C 11.03125 -21.515625 12.222656 -21.34375 13.390625 -21 C 14.554688 -20.664062 15.566406 -20.207031 16.421875 -19.625 L 15.65625 -17.828125 C 14.757812 -18.410156 13.800781 -18.847656 12.78125 -19.140625 C 11.769531 -19.441406 10.78125 -19.59375 9.8125 -19.59375 C 7.9375 -19.59375 6.523438 -19.226562 5.578125 -18.5 C 4.640625 -17.78125 4.171875 -16.851562 4.171875 -15.71875 C 4.171875 -14.863281 4.429688 -14.175781 4.953125 -13.65625 C 5.472656 -13.144531 6.125 -12.75 6.90625 -12.46875 C 7.6875 -12.195312 8.734375 -11.898438 10.046875 -11.578125 C 11.617188 -11.191406 12.882812 -10.8125 13.84375 -10.4375 C 14.8125 -10.0625 15.628906 -9.492188 16.296875 -8.734375 C 16.972656 -7.972656 17.3125 -6.941406 17.3125 -5.640625 C 17.3125 -4.554688 17.019531 -3.570312 16.4375 -2.6875 C 15.851562 -1.8125 14.960938 -1.113281 13.765625 -0.59375 C 12.566406 -0.0703125 11.097656 0.1875 9.359375 0.1875 Z M 9.359375 0.1875 "/></g></g></g><g fill="#a6a6a6" fill-opacity="0.4"><g transform="translate(312.847706, 71.769602)"><g/></g></g><g fill="#0071bc" fill-opacity="1"><g transform="translate(311.500768, 70.42266)"><g/></g></g><g fill="#a6a6a6" fill-opacity="0.4"><g transform="translate(219.425835, 103.269601)"><g><path d="M 12.734375 0.1875 C 10.617188 0.1875 8.710938 -0.28125 7.015625 -1.21875 C 5.328125 -2.15625 4 -3.453125 3.03125 -5.109375 C 2.0625 -6.765625 1.578125 -8.613281 1.578125 -10.65625 C 1.578125 -12.707031 2.0625 -14.5625 3.03125 -16.21875 C 4 -17.875 5.332031 -19.171875 7.03125 -20.109375 C 8.738281 -21.046875 10.648438 -21.515625 12.765625 -21.515625 C 14.347656 -21.515625 15.8125 -21.25 17.15625 -20.71875 C 18.5 -20.1875 19.632812 -19.414062 20.5625 -18.40625 L 19.140625 -16.96875 C 17.472656 -18.65625 15.367188 -19.5 12.828125 -19.5 C 11.140625 -19.5 9.601562 -19.113281 8.21875 -18.34375 C 6.84375 -17.570312 5.765625 -16.515625 4.984375 -15.171875 C 4.203125 -13.828125 3.8125 -12.320312 3.8125 -10.65625 C 3.8125 -9 4.203125 -7.5 4.984375 -6.15625 C 5.765625 -4.8125 6.84375 -3.753906 8.21875 -2.984375 C 9.601562 -2.210938 11.140625 -1.828125 12.828125 -1.828125 C 15.390625 -1.828125 17.492188 -2.679688 19.140625 -4.390625 L 20.5625 -2.953125 C 19.632812 -1.941406 18.492188 -1.164062 17.140625 -0.625 C 15.785156 -0.0820312 14.316406 0.1875 12.734375 0.1875 Z M 12.734375 0.1875 "/></g></g></g><g fill="#a6a6a6" fill-opacity="0.4"><g transform="translate(242.856806, 103.269601)"><g><path d="M 3.46875 -21.328125 L 5.734375 -21.328125 L 5.734375 -1.953125 L 17.671875 -1.953125 L 17.671875 0 L 3.46875 0 Z M 3.46875 -21.328125 "/></g></g></g><g fill="#a6a6a6" fill-opacity="0.4"><g transform="translate(262.32683, 103.269601)"><g><path d="M 18.5625 -1.953125 L 18.5625 0 L 3.46875 0 L 3.46875 -21.328125 L 18.09375 -21.328125 L 18.09375 -19.375 L 5.734375 -19.375 L 5.734375 -11.796875 L 16.75 -11.796875 L 16.75 -9.875 L 5.734375 -9.875 L 5.734375 -1.953125 Z M 18.5625 -1.953125 "/></g></g></g><g fill="#a6a6a6" fill-opacity="0.4"><g transform="translate(284.234365, 103.269601)"><g><path d="M 16.84375 -5.703125 L 4.96875 -5.703125 L 2.40625 0 L 0.0625 0 L 9.8125 -21.328125 L 12.03125 -21.328125 L 21.78125 0 L 19.40625 0 Z M 16.03125 -7.53125 L 10.90625 -18.984375 L 5.78125 -7.53125 Z M 16.03125 -7.53125 "/></g></g></g><g fill="#a6a6a6" fill-opacity="0.4"><g transform="translate(307.604396, 103.269601)"><g><path d="M 21.296875 -21.328125 L 21.296875 0 L 19.4375 0 L 5.734375 -17.3125 L 5.734375 0 L 3.46875 0 L 3.46875 -21.328125 L 5.328125 -21.328125 L 19.078125 -4.015625 L 19.078125 -21.328125 Z M 21.296875 -21.328125 "/></g></g></g><g fill="#0071bc" fill-opacity="1"><g transform="translate(218.078897, 101.922659)"><g><path d="M 12.734375 0.1875 C 10.617188 0.1875 8.710938 -0.28125 7.015625 -1.21875 C 5.328125 -2.15625 4 -3.453125 3.03125 -5.109375 C 2.0625 -6.765625 1.578125 -8.613281 1.578125 -10.65625 C 1.578125 -12.707031 2.0625 -14.5625 3.03125 -16.21875 C 4 -17.875 5.332031 -19.171875 7.03125 -20.109375 C 8.738281 -21.046875 10.648438 -21.515625 12.765625 -21.515625 C 14.347656 -21.515625 15.8125 -21.25 17.15625 -20.71875 C 18.5 -20.1875 19.632812 -19.414062 20.5625 -18.40625 L 19.140625 -16.96875 C 17.472656 -18.65625 15.367188 -19.5 12.828125 -19.5 C 11.140625 -19.5 9.601562 -19.113281 8.21875 -18.34375 C 6.84375 -17.570312 5.765625 -16.515625 4.984375 -15.171875 C 4.203125 -13.828125 3.8125 -12.320312 3.8125 -10.65625 C 3.8125 -9 4.203125 -7.5 4.984375 -6.15625 C 5.765625 -4.8125 6.84375 -3.753906 8.21875 -2.984375 C 9.601562 -2.210938 11.140625 -1.828125 12.828125 -1.828125 C 15.390625 -1.828125 17.492188 -2.679688 19.140625 -4.390625 L 20.5625 -2.953125 C 19.632812 -1.941406 18.492188 -1.164062 17.140625 -0.625 C 15.785156 -0.0820312 14.316406 0.1875 12.734375 0.1875 Z M 12.734375 0.1875 "/></g></g></g><g fill="#0071bc" fill-opacity="1"><g transform="translate(241.509869, 101.922659)"><g><path d="M 3.46875 -21.328125 L 5.734375 -21.328125 L 5.734375 -1.953125 L 17.671875 -1.953125 L 17.671875 0 L 3.46875 0 Z M 3.46875 -21.328125 "/></g></g></g><g fill="#0071bc" fill-opacity="1"><g transform="translate(260.979892, 101.922659)"><g><path d="M 18.5625 -1.953125 L 18.5625 0 L 3.46875 0 L 3.46875 -21.328125 L 18.09375 -21.328125 L 18.09375 -19.375 L 5.734375 -19.375 L 5.734375 -11.796875 L 16.75 -11.796875 L 16.75 -9.875 L 5.734375 -9.875 L 5.734375 -1.953125 Z M 18.5625 -1.953125 "/></g></g></g><g fill="#0071bc" fill-opacity="1"><g transform="translate(282.887428, 101.922659)"><g><path d="M 16.84375 -5.703125 L 4.96875 -5.703125 L 2.40625 0 L 0.0625 0 L 9.8125 -21.328125 L 12.03125 -21.328125 L 21.78125 0 L 19.40625 0 Z M 16.03125 -7.53125 L 10.90625 -18.984375 L 5.78125 -7.53125 Z M 16.03125 -7.53125 "/></g></g></g><g fill="#0071bc" fill-opacity="1"><g transform="translate(306.257458, 101.922659)"><g><path d="M 21.296875 -21.328125 L 21.296875 0 L 19.4375 0 L 5.734375 -17.3125 L 5.734375 0 L 3.46875 0 L 3.46875 -21.328125 L 5.328125 -21.328125 L 19.078125 -4.015625 L 19.078125 -21.328125 Z M 21.296875 -21.328125 "/></g></g></g><g fill="#a6a6a6" fill-opacity="0.4"><g transform="translate(195.182527, 138.901622)"><g><path d="M 3.4375 0 C 2.78125 0 2.273438 -0.175781 1.921875 -0.53125 C 1.578125 -0.894531 1.40625 -1.394531 1.40625 -2.03125 L 1.40625 -13.421875 C 1.40625 -14.078125 1.578125 -14.578125 1.921875 -14.921875 C 2.273438 -15.273438 2.773438 -15.453125 3.421875 -15.453125 C 4.054688 -15.453125 4.546875 -15.273438 4.890625 -14.921875 C 5.242188 -14.578125 5.421875 -14.078125 5.421875 -13.421875 L 5.421875 -3.34375 L 10.765625 -3.34375 C 11.328125 -3.34375 11.753906 -3.195312 12.046875 -2.90625 C 12.347656 -2.613281 12.5 -2.207031 12.5 -1.6875 C 12.5 -1.144531 12.347656 -0.726562 12.046875 -0.4375 C 11.753906 -0.144531 11.328125 0 10.765625 0 Z M 3.4375 0 "/></g></g></g><g fill="#a6a6a6" fill-opacity="0.4"><g transform="translate(216.560809, 138.901622)"><g><path d="M 2.125 0.203125 C 1.4375 0.203125 0.929688 -0.03125 0.609375 -0.5 C 0.285156 -0.96875 0.285156 -1.550781 0.609375 -2.25 L 6.0625 -13.984375 C 6.320312 -14.554688 6.640625 -14.972656 7.015625 -15.234375 C 7.398438 -15.492188 7.847656 -15.625 8.359375 -15.625 C 8.859375 -15.625 9.296875 -15.492188 9.671875 -15.234375 C 10.054688 -14.972656 10.378906 -14.554688 10.640625 -13.984375 L 16.09375 -2.25 C 16.425781 -1.539062 16.4375 -0.953125 16.125 -0.484375 C 15.820312 -0.0234375 15.34375 0.203125 14.6875 0.203125 C 14.101562 0.203125 13.65625 0.0703125 13.34375 -0.1875 C 13.03125 -0.457031 12.75 -0.882812 12.5 -1.46875 L 11.796875 -3.125 L 4.90625 -3.125 L 4.203125 -1.46875 C 3.941406 -0.882812 3.671875 -0.457031 3.390625 -0.1875 C 3.117188 0.0703125 2.695312 0.203125 2.125 0.203125 Z M 8.3125 -11.234375 L 6.21875 -6.21875 L 10.46875 -6.21875 L 8.359375 -11.234375 Z M 8.3125 -11.234375 "/></g></g></g><g fill="#a6a6a6" fill-opacity="0.4"><g transform="translate(241.833551, 138.901622)"><g><path d="M 8.234375 0.234375 C 5.984375 0.234375 4.265625 -0.332031 3.078125 -1.46875 C 1.890625 -2.601562 1.296875 -4.300781 1.296875 -6.5625 L 1.296875 -13.59375 C 1.296875 -14.25 1.46875 -14.75 1.8125 -15.09375 C 2.164062 -15.445312 2.664062 -15.625 3.3125 -15.625 C 3.945312 -15.625 4.4375 -15.445312 4.78125 -15.09375 C 5.132812 -14.75 5.3125 -14.25 5.3125 -13.59375 L 5.3125 -6.515625 C 5.3125 -5.398438 5.5625 -4.554688 6.0625 -3.984375 C 6.5625 -3.410156 7.285156 -3.125 8.234375 -3.125 C 9.160156 -3.125 9.875 -3.410156 10.375 -3.984375 C 10.875 -4.554688 11.125 -5.398438 11.125 -6.515625 L 11.125 -13.59375 C 11.125 -14.25 11.296875 -14.75 11.640625 -15.09375 C 11.984375 -15.445312 12.472656 -15.625 13.109375 -15.625 C 13.753906 -15.625 14.242188 -15.445312 14.578125 -15.09375 C 14.910156 -14.75 15.078125 -14.25 15.078125 -13.59375 L 15.078125 -6.5625 C 15.078125 -4.300781 14.5 -2.601562 13.34375 -1.46875 C 12.1875 -0.332031 10.484375 0.234375 8.234375 0.234375 Z M 8.234375 0.234375 "/></g></g></g><g fill="#a6a6a6" fill-opacity="0.4"><g transform="translate(266.778111, 138.901622)"><g><path d="M 3.28125 0.203125 C 2.03125 0.203125 1.40625 -0.429688 1.40625 -1.703125 L 1.40625 -13.640625 C 1.40625 -14.273438 1.5625 -14.765625 1.875 -15.109375 C 2.195312 -15.453125 2.625 -15.625 3.15625 -15.625 C 3.625 -15.625 3.984375 -15.535156 4.234375 -15.359375 C 4.492188 -15.191406 4.789062 -14.898438 5.125 -14.484375 L 11.453125 -6.59375 L 11.453125 -13.75 C 11.453125 -15 12.070312 -15.625 13.3125 -15.625 C 13.925781 -15.625 14.390625 -15.457031 14.703125 -15.125 C 15.015625 -14.800781 15.171875 -14.34375 15.171875 -13.75 L 15.171875 -1.625 C 15.171875 -1.0625 15.023438 -0.613281 14.734375 -0.28125 C 14.441406 0.0390625 14.046875 0.203125 13.546875 0.203125 C 13.054688 0.203125 12.664062 0.113281 12.375 -0.0625 C 12.09375 -0.238281 11.789062 -0.53125 11.46875 -0.9375 L 5.140625 -8.84375 L 5.140625 -1.703125 C 5.140625 -0.429688 4.519531 0.203125 3.28125 0.203125 Z M 3.28125 0.203125 "/></g></g></g><g fill="#a6a6a6" fill-opacity="0.4"><g transform="translate(291.941459, 138.901622)"><g><path d="M 3.5 0 C 2.101562 0 1.40625 -0.691406 1.40625 -2.078125 L 1.40625 -13.359375 C 1.40625 -14.742188 2.101562 -15.4375 3.5 -15.4375 L 7.796875 -15.4375 C 10.460938 -15.4375 12.53125 -14.765625 14 -13.421875 C 15.476562 -12.078125 16.21875 -10.179688 16.21875 -7.734375 C 16.21875 -5.273438 15.476562 -3.367188 14 -2.015625 C 12.53125 -0.671875 10.460938 0 7.796875 0 Z M 5.421875 -3.265625 L 7.53125 -3.265625 C 9.0625 -3.265625 10.195312 -3.628906 10.9375 -4.359375 C 11.675781 -5.097656 12.046875 -6.222656 12.046875 -7.734375 C 12.046875 -9.234375 11.671875 -10.347656 10.921875 -11.078125 C 10.179688 -11.804688 9.050781 -12.171875 7.53125 -12.171875 L 5.421875 -12.171875 Z M 5.421875 -3.265625 "/></g></g></g><g fill="#a6a6a6" fill-opacity="0.4"><g transform="translate(317.71742, 138.901622)"><g><path d="M 3.421875 0.203125 C 2.773438 0.203125 2.273438 0.0234375 1.921875 -0.328125 C 1.578125 -0.679688 1.40625 -1.1875 1.40625 -1.84375 L 1.40625 -13.390625 C 1.40625 -14.046875 1.578125 -14.550781 1.921875 -14.90625 C 2.273438 -15.257812 2.78125 -15.4375 3.4375 -15.4375 L 8.828125 -15.4375 C 10.578125 -15.4375 11.925781 -15.007812 12.875 -14.15625 C 13.832031 -13.300781 14.3125 -12.113281 14.3125 -10.59375 C 14.3125 -9.4375 14.023438 -8.46875 13.453125 -7.6875 C 12.878906 -6.90625 12.046875 -6.363281 10.953125 -6.0625 C 11.765625 -5.84375 12.421875 -5.28125 12.921875 -4.375 L 14.015625 -2.40625 C 14.242188 -1.96875 14.347656 -1.550781 14.328125 -1.15625 C 14.304688 -0.757812 14.148438 -0.429688 13.859375 -0.171875 C 13.566406 0.078125 13.132812 0.203125 12.5625 0.203125 C 12 0.203125 11.535156 0.0859375 11.171875 -0.140625 C 10.816406 -0.367188 10.5 -0.738281 10.21875 -1.25 L 8.234375 -4.90625 C 8.054688 -5.226562 7.832031 -5.445312 7.5625 -5.5625 C 7.289062 -5.6875 6.984375 -5.75 6.640625 -5.75 L 5.421875 -5.75 L 5.421875 -1.84375 C 5.421875 -1.1875 5.25 -0.679688 4.90625 -0.328125 C 4.570312 0.0234375 4.078125 0.203125 3.421875 0.203125 Z M 5.421875 -8.609375 L 8.09375 -8.609375 C 9.6875 -8.609375 10.484375 -9.234375 10.484375 -10.484375 C 10.484375 -11.722656 9.6875 -12.34375 8.09375 -12.34375 L 5.421875 -12.34375 Z M 5.421875 -8.609375 "/></g></g></g><g fill="#a6a6a6" fill-opacity="0.4"><g transform="translate(341.743066, 138.901622)"><g><path d="M 7.046875 0.203125 C 6.398438 0.203125 5.898438 0.0234375 5.546875 -0.328125 C 5.203125 -0.691406 5.03125 -1.207031 5.03125 -1.875 L 5.03125 -6.828125 L 0.828125 -12.921875 C 0.578125 -13.265625 0.46875 -13.644531 0.5 -14.0625 C 0.539062 -14.488281 0.71875 -14.851562 1.03125 -15.15625 C 1.351562 -15.46875 1.804688 -15.625 2.390625 -15.625 C 2.796875 -15.625 3.164062 -15.519531 3.5 -15.3125 C 3.832031 -15.113281 4.144531 -14.789062 4.4375 -14.34375 L 7.109375 -10.421875 L 9.78125 -14.359375 C 10.09375 -14.804688 10.40625 -15.128906 10.71875 -15.328125 C 11.039062 -15.523438 11.421875 -15.625 11.859375 -15.625 C 12.421875 -15.625 12.851562 -15.484375 13.15625 -15.203125 C 13.457031 -14.929688 13.617188 -14.582031 13.640625 -14.15625 C 13.671875 -13.738281 13.539062 -13.3125 13.25 -12.875 L 9.0625 -6.828125 L 9.0625 -1.875 C 9.0625 -0.488281 8.390625 0.203125 7.046875 0.203125 Z M 7.046875 0.203125 "/></g></g></g><g fill="#0071bc" fill-opacity="1"><g transform="translate(194.21532, 137.934417)"><g><path d="M 3.4375 0 C 2.78125 0 2.273438 -0.175781 1.921875 -0.53125 C 1.578125 -0.894531 1.40625 -1.394531 1.40625 -2.03125 L 1.40625 -13.421875 C 1.40625 -14.078125 1.578125 -14.578125 1.921875 -14.921875 C 2.273438 -15.273438 2.773438 -15.453125 3.421875 -15.453125 C 4.054688 -15.453125 4.546875 -15.273438 4.890625 -14.921875 C 5.242188 -14.578125 5.421875 -14.078125 5.421875 -13.421875 L 5.421875 -3.34375 L 10.765625 -3.34375 C 11.328125 -3.34375 11.753906 -3.195312 12.046875 -2.90625 C 12.347656 -2.613281 12.5 -2.207031 12.5 -1.6875 C 12.5 -1.144531 12.347656 -0.726562 12.046875 -0.4375 C 11.753906 -0.144531 11.328125 0 10.765625 0 Z M 3.4375 0 "/></g></g></g><g fill="#0071bc" fill-opacity="1"><g transform="translate(215.593601, 137.934417)"><g><path d="M 2.125 0.203125 C 1.4375 0.203125 0.929688 -0.03125 0.609375 -0.5 C 0.285156 -0.96875 0.285156 -1.550781 0.609375 -2.25 L 6.0625 -13.984375 C 6.320312 -14.554688 6.640625 -14.972656 7.015625 -15.234375 C 7.398438 -15.492188 7.847656 -15.625 8.359375 -15.625 C 8.859375 -15.625 9.296875 -15.492188 9.671875 -15.234375 C 10.054688 -14.972656 10.378906 -14.554688 10.640625 -13.984375 L 16.09375 -2.25 C 16.425781 -1.539062 16.4375 -0.953125 16.125 -0.484375 C 15.820312 -0.0234375 15.34375 0.203125 14.6875 0.203125 C 14.101562 0.203125 13.65625 0.0703125 13.34375 -0.1875 C 13.03125 -0.457031 12.75 -0.882812 12.5 -1.46875 L 11.796875 -3.125 L 4.90625 -3.125 L 4.203125 -1.46875 C 3.941406 -0.882812 3.671875 -0.457031 3.390625 -0.1875 C 3.117188 0.0703125 2.695312 0.203125 2.125 0.203125 Z M 8.3125 -11.234375 L 6.21875 -6.21875 L 10.46875 -6.21875 L 8.359375 -11.234375 Z M 8.3125 -11.234375 "/></g></g></g><g fill="#0071bc" fill-opacity="1"><g transform="translate(240.866344, 137.934417)"><g><path d="M 8.234375 0.234375 C 5.984375 0.234375 4.265625 -0.332031 3.078125 -1.46875 C 1.890625 -2.601562 1.296875 -4.300781 1.296875 -6.5625 L 1.296875 -13.59375 C 1.296875 -14.25 1.46875 -14.75 1.8125 -15.09375 C 2.164062 -15.445312 2.664062 -15.625 3.3125 -15.625 C 3.945312 -15.625 4.4375 -15.445312 4.78125 -15.09375 C 5.132812 -14.75 5.3125 -14.25 5.3125 -13.59375 L 5.3125 -6.515625 C 5.3125 -5.398438 5.5625 -4.554688 6.0625 -3.984375 C 6.5625 -3.410156 7.285156 -3.125 8.234375 -3.125 C 9.160156 -3.125 9.875 -3.410156 10.375 -3.984375 C 10.875 -4.554688 11.125 -5.398438 11.125 -6.515625 L 11.125 -13.59375 C 11.125 -14.25 11.296875 -14.75 11.640625 -15.09375 C 11.984375 -15.445312 12.472656 -15.625 13.109375 -15.625 C 13.753906 -15.625 14.242188 -15.445312 14.578125 -15.09375 C 14.910156 -14.75 15.078125 -14.25 15.078125 -13.59375 L 15.078125 -6.5625 C 15.078125 -4.300781 14.5 -2.601562 13.34375 -1.46875 C 12.1875 -0.332031 10.484375 0.234375 8.234375 0.234375 Z M 8.234375 0.234375 "/></g></g></g><g fill="#0071bc" fill-opacity="1"><g transform="translate(265.810904, 137.934417)"><g><path d="M 3.28125 0.203125 C 2.03125 0.203125 1.40625 -0.429688 1.40625 -1.703125 L 1.40625 -13.640625 C 1.40625 -14.273438 1.5625 -14.765625 1.875 -15.109375 C 2.195312 -15.453125 2.625 -15.625 3.15625 -15.625 C 3.625 -15.625 3.984375 -15.535156 4.234375 -15.359375 C 4.492188 -15.191406 4.789062 -14.898438 5.125 -14.484375 L 11.453125 -6.59375 L 11.453125 -13.75 C 11.453125 -15 12.070312 -15.625 13.3125 -15.625 C 13.925781 -15.625 14.390625 -15.457031 14.703125 -15.125 C 15.015625 -14.800781 15.171875 -14.34375 15.171875 -13.75 L 15.171875 -1.625 C 15.171875 -1.0625 15.023438 -0.613281 14.734375 -0.28125 C 14.441406 0.0390625 14.046875 0.203125 13.546875 0.203125 C 13.054688 0.203125 12.664062 0.113281 12.375 -0.0625 C 12.09375 -0.238281 11.789062 -0.53125 11.46875 -0.9375 L 5.140625 -8.84375 L 5.140625 -1.703125 C 5.140625 -0.429688 4.519531 0.203125 3.28125 0.203125 Z M 3.28125 0.203125 "/></g></g></g><g fill="#0071bc" fill-opacity="1"><g transform="translate(290.974252, 137.934417)"><g><path d="M 3.5 0 C 2.101562 0 1.40625 -0.691406 1.40625 -2.078125 L 1.40625 -13.359375 C 1.40625 -14.742188 2.101562 -15.4375 3.5 -15.4375 L 7.796875 -15.4375 C 10.460938 -15.4375 12.53125 -14.765625 14 -13.421875 C 15.476562 -12.078125 16.21875 -10.179688 16.21875 -7.734375 C 16.21875 -5.273438 15.476562 -3.367188 14 -2.015625 C 12.53125 -0.671875 10.460938 0 7.796875 0 Z M 5.421875 -3.265625 L 7.53125 -3.265625 C 9.0625 -3.265625 10.195312 -3.628906 10.9375 -4.359375 C 11.675781 -5.097656 12.046875 -6.222656 12.046875 -7.734375 C 12.046875 -9.234375 11.671875 -10.347656 10.921875 -11.078125 C 10.179688 -11.804688 9.050781 -12.171875 7.53125 -12.171875 L 5.421875 -12.171875 Z M 5.421875 -3.265625 "/></g></g></g><g fill="#0071bc" fill-opacity="1"><g transform="translate(316.750213, 137.934417)"><g><path d="M 3.421875 0.203125 C 2.773438 0.203125 2.273438 0.0234375 1.921875 -0.328125 C 1.578125 -0.679688 1.40625 -1.1875 1.40625 -1.84375 L 1.40625 -13.390625 C 1.40625 -14.046875 1.578125 -14.550781 1.921875 -14.90625 C 2.273438 -15.257812 2.78125 -15.4375 3.4375 -15.4375 L 8.828125 -15.4375 C 10.578125 -15.4375 11.925781 -15.007812 12.875 -14.15625 C 13.832031 -13.300781 14.3125 -12.113281 14.3125 -10.59375 C 14.3125 -9.4375 14.023438 -8.46875 13.453125 -7.6875 C 12.878906 -6.90625 12.046875 -6.363281 10.953125 -6.0625 C 11.765625 -5.84375 12.421875 -5.28125 12.921875 -4.375 L 14.015625 -2.40625 C 14.242188 -1.96875 14.347656 -1.550781 14.328125 -1.15625 C 14.304688 -0.757812 14.148438 -0.429688 13.859375 -0.171875 C 13.566406 0.078125 13.132812 0.203125 12.5625 0.203125 C 12 0.203125 11.535156 0.0859375 11.171875 -0.140625 C 10.816406 -0.367188 10.5 -0.738281 10.21875 -1.25 L 8.234375 -4.90625 C 8.054688 -5.226562 7.832031 -5.445312 7.5625 -5.5625 C 7.289062 -5.6875 6.984375 -5.75 6.640625 -5.75 L 5.421875 -5.75 L 5.421875 -1.84375 C 5.421875 -1.1875 5.25 -0.679688 4.90625 -0.328125 C 4.570312 0.0234375 4.078125 0.203125 3.421875 0.203125 Z M 5.421875 -8.609375 L 8.09375 -8.609375 C 9.6875 -8.609375 10.484375 -9.234375 10.484375 -10.484375 C 10.484375 -11.722656 9.6875 -12.34375 8.09375 -12.34375 L 5.421875 -12.34375 Z M 5.421875 -8.609375 "/></g></g></g><g fill="#0071bc" fill-opacity="1"><g transform="translate(340.775858, 137.934417)"><g><path d="M 7.046875 0.203125 C 6.398438 0.203125 5.898438 0.0234375 5.546875 -0.328125 C 5.203125 -0.691406 5.03125 -1.207031 5.03125 -1.875 L 5.03125 -6.828125 L 0.828125 -12.921875 C 0.578125 -13.265625 0.46875 -13.644531 0.5 -14.0625 C 0.539062 -14.488281 0.71875 -14.851562 1.03125 -15.15625 C 1.351562 -15.46875 1.804688 -15.625 2.390625 -15.625 C 2.796875 -15.625 3.164062 -15.519531 3.5 -15.3125 C 3.832031 -15.113281 4.144531 -14.789062 4.4375 -14.34375 L 7.109375 -10.421875 L 9.78125 -14.359375 C 10.09375 -14.804688 10.40625 -15.128906 10.71875 -15.328125 C 11.039062 -15.523438 11.421875 -15.625 11.859375 -15.625 C 12.421875 -15.625 12.851562 -15.484375 13.15625 -15.203125 C 13.457031 -14.929688 13.617188 -14.582031 13.640625 -14.15625 C 13.671875 -13.738281 13.539062 -13.3125 13.25 -12.875 L 9.0625 -6.828125 L 9.0625 -1.875 C 9.0625 -0.488281 8.390625 0.203125 7.046875 0.203125 Z M 7.046875 0.203125 "/></g></g></g></svg>